<svg xmlns="http://www.w3.org/2000/svg" xmlns:xlink="http://www.w3.org/1999/xlink" contentStyleType="text/css" data-diagram-type="CLASS" height="918px" preserveAspectRatio="none" style="width:1315px;height:918px;background:#FFFFFF;" version="1.1" viewBox="0 0 1315 918" width="1315px" zoomAndPan="magnify"><defs/><g><!--cluster sad--><g class="cluster" data-entity="sad" data-source-line="36" data-uid="ent0011" id="cluster_sad"><path d="M641.12,523.5 L669.9218,523.5 A3.75,3.75 0 0 1 672.4218,526 L679.4218,545.7969 L1306.12,545.7969 A2.5,2.5 0 0 1 1308.62,548.2969 L1308.62,813.86 A2.5,2.5 0 0 1 1306.12,816.36 L641.12,816.36 A2.5,2.5 0 0 1 638.62,813.86 L638.62,526 A2.5,2.5 0 0 1 641.12,523.5" fill="none" style="stroke:#000000;stroke-width:1.5;"/><line style="stroke:#000000;stroke-width:1.5;" x1="638.62" x2="679.4218" y1="545.7969" y2="545.7969"/><text fill="#000000" font-family="sans-serif" font-size="14" font-weight="bold" lengthAdjust="spacing" textLength="27.8018" x="642.62" y="538.4951">sad</text></g><!--cluster gruppo11--><g class="cluster" data-entity="gruppo11" data-source-line="36" data-uid="ent0012" id="cluster_gruppo11"><path d="M665.12,566.5 L742.1561,566.5 A3.75,3.75 0 0 1 744.6561,569 L751.6561,588.7969 L1282.12,588.7969 A2.5,2.5 0 0 1 1284.62,591.2969 L1284.62,789.86 A2.5,2.5 0 0 1 1282.12,792.36 L665.12,792.36 A2.5,2.5 0 0 1 662.62,789.86 L662.62,569 A2.5,2.5 0 0 1 665.12,566.5" fill="none" style="stroke:#000000;stroke-width:1.5;"/><line style="stroke:#000000;stroke-width:1.5;" x1="662.62" x2="751.6561" y1="588.7969" y2="588.7969"/><text fill="#000000" font-family="sans-serif" font-size="14" font-weight="bold" lengthAdjust="spacing" textLength="76.0361" x="666.62" y="581.4951">gruppo11</text></g><!--cluster Controller--><g class="cluster" data-entity="Controller" data-source-line="35" data-uid="ent0009" id="cluster_Controller"><path d="M981.12,609.5 L1061.1913,609.5 A3.75,3.75 0 0 1 1063.6913,612 L1070.6913,631.7969 L1258.12,631.7969 A2.5,2.5 0 0 1 1260.62,634.2969 L1260.62,765.86 A2.5,2.5 0 0 1 1258.12,768.36 L981.12,768.36 A2.5,2.5 0 0 1 978.62,765.86 L978.62,612 A2.5,2.5 0 0 1 981.12,609.5" fill="none" style="stroke:#000000;stroke-width:1.5;"/><line style="stroke:#000000;stroke-width:1.5;" x1="978.62" x2="1070.6913" y1="631.7969" y2="631.7969"/><text fill="#000000" font-family="sans-serif" font-size="14" font-weight="bold" lengthAdjust="spacing" textLength="79.0713" x="982.62" y="624.4951">Controller</text></g><!--cluster Model--><g class="cluster" data-entity="Model" data-source-line="44" data-uid="ent0013" id="cluster_Model"><path d="M689.12,621.65 L737.9852,621.65 A3.75,3.75 0 0 1 740.4852,624.15 L747.4852,643.9469 L952.12,643.9469 A2.5,2.5 0 0 1 954.62,646.4469 L954.62,753.71 A2.5,2.5 0 0 1 952.12,756.21 L689.12,756.21 A2.5,2.5 0 0 1 686.62,753.71 L686.62,624.15 A2.5,2.5 0 0 1 689.12,621.65" fill="none" style="stroke:#000000;stroke-width:1.5;"/><line style="stroke:#000000;stroke-width:1.5;" x1="686.62" x2="747.4852" y1="643.9469" y2="643.9469"/><text fill="#000000" font-family="sans-serif" font-size="14" font-weight="bold" lengthAdjust="spacing" textLength="47.8652" x="690.62" y="636.6451">Model</text></g><!--class GeoEngine--><g class="entity" data-entity="GeoEngine" data-source-line="36" data-uid="ent0010" id="entity_GeoEngine"><rect fill="#F1F1F1" height="88.8594" rx="2.5" ry="2.5" style="stroke:#181818;stroke-width:0.5;" width="250.9639" x="994.13" y="663.5"/><ellipse cx="1077.3575" cy="683.6328" fill="#ADD1B2" rx="11" ry="11" style="stroke:#181818;stroke-width:1;"/><path d="M1080.3263,689.2734 Q1079.7482,689.5703 1079.1075,689.7109 Q1078.4669,689.8672 1077.7638,689.8672 Q1075.2638,689.8672 1073.9357,688.2266 Q1072.6232,686.5703 1072.6232,683.4453 Q1072.6232,680.3203 1073.9357,678.6641 Q1075.2638,677.0078 1077.7638,677.0078 Q1078.4669,677.0078 1079.1075,677.1641 Q1079.7638,677.3203 1080.3263,677.6172 L1080.3263,680.3359 Q1079.7013,679.7578 1079.1075,679.4922 Q1078.5138,679.2109 1077.8888,679.2109 Q1076.545,679.2109 1075.8575,680.2891 Q1075.17,681.3516 1075.17,683.4453 Q1075.17,685.5391 1075.8575,686.6172 Q1076.545,687.6797 1077.8888,687.6797 Q1078.5138,687.6797 1079.1075,687.4141 Q1079.7013,687.1328 1080.3263,686.5547 L1080.3263,689.2734 Z " fill="#000000"/><text fill="#000000" font-family="sans-serif" font-size="12" font-style="italic" lengthAdjust="spacing" textLength="49.4238" x="1111.15" y="679.6387">&#171;Client&#187;</text><text fill="#000000" font-family="sans-serif" font-size="14" lengthAdjust="spacing" textLength="76.0088" x="1097.8575" y="695.4639">GeoEngine</text><line style="stroke:#181818;stroke-width:0.5;" x1="995.13" x2="1244.0939" y1="703.7656" y2="703.7656"/><text fill="#000000" font-family="sans-serif" font-size="14" lengthAdjust="spacing" textLength="204.4834" x="1000.13" y="720.7607">-cmdMgr: CommandManager</text><line style="stroke:#181818;stroke-width:0.5;" x1="995.13" x2="1244.0939" y1="728.0625" y2="728.0625"/><text fill="#000000" font-family="sans-serif" font-size="14" lengthAdjust="spacing" textLength="238.9639" x="1000.13" y="745.0576">+moveSelectedShapes(Vector2D)</text></g><!--class Drawing--><g class="entity" data-entity="Drawing" data-source-line="45" data-uid="ent0014" id="entity_Drawing"><rect fill="#F1F1F1" height="64.5625" rx="2.5" ry="2.5" style="stroke:#181818;stroke-width:0.5;" width="235.7197" x="702.76" y="675.65"/><ellipse cx="784.8015" cy="695.7828" fill="#ADD1B2" rx="11" ry="11" style="stroke:#181818;stroke-width:1;"/><path d="M787.7703,701.4234 Q787.1921,701.7203 786.5515,701.8609 Q785.9109,702.0172 785.2078,702.0172 Q782.7078,702.0172 781.3796,700.3766 Q780.0671,698.7203 780.0671,695.5953 Q780.0671,692.4703 781.3796,690.8141 Q782.7078,689.1578 785.2078,689.1578 Q785.9109,689.1578 786.5515,689.3141 Q787.2078,689.4703 787.7703,689.7672 L787.7703,692.4859 Q787.1453,691.9078 786.5515,691.6422 Q785.9578,691.3609 785.3328,691.3609 Q783.989,691.3609 783.3015,692.4391 Q782.614,693.5016 782.614,695.5953 Q782.614,697.6891 783.3015,698.7672 Q783.989,699.8297 785.3328,699.8297 Q785.9578,699.8297 786.5515,699.5641 Q787.1453,699.2828 787.7703,698.7047 L787.7703,701.4234 Z " fill="#000000"/><text fill="#000000" font-family="sans-serif" font-size="12" font-style="italic" lengthAdjust="spacing" textLength="67.1367" x="803.3015" y="691.7887">&#171;Receiver&#187;</text><text fill="#000000" font-family="sans-serif" font-size="14" lengthAdjust="spacing" textLength="58.2148" x="807.7624" y="707.6139">Drawing</text><line style="stroke:#181818;stroke-width:0.5;" x1="703.76" x2="937.4797" y1="715.9156" y2="715.9156"/><text fill="#000000" font-family="sans-serif" font-size="14" lengthAdjust="spacing" textLength="223.7197" x="708.76" y="732.9107">+moveShape(Shape, Vector2D)</text></g><!--class Command--><g class="entity" data-entity="Command" data-source-line="4" data-uid="ent0002" id="entity_Command"><rect fill="#F1F1F1" height="80.8594" rx="2.5" ry="2.5" style="stroke:#181818;stroke-width:0.5;" width="104.3594" x="892.44" y="221.75"/><ellipse cx="907.44" cy="241.8828" fill="#B4A7E5" rx="11" ry="11" style="stroke:#181818;stroke-width:1;"/><path d="M903.3619,237.6484 L903.3619,235.4922 L910.7525,235.4922 L910.7525,237.6484 L908.2838,237.6484 L908.2838,245.7266 L910.7525,245.7266 L910.7525,247.8828 L903.3619,247.8828 L903.3619,245.7266 L905.8306,245.7266 L905.8306,237.6484 L903.3619,237.6484 Z " fill="#000000"/><text fill="#000000" font-family="sans-serif" font-size="12" font-style="italic" lengthAdjust="spacing" textLength="76.3594" x="919.44" y="237.8887">&#171;Command&#187;</text><text fill="#000000" font-family="sans-serif" font-size="14" font-style="italic" lengthAdjust="spacing" textLength="71.9551" x="921.6421" y="253.7139">Command</text><line style="stroke:#181818;stroke-width:0.5;" x1="893.44" x2="995.7994" y1="262.0156" y2="262.0156"/><text fill="#000000" font-family="sans-serif" font-size="14" lengthAdjust="spacing" textLength="78.8389" x="898.44" y="279.0107">+execute()</text><text fill="#000000" font-family="sans-serif" font-size="14" lengthAdjust="spacing" textLength="57.8525" x="898.44" y="295.3076">+undo()</text></g><!--class AbstractShapeCommand--><g class="entity" data-entity="AbstractShapeCommand" data-source-line="9" data-uid="ent0003" id="entity_AbstractShapeCommand"><rect fill="#F1F1F1" height="96.8906" rx="2.5" ry="2.5" style="stroke:#181818;stroke-width:0.5;" width="320.1709" x="660.53" y="363.61"/><ellipse cx="729.0842" cy="379.61" fill="#A9DCDF" rx="11" ry="11" style="stroke:#181818;stroke-width:1;"/><path d="M729.1936,374.9538 L728.0373,380.0319 L730.3654,380.0319 L729.1936,374.9538 Z M727.7092,372.7194 L730.6936,372.7194 L734.0529,385.11 L731.5998,385.11 L730.8342,382.0475 L727.5529,382.0475 L726.8029,385.11 L724.3654,385.11 L727.7092,372.7194 Z " fill="#000000"/><text fill="#000000" font-family="sans-serif" font-size="14" font-style="italic" lengthAdjust="spacing" textLength="174.5625" x="749.5842" y="384.4567">AbstractShapeCommand</text><line style="stroke:#181818;stroke-width:0.5;" x1="661.53" x2="979.7009" y1="395.61" y2="395.61"/><text fill="#000000" font-family="sans-serif" font-size="14" lengthAdjust="spacing" textLength="165.7988" x="666.53" y="412.6051">#receiverShape: Shape</text><text fill="#000000" font-family="sans-serif" font-size="14" lengthAdjust="spacing" textLength="135.4336" x="666.53" y="428.902">#drawing: Drawing</text><line style="stroke:#181818;stroke-width:0.5;" x1="661.53" x2="979.7009" y1="436.2038" y2="436.2038"/><text fill="#000000" font-family="sans-serif" font-size="14" lengthAdjust="spacing" textLength="308.1709" x="666.53" y="453.1989">+AbstractShapeCommand(Drawing, Shape)</text></g><!--class MoveShapeCommand--><g class="entity" data-entity="MoveShapeCommand" data-source-line="16" data-uid="ent0006" id="entity_MoveShapeCommand"><rect fill="#F1F1F1" height="121.4531" rx="2.5" ry="2.5" style="stroke:#181818;stroke-width:0.5;" width="373.2314" x="7" y="647.2"/><ellipse cx="112.6973" cy="667.3328" fill="#ADD1B2" rx="11" ry="11" style="stroke:#181818;stroke-width:1;"/><path d="M115.666,672.9734 Q115.0879,673.2703 114.4473,673.4109 Q113.8066,673.5672 113.1035,673.5672 Q110.6035,673.5672 109.2754,671.9266 Q107.9629,670.2703 107.9629,667.1453 Q107.9629,664.0203 109.2754,662.3641 Q110.6035,660.7078 113.1035,660.7078 Q113.8066,660.7078 114.4473,660.8641 Q115.1035,661.0203 115.666,661.3172 L115.666,664.0359 Q115.041,663.4578 114.4473,663.1922 Q113.8535,662.9109 113.2285,662.9109 Q111.8848,662.9109 111.1973,663.9891 Q110.5098,665.0516 110.5098,667.1453 Q110.5098,669.2391 111.1973,670.3172 Q111.8848,671.3797 113.2285,671.3797 Q113.8535,671.3797 114.4473,671.1141 Q115.041,670.8328 115.666,670.2547 L115.666,672.9734 Z " fill="#000000"/><text fill="#000000" font-family="sans-serif" font-size="12" font-style="italic" lengthAdjust="spacing" textLength="130.6875" x="144.522" y="663.3387">&#171;ConcreteCommand&#187;</text><text fill="#000000" font-family="sans-serif" font-size="14" lengthAdjust="spacing" textLength="153.3369" x="133.1973" y="679.1639">MoveShapeCommand</text><line style="stroke:#181818;stroke-width:0.5;" x1="8" x2="379.2314" y1="687.4656" y2="687.4656"/><text fill="#000000" font-family="sans-serif" font-size="14" lengthAdjust="spacing" textLength="164.4043" x="13" y="704.4607">-moveVector: Vector2D</text><line style="stroke:#181818;stroke-width:0.5;" x1="8" x2="379.2314" y1="711.7625" y2="711.7625"/><text fill="#000000" font-family="sans-serif" font-size="14" lengthAdjust="spacing" textLength="361.2314" x="13" y="728.7576">+MoveShapeCommand(Drawing, Shape, Vector2D)</text><text fill="#000000" font-family="sans-serif" font-size="14" lengthAdjust="spacing" textLength="78.8389" x="13" y="745.0545">+execute()</text><text fill="#000000" font-family="sans-serif" font-size="14" lengthAdjust="spacing" textLength="57.8525" x="13" y="761.3514">+undo()</text></g><!--class CommandManager--><g class="entity" data-entity="CommandManager" data-source-line="27" data-uid="ent0008" id="entity_CommandManager"><rect fill="#F1F1F1" height="137.75" rx="2.5" ry="2.5" style="stroke:#181818;stroke-width:0.5;" width="234.749" x="920.24" y="7"/><ellipse cx="966.7039" cy="27.1328" fill="#ADD1B2" rx="11" ry="11" style="stroke:#181818;stroke-width:1;"/><path d="M969.6726,32.7734 Q969.0945,33.0703 968.4539,33.2109 Q967.8132,33.3672 967.1101,33.3672 Q964.6101,33.3672 963.282,31.7266 Q961.9695,30.0703 961.9695,26.9453 Q961.9695,23.8203 963.282,22.1641 Q964.6101,20.5078 967.1101,20.5078 Q967.8132,20.5078 968.4539,20.6641 Q969.1101,20.8203 969.6726,21.1172 L969.6726,23.8359 Q969.0476,23.2578 968.4539,22.9922 Q967.8601,22.7109 967.2351,22.7109 Q965.8914,22.7109 965.2039,23.7891 Q964.5164,24.8516 964.5164,26.9453 Q964.5164,29.0391 965.2039,30.1172 Q965.8914,31.1797 967.2351,31.1797 Q967.8601,31.1797 968.4539,30.9141 Q969.0476,30.6328 969.6726,30.0547 L969.6726,32.7734 Z " fill="#000000"/><text fill="#000000" font-family="sans-serif" font-size="12" font-style="italic" lengthAdjust="spacing" textLength="59.5371" x="1024.096" y="23.1387">&#171;Invoker&#187;</text><text fill="#000000" font-family="sans-serif" font-size="14" lengthAdjust="spacing" textLength="133.3213" x="987.2039" y="38.9639">CommandManager</text><line style="stroke:#181818;stroke-width:0.5;" x1="921.24" x2="1153.989" y1="47.2656" y2="47.2656"/><text fill="#000000" font-family="sans-serif" font-size="14" lengthAdjust="spacing" textLength="222.3525" x="926.24" y="64.2607">-undoStack: Stack&lt;Command&gt;</text><text fill="#000000" font-family="sans-serif" font-size="14" lengthAdjust="spacing" textLength="218.9756" x="926.24" y="80.5576">-redoStack: Stack&lt;Command&gt;</text><line style="stroke:#181818;stroke-width:0.5;" x1="921.24" x2="1153.989" y1="87.8594" y2="87.8594"/><text fill="#000000" font-family="sans-serif" font-size="14" lengthAdjust="spacing" textLength="222.749" x="926.24" y="104.8545">+executeCommand(Command)</text><text fill="#000000" font-family="sans-serif" font-size="14" lengthAdjust="spacing" textLength="57.8525" x="926.24" y="121.1514">+undo()</text><text fill="#000000" font-family="sans-serif" font-size="14" lengthAdjust="spacing" textLength="54.4756" x="926.24" y="137.4482">+redo()</text></g><!--class Shape--><g class="entity" data-entity="Shape" data-source-line="57" data-uid="ent0019" id="entity_Shape"><rect fill="#F1F1F1" height="32" rx="2.5" ry="2.5" style="stroke:#181818;stroke-width:0.5;" width="75.8389" x="782.7" y="879.36"/><ellipse cx="797.7" cy="895.36" fill="#ADD1B2" rx="11" ry="11" style="stroke:#181818;stroke-width:1;"/><path d="M800.6688,901.0006 Q800.0906,901.2975 799.45,901.4381 Q798.8094,901.5944 798.1063,901.5944 Q795.6063,901.5944 794.2781,899.9538 Q792.9656,898.2975 792.9656,895.1725 Q792.9656,892.0475 794.2781,890.3913 Q795.6063,888.735 798.1063,888.735 Q798.8094,888.735 799.45,888.8913 Q800.1063,889.0475 800.6688,889.3444 L800.6688,892.0631 Q800.0438,891.485 799.45,891.2194 Q798.8563,890.9381 798.2313,890.9381 Q796.8875,890.9381 796.2,892.0163 Q795.5125,893.0788 795.5125,895.1725 Q795.5125,897.2663 796.2,898.3444 Q796.8875,899.4069 798.2313,899.4069 Q798.8563,899.4069 799.45,899.1413 Q800.0438,898.86 800.6688,898.2819 L800.6688,901.0006 Z " fill="#000000"/><text fill="#000000" font-family="sans-serif" font-size="14" lengthAdjust="spacing" textLength="43.8389" x="811.7" y="900.2067">Shape</text></g><g class="entity" data-entity="GMN21" data-source-line="61" data-uid="ent0022" id="entity_GMN21"><path d="M675.81,55.74 L675.81,96.0056 A0,0 0 0 0 675.81,96.0056 L885.4116,96.0056 A0,0 0 0 0 885.4116,96.0056 L885.4116,79.88 L919.88,75.88 L885.4116,71.88 L885.4116,65.74 L875.4116,55.74 L675.81,55.74 A0,0 0 0 0 675.81,55.74" fill="#FEFFDD" style="stroke:#181818;stroke-width:0.5;"/><path d="M875.4116,55.74 L875.4116,65.74 L885.4116,65.74 L875.4116,55.74" fill="#FEFFDD" style="stroke:#181818;stroke-width:0.5;"/><text fill="#000000" font-family="sans-serif" font-size="13" lengthAdjust="spacing" textLength="188.6016" x="681.81" y="72.8069">Gestisce gli stack undo/redo.</text><text fill="#000000" font-family="sans-serif" font-size="13" lengthAdjust="spacing" textLength="119.3169" x="681.81" y="87.9397">Esegue i comandi.</text></g><g class="entity" data-entity="GMN24" data-source-line="66" data-uid="ent0025" id="entity_GMN24"><path d="M414.83,680.23 L414.83,703.93 L380.55,707.93 L414.83,711.93 L414.83,735.6284 A0,0 0 0 0 414.83,735.6284 L622.4067,735.6284 A0,0 0 0 0 622.4067,735.6284 L622.4067,690.23 L612.4067,680.23 L414.83,680.23 A0,0 0 0 0 414.83,680.23" fill="#FEFFDD" style="stroke:#181818;stroke-width:0.5;"/><path d="M612.4067,680.23 L612.4067,690.23 L622.4067,690.23 L612.4067,680.23" fill="#FEFFDD" style="stroke:#181818;stroke-width:0.5;"/><text fill="#000000" font-family="sans-serif" font-size="13" lengthAdjust="spacing" textLength="69.7734" x="420.83" y="697.2969">Incapsula l</text><text fill="#000000" font-family="sans-serif" font-size="13" lengthAdjust="spacing" textLength="186.5767" x="420.83" y="712.4297">il ricevitore (Shape/Drawing)</text><text fill="#000000" font-family="sans-serif" font-size="13" lengthAdjust="spacing" textLength="163.2427" x="420.83" y="727.5625">e i parametri (Vector2D).</text></g><!--reverse link Command to AbstractShapeCommand--><g class="link" data-entity-1="Command" data-entity-2="AbstractShapeCommand" data-source-line="14" data-uid="lnk5" id="link_Command_AbstractShapeCommand"><path codeLine="14" d="M899.8214,316.6001 C884.2514,335.1601 877.14,343.65 860.79,363.15" fill="none" id="Command-backto-AbstractShapeCommand" style="stroke:#181818;stroke-width:1;stroke-dasharray:7.0,7.0;"/><polygon fill="none" points="911.39,302.81,895.2247,312.744,904.4181,320.4563,911.39,302.81" style="stroke:#181818;stroke-width:1;"/></g><!--reverse link AbstractShapeCommand to MoveShapeCommand--><g class="link" data-entity-1="AbstractShapeCommand" data-entity-2="MoveShapeCommand" data-source-line="17" data-uid="lnk7" id="link_AbstractShapeCommand_MoveShapeCommand"><path d="M642.4241,435.1094 C560.2341,449.6194 478.46,471.8 397.62,515.5 C336.73,548.41 280.42,604 242.46,646.82" fill="none" id="AbstractShapeCommand-backto-MoveShapeCommand" style="stroke:#181818;stroke-width:1;"/><polygon fill="none" points="660.15,431.98,641.381,429.2007,643.4672,441.018,660.15,431.98" style="stroke:#181818;stroke-width:1;"/></g><!--link GeoEngine to CommandManager--><g class="link" data-entity-1="GeoEngine" data-entity-2="CommandManager" data-source-line="53" data-uid="lnk15" id="link_GeoEngine_CommandManager"><path codeLine="53" d="M1112.3907,651.4004 C1098.3407,543.4904 1064.214,281.2899 1047.284,151.1499" fill="none" id="GeoEngine-CommandManager" style="stroke:#181818;stroke-width:1;"/><polygon fill="none" points="1113.94,663.3,1117.1319,656.8338,1112.3907,651.4004,1109.1988,657.8667,1113.94,663.3" style="stroke:#181818;stroke-width:1;"/><polygon fill="#181818" points="1046.51,145.2,1043.7045,154.6408,1047.155,150.1582,1051.6376,153.6088,1046.51,145.2" style="stroke:#181818;stroke-width:1;"/></g><!--link CommandManager to Command--><g class="link" data-entity-1="CommandManager" data-entity-2="Command" data-source-line="54" data-uid="lnk16" id="link_CommandManager_Command"><path codeLine="54" d="M1003.12,145.24 C990.19,170.85 978.6435,193.7436 967.4435,215.9336" fill="none" id="CommandManager-to-Command" style="stroke:#181818;stroke-width:1;stroke-dasharray:7.0,7.0;"/><polygon fill="#181818" points="964.74,221.29,972.3662,215.0578,966.9929,216.8263,965.2244,211.4531,964.74,221.29" style="stroke:#181818;stroke-width:1;"/><text fill="#000000" font-family="sans-serif" font-size="13" lengthAdjust="spacing" textLength="29.7832" x="985.62" y="187.8169">uses</text></g><!--link AbstractShapeCommand to Drawing--><g class="link" data-entity-1="AbstractShapeCommand" data-entity-2="Drawing" data-source-line="55" data-uid="lnk17" id="link_AbstractShapeCommand_Drawing"><path codeLine="55" d="M820.62,472.93 C820.62,533.43 820.62,617.88 820.62,669.38" fill="none" id="AbstractShapeCommand-Drawing" style="stroke:#181818;stroke-width:1;"/><polygon fill="none" points="820.62,460.93,816.62,466.93,820.62,472.93,824.62,466.93,820.62,460.93" style="stroke:#181818;stroke-width:1;"/><polygon fill="#181818" points="820.62,675.38,824.62,666.38,820.62,670.38,816.62,666.38,820.62,675.38" style="stroke:#181818;stroke-width:1;"/></g><!--link MoveShapeCommand to Drawing--><g class="link" data-entity-1="MoveShapeCommand" data-entity-2="Drawing" data-source-line="56" data-uid="lnk18" id="link_MoveShapeCommand_Drawing"><path codeLine="56" d="M245.15,647.12 C282.8,607.68 337.58,559.72 397.62,537.99 C498.75,501.38 539.61,498.4 639.62,537.99 C709.35,565.6 764.3464,629.3529 794.6964,670.4629" fill="none" id="MoveShapeCommand-to-Drawing" style="stroke:#181818;stroke-width:1;stroke-dasharray:7.0,7.0;"/><polygon fill="#181818" points="798.26,675.29,796.1326,665.6737,795.2903,671.2675,789.6965,670.4252,798.26,675.29" style="stroke:#181818;stroke-width:1;"/><polygon fill="#000000" points="529.6155,499.2786,520.7033,495.9585,520.4538,501.831,529.6155,499.2786" style="stroke:#000000;stroke-width:1;"/><text fill="#000000" font-family="sans-serif" font-size="13" lengthAdjust="spacing" textLength="29.1104" x="533.62" y="503.5669">calls</text></g><!--link Drawing to Shape--><g class="link" data-entity-1="Drawing" data-entity-2="Shape" data-source-line="57" data-uid="lnk20" id="link_Drawing_Shape"><path codeLine="57" d="M820.62,740.39 C820.62,780.68 820.62,842.93 820.62,873.16" fill="none" id="Drawing-to-Shape" style="stroke:#181818;stroke-width:1;stroke-dasharray:7.0,7.0;"/><polygon fill="#181818" points="820.62,879.16,824.62,870.16,820.62,874.16,816.62,870.16,820.62,879.16" style="stroke:#181818;stroke-width:1;"/><polygon fill="#000000" points="825.62,845.9264,828.5589,836.8813,822.6811,836.8813,825.62,845.9264" style="stroke:#000000;stroke-width:1;"/><text fill="#000000" font-family="sans-serif" font-size="13" lengthAdjust="spacing" textLength="29.1104" x="834.62" y="845.4269">calls</text></g><!--SRC=[VLHDR-8m4BtxLuoqXr8LqkqU4K92z4CSk2pIteqp10l7Zco7xNQt_trd4YTGI7lontYUttipTZXeMqalIr16Xh28qUjj7N6bdDteDuJlOgzp12oh-0TABBVeWn3QHlGxgH2MhYobpM4sIxFv7FuAW3jyHKL0erjUr3PtD7iNGcv3z5B5zZvOfELcBolii3Z_cqU5-eY-YKoX6NW_z_AtjiKK7ji9mm-XZ59ytARovOENPNML_PjtEeHeUQtT4JySOtrMUOnuqecl4Mt-XOX9IJ2_K4Ndfz2EFnwPy2Ny1TbnV_Zs2ojlO97duE8UFLoG2s3q0Jb-ViiObdjf2tpMnYoTSRxZYb5bZFVi_7MEZb3gOX-Jt5vjednXN5gkfPK5yPhDLlRe3kXJMqoO_YPATQ2Iyj2t3GSzVXxiNEWSI-Ev9pHZXDQTYlA90WIPPuMlgyezF6HaK_JE66B6R5hAB-YURA4jSf6DHXiJMMAaodnTKF4-ocfYTrpS3Hgg5BQMXL5VDY0tbnvbnEjUekntPZXCSUroD6Viait4xMTw4JsxbW4ZZmRQ1fX3bcKWJVG8ha8ltxIpcZTx3YVnRZAPN-gyg6QMzITW2dN0CFoc6gZkVLuz9KRfL4r1IMC2p4Mtmz7c-5bC2EiYWi5T1BUxBiOBXgW3_KQ5qH2uSu1RufwxWQK-1Ing10tASQBE13SoOoPatpGuGG_KQcMLh49j91XnqpY8a6iWxtL9lUB6T4ORWb1urEG-GbkD-wI8Qy5tDzyiqlyAfpOv4VaF]--></g></svg>