<svg xmlns="http://www.w3.org/2000/svg" xmlns:xlink="http://www.w3.org/1999/xlink" contentStyleType="text/css" data-diagram-type="CLASS" height="572px" preserveAspectRatio="none" style="width:1172px;height:572px;background:#FFFFFF;" version="1.1" viewBox="0 0 1172 572" width="1172px" zoomAndPan="magnify"><defs/><g><!--class Shape--><g class="entity" data-entity="Shape" data-source-line="4" data-uid="ent0002" id="entity_Shape"><rect fill="#F1F1F1" height="227.5313" rx="2.5" ry="2.5" style="stroke:#181818;stroke-width:0.5;" width="217.1396" x="102.33" y="7"/><ellipse cx="166.474" cy="27.1328" fill="#B4A7E5" rx="11" ry="11" style="stroke:#181818;stroke-width:1;"/><path d="M162.3959,22.8984 L162.3959,20.7422 L169.7865,20.7422 L169.7865,22.8984 L167.3178,22.8984 L167.3178,30.9766 L169.7865,30.9766 L169.7865,33.1328 L162.3959,33.1328 L162.3959,30.9766 L164.8647,30.9766 L164.8647,22.8984 L162.3959,22.8984 Z " fill="#000000"/><text fill="#000000" font-family="sans-serif" font-size="12" font-style="italic" lengthAdjust="spacing" textLength="84.3516" x="184.974" y="23.1387">&#171;Component&#187;</text><text fill="#000000" font-family="sans-serif" font-size="14" font-style="italic" lengthAdjust="spacing" textLength="43.8389" x="205.2304" y="38.9639">Shape</text><line style="stroke:#181818;stroke-width:0.5;" x1="103.33" x2="318.4696" y1="47.2656" y2="47.2656"/><text fill="#000000" font-family="sans-serif" font-size="14" lengthAdjust="spacing" textLength="103.2295" x="108.33" y="64.2607">+getId(): UUID</text><text fill="#000000" font-family="sans-serif" font-size="14" lengthAdjust="spacing" textLength="127.1416" x="108.33" y="80.5576">+move(Vector2D)</text><text fill="#000000" font-family="sans-serif" font-size="14" lengthAdjust="spacing" textLength="95.6963" x="108.33" y="96.8545">+resize(Rect)</text><text fill="#000000" font-family="sans-serif" font-size="14" lengthAdjust="spacing" textLength="138.4346" x="108.33" y="113.1514">+getBounds(): Rect</text><text fill="#000000" font-family="sans-serif" font-size="14" lengthAdjust="spacing" textLength="157.917" x="108.33" y="129.4482">+accept(ShapeVisitor)</text><text fill="#000000" font-family="sans-serif" font-size="14" lengthAdjust="spacing" textLength="4.4502" x="108.33" y="145.7451">&#160;</text><text fill="#000000" font-family="sans-serif" font-size="14" lengthAdjust="spacing" textLength="92.8457" x="108.33" y="162.042">+add(Shape)</text><text fill="#000000" font-family="sans-serif" font-size="14" lengthAdjust="spacing" textLength="119.9639" x="108.33" y="178.3389">+remove(Shape)</text><text fill="#000000" font-family="sans-serif" font-size="14" lengthAdjust="spacing" textLength="152.2158" x="108.33" y="194.6357">+getChild(int): Shape</text><text fill="#000000" font-family="sans-serif" font-size="14" lengthAdjust="spacing" textLength="205.1396" x="108.33" y="210.9326">+getChildren(): List&lt;Shape&gt;</text><text fill="#000000" font-family="sans-serif" font-size="14" lengthAdjust="spacing" textLength="173.6943" x="108.33" y="227.2295">+isComposite(): boolean</text></g><!--class AbstractBaseShape--><g class="entity" data-entity="AbstractBaseShape" data-source-line="19" data-uid="ent0003" id="entity_AbstractBaseShape"><rect fill="#F1F1F1" height="129.75" rx="2.5" ry="2.5" style="stroke:#181818;stroke-width:0.5;" width="474.0889" x="640.85" y="323.68"/><ellipse cx="805.2953" cy="343.8128" fill="#A9DCDF" rx="11" ry="11" style="stroke:#181818;stroke-width:1;"/><path d="M805.4047,339.1566 L804.2484,344.2347 L806.5766,344.2347 L805.4047,339.1566 Z M803.9203,336.9222 L806.9047,336.9222 L810.2641,349.3128 L807.8109,349.3128 L807.0453,346.2503 L803.7641,346.2503 L803.0141,349.3128 L800.5766,349.3128 L803.9203,336.9222 Z " fill="#000000"/><text fill="#000000" font-family="sans-serif" font-size="12" font-style="italic" lengthAdjust="spacing" textLength="83.8184" x="852.2353" y="339.8187">&#171;Leaf Helper&#187;</text><text fill="#000000" font-family="sans-serif" font-size="14" font-style="italic" lengthAdjust="spacing" textLength="136.6982" x="825.7953" y="355.6439">AbstractBaseShape</text><line style="stroke:#181818;stroke-width:0.5;" x1="641.85" x2="1113.9389" y1="363.9456" y2="363.9456"/><text fill="#000000" font-family="sans-serif" font-size="14" lengthAdjust="spacing" textLength="434.9707" x="646.85" y="380.9407">+add(Shape): void {throws UnsupportedOperationException}</text><text fill="#000000" font-family="sans-serif" font-size="14" lengthAdjust="spacing" textLength="462.0889" x="646.85" y="397.2376">+remove(Shape): void {throws UnsupportedOperationException}</text><text fill="#000000" font-family="sans-serif" font-size="14" lengthAdjust="spacing" textLength="455.5469" x="646.85" y="413.5345">+getChild(int): Shape {throws UnsupportedOperationException}</text><text fill="#000000" font-family="sans-serif" font-size="14" lengthAdjust="spacing" textLength="351.8936" x="646.85" y="429.8314">+getChildren(): List&lt;Shape&gt; {returns emptyList}</text><text fill="#000000" font-family="sans-serif" font-size="14" lengthAdjust="spacing" textLength="284.3682" x="646.85" y="446.1282">+isComposite(): boolean {returns false}</text></g><!--class LineSegment--><g class="entity" data-entity="LineSegment" data-source-line="28" data-uid="ent0006" id="entity_LineSegment"><rect fill="#F1F1F1" height="40.2656" rx="2.5" ry="2.5" style="stroke:#181818;stroke-width:0.5;" width="124.1758" x="561.81" y="526.57"/><ellipse cx="576.81" cy="546.7028" fill="#ADD1B2" rx="11" ry="11" style="stroke:#181818;stroke-width:1;"/><path d="M579.7788,552.3434 Q579.2006,552.6403 578.56,552.7809 Q577.9194,552.9372 577.2163,552.9372 Q574.7163,552.9372 573.3881,551.2966 Q572.0756,549.6403 572.0756,546.5153 Q572.0756,543.3903 573.3881,541.7341 Q574.7163,540.0778 577.2163,540.0778 Q577.9194,540.0778 578.56,540.2341 Q579.2163,540.3903 579.7788,540.6872 L579.7788,543.4059 Q579.1538,542.8278 578.56,542.5622 Q577.9663,542.2809 577.3413,542.2809 Q575.9975,542.2809 575.31,543.3591 Q574.6225,544.4216 574.6225,546.5153 Q574.6225,548.6091 575.31,549.6872 Q575.9975,550.7497 577.3413,550.7497 Q577.9663,550.7497 578.56,550.4841 Q579.1538,550.2028 579.7788,549.6247 L579.7788,552.3434 Z " fill="#000000"/><text fill="#000000" font-family="sans-serif" font-size="12" font-style="italic" lengthAdjust="spacing" textLength="40.3301" x="616.7329" y="542.7087">&#171;Leaf&#187;</text><text fill="#000000" font-family="sans-serif" font-size="14" lengthAdjust="spacing" textLength="92.1758" x="590.81" y="558.5339">LineSegment</text></g><!--class RectangleShape--><g class="entity" data-entity="RectangleShape" data-source-line="29" data-uid="ent0008" id="entity_RectangleShape"><rect fill="#F1F1F1" height="40.2656" rx="2.5" ry="2.5" style="stroke:#181818;stroke-width:0.5;" width="146.208" x="720.79" y="526.57"/><ellipse cx="735.79" cy="546.7028" fill="#ADD1B2" rx="11" ry="11" style="stroke:#181818;stroke-width:1;"/><path d="M738.7588,552.3434 Q738.1806,552.6403 737.54,552.7809 Q736.8994,552.9372 736.1963,552.9372 Q733.6963,552.9372 732.3681,551.2966 Q731.0556,549.6403 731.0556,546.5153 Q731.0556,543.3903 732.3681,541.7341 Q733.6963,540.0778 736.1963,540.0778 Q736.8994,540.0778 737.54,540.2341 Q738.1963,540.3903 738.7588,540.6872 L738.7588,543.4059 Q738.1338,542.8278 737.54,542.5622 Q736.9463,542.2809 736.3213,542.2809 Q734.9775,542.2809 734.29,543.3591 Q733.6025,544.4216 733.6025,546.5153 Q733.6025,548.6091 734.29,549.6872 Q734.9775,550.7497 736.3213,550.7497 Q736.9463,550.7497 737.54,550.4841 Q738.1338,550.2028 738.7588,549.6247 L738.7588,552.3434 Z " fill="#000000"/><text fill="#000000" font-family="sans-serif" font-size="12" font-style="italic" lengthAdjust="spacing" textLength="40.3301" x="786.729" y="542.7087">&#171;Leaf&#187;</text><text fill="#000000" font-family="sans-serif" font-size="14" lengthAdjust="spacing" textLength="114.208" x="749.79" y="558.5339">RectangleShape</text></g><!--class EllipseShape--><g class="entity" data-entity="EllipseShape" data-source-line="30" data-uid="ent0010" id="entity_EllipseShape"><rect fill="#F1F1F1" height="40.2656" rx="2.5" ry="2.5" style="stroke:#181818;stroke-width:0.5;" width="121.1475" x="902.32" y="526.57"/><ellipse cx="917.32" cy="546.7028" fill="#ADD1B2" rx="11" ry="11" style="stroke:#181818;stroke-width:1;"/><path d="M920.2888,552.3434 Q919.7106,552.6403 919.07,552.7809 Q918.4294,552.9372 917.7263,552.9372 Q915.2263,552.9372 913.8981,551.2966 Q912.5856,549.6403 912.5856,546.5153 Q912.5856,543.3903 913.8981,541.7341 Q915.2263,540.0778 917.7263,540.0778 Q918.4294,540.0778 919.07,540.2341 Q919.7263,540.3903 920.2888,540.6872 L920.2888,543.4059 Q919.6638,542.8278 919.07,542.5622 Q918.4763,542.2809 917.8513,542.2809 Q916.5075,542.2809 915.82,543.3591 Q915.1325,544.4216 915.1325,546.5153 Q915.1325,548.6091 915.82,549.6872 Q916.5075,550.7497 917.8513,550.7497 Q918.4763,550.7497 919.07,550.4841 Q919.6638,550.2028 920.2888,549.6247 L920.2888,552.3434 Z " fill="#000000"/><text fill="#000000" font-family="sans-serif" font-size="12" font-style="italic" lengthAdjust="spacing" textLength="40.3301" x="955.7287" y="542.7087">&#171;Leaf&#187;</text><text fill="#000000" font-family="sans-serif" font-size="14" lengthAdjust="spacing" textLength="89.1475" x="931.32" y="558.5339">EllipseShape</text></g><!--class TextShape--><g class="entity" data-entity="TextShape" data-source-line="31" data-uid="ent0012" id="entity_TextShape"><rect fill="#F1F1F1" height="40.2656" rx="2.5" ry="2.5" style="stroke:#181818;stroke-width:0.5;" width="106.7783" x="1058.51" y="526.57"/><ellipse cx="1073.51" cy="546.7028" fill="#ADD1B2" rx="11" ry="11" style="stroke:#181818;stroke-width:1;"/><path d="M1076.4788,552.3434 Q1075.9006,552.6403 1075.26,552.7809 Q1074.6194,552.9372 1073.9163,552.9372 Q1071.4163,552.9372 1070.0881,551.2966 Q1068.7756,549.6403 1068.7756,546.5153 Q1068.7756,543.3903 1070.0881,541.7341 Q1071.4163,540.0778 1073.9163,540.0778 Q1074.6194,540.0778 1075.26,540.2341 Q1075.9163,540.3903 1076.4788,540.6872 L1076.4788,543.4059 Q1075.8538,542.8278 1075.26,542.5622 Q1074.6663,542.2809 1074.0413,542.2809 Q1072.6975,542.2809 1072.01,543.3591 Q1071.3225,544.4216 1071.3225,546.5153 Q1071.3225,548.6091 1072.01,549.6872 Q1072.6975,550.7497 1074.0413,550.7497 Q1074.6663,550.7497 1075.26,550.4841 Q1075.8538,550.2028 1076.4788,549.6247 L1076.4788,552.3434 Z " fill="#000000"/><text fill="#000000" font-family="sans-serif" font-size="12" font-style="italic" lengthAdjust="spacing" textLength="40.3301" x="1104.7341" y="542.7087">&#171;Leaf&#187;</text><text fill="#000000" font-family="sans-serif" font-size="14" lengthAdjust="spacing" textLength="74.7783" x="1087.51" y="558.5339">TextShape</text></g><!--class GroupShape--><g class="entity" data-entity="GroupShape" data-source-line="35" data-uid="ent0014" id="entity_GroupShape"><rect fill="#F1F1F1" height="154.0469" rx="2.5" ry="2.5" style="stroke:#181818;stroke-width:0.5;" width="291.7949" x="7" y="311.53"/><ellipse cx="105.2632" cy="331.6628" fill="#ADD1B2" rx="11" ry="11" style="stroke:#181818;stroke-width:1;"/><path d="M108.2319,337.3034 Q107.6538,337.6003 107.0132,337.7409 Q106.3726,337.8972 105.6694,337.8972 Q103.1694,337.8972 101.8413,336.2566 Q100.5288,334.6003 100.5288,331.4753 Q100.5288,328.3503 101.8413,326.6941 Q103.1694,325.0378 105.6694,325.0378 Q106.3726,325.0378 107.0132,325.1941 Q107.6694,325.3503 108.2319,325.6472 L108.2319,328.3659 Q107.6069,327.7878 107.0132,327.5222 Q106.4194,327.2409 105.7944,327.2409 Q104.4507,327.2409 103.7632,328.3191 Q103.0757,329.3816 103.0757,331.4753 Q103.0757,333.5691 103.7632,334.6472 Q104.4507,335.7097 105.7944,335.7097 Q106.4194,335.7097 107.0132,335.4441 Q107.6069,335.1628 108.2319,334.5847 L108.2319,337.3034 Z " fill="#000000"/><text fill="#000000" font-family="sans-serif" font-size="12" font-style="italic" lengthAdjust="spacing" textLength="78.7266" x="129.7842" y="327.6687">&#171;Composite&#187;</text><text fill="#000000" font-family="sans-serif" font-size="14" lengthAdjust="spacing" textLength="86.7686" x="125.7632" y="343.4939">GroupShape</text><line style="stroke:#181818;stroke-width:0.5;" x1="8" x2="297.7949" y1="351.7956" y2="351.7956"/><text fill="#000000" font-family="sans-serif" font-size="14" lengthAdjust="spacing" textLength="162.4697" x="13" y="368.7907">-children: List&lt;Shape&gt;</text><line style="stroke:#181818;stroke-width:0.5;" x1="8" x2="297.7949" y1="376.0925" y2="376.0925"/><text fill="#000000" font-family="sans-serif" font-size="14" lengthAdjust="spacing" textLength="104.5898" x="13" y="393.0876">+add(Shape s)</text><text fill="#000000" font-family="sans-serif" font-size="14" lengthAdjust="spacing" textLength="131.708" x="13" y="409.3845">+remove(Shape s)</text><text fill="#000000" font-family="sans-serif" font-size="14" lengthAdjust="spacing" textLength="160.5557" x="13" y="425.6814">+getChild(int i): Shape</text><text fill="#000000" font-family="sans-serif" font-size="14" lengthAdjust="spacing" textLength="205.1396" x="13" y="441.9782">+getChildren(): List&lt;Shape&gt;</text><text fill="#000000" font-family="sans-serif" font-size="14" lengthAdjust="spacing" textLength="279.7949" x="13" y="458.2751">+isComposite(): boolean {returns true}</text></g><g class="entity" data-entity="GMN18" data-source-line="49" data-uid="ent0019" id="entity_GMN18"><path d="M334.21,360.85 L334.21,384.55 L299.01,388.55 L334.21,392.55 L334.21,416.2484 A0,0 0 0 0 334.21,416.2484 L605.5933,416.2484 A0,0 0 0 0 605.5933,416.2484 L605.5933,370.85 L595.5933,360.85 L334.21,360.85 A0,0 0 0 0 334.21,360.85" fill="#FEFFDD" style="stroke:#181818;stroke-width:0.5;"/><path d="M595.5933,360.85 L595.5933,370.85 L605.5933,370.85 L595.5933,360.85" fill="#FEFFDD" style="stroke:#181818;stroke-width:0.5;"/><text fill="#000000" font-family="sans-serif" font-size="13" lengthAdjust="spacing" textLength="220.8921" x="340.21" y="377.9169">Contiene una lista di Shape (figli).</text><text fill="#000000" font-family="sans-serif" font-size="13" lengthAdjust="spacing" textLength="181.105" x="340.21" y="393.0497">Delega le operazioni ai figli.</text><text fill="#000000" font-family="sans-serif" font-size="13" lengthAdjust="spacing" textLength="250.3833" x="340.21" y="408.1825">Implementa i metodi per gestire i figli.</text></g><!--reverse link Shape to AbstractBaseShape--><g class="link" data-entity-1="Shape" data-entity-2="AbstractBaseShape" data-source-line="26" data-uid="lnk5" id="link_Shape_AbstractBaseShape"><path codeLine="26" d="M336.6416,171.8725 C444.3116,214.7725 593.52,274.23 716.48,323.23" fill="none" id="Shape-backto-AbstractBaseShape" style="stroke:#181818;stroke-width:1;stroke-dasharray:7.0,7.0;"/><polygon fill="none" points="319.92,165.21,334.4207,177.4464,338.8624,166.2987,319.92,165.21" style="stroke:#181818;stroke-width:1;"/></g><!--reverse link AbstractBaseShape to LineSegment--><g class="link" data-entity-1="AbstractBaseShape" data-entity-2="LineSegment" data-source-line="28" data-uid="lnk7" id="link_AbstractBaseShape_LineSegment"><path d="M758.1562,463.1673 C715.7362,489.2473 685.18,508.03 655.57,526.24" fill="none" id="AbstractBaseShape-backto-LineSegment" style="stroke:#181818;stroke-width:1;"/><polygon fill="none" points="773.49,453.74,755.0137,458.056,761.2986,468.2786,773.49,453.74" style="stroke:#181818;stroke-width:1;"/></g><!--reverse link AbstractBaseShape to RectangleShape--><g class="link" data-entity-1="AbstractBaseShape" data-entity-2="RectangleShape" data-source-line="29" data-uid="lnk9" id="link_AbstractBaseShape_RectangleShape"><path d="M834.9605,469.3708 C820.9105,495.4808 814.23,507.92 804.41,526.17" fill="none" id="AbstractBaseShape-backto-RectangleShape" style="stroke:#181818;stroke-width:1;"/><polygon fill="none" points="843.49,453.52,829.6769,466.5277,840.2442,472.214,843.49,453.52" style="stroke:#181818;stroke-width:1;"/></g><!--reverse link AbstractBaseShape to EllipseShape--><g class="link" data-entity-1="AbstractBaseShape" data-entity-2="EllipseShape" data-source-line="30" data-uid="lnk11" id="link_AbstractBaseShape_EllipseShape"><path d="M921.3245,469.3302 C935.5345,495.4402 942.33,507.92 952.26,526.17" fill="none" id="AbstractBaseShape-backto-EllipseShape" style="stroke:#181818;stroke-width:1;"/><polygon fill="none" points="912.72,453.52,916.0544,472.1984,926.5946,466.4621,912.72,453.52" style="stroke:#181818;stroke-width:1;"/></g><!--reverse link AbstractBaseShape to TextShape--><g class="link" data-entity-1="AbstractBaseShape" data-entity-2="TextShape" data-source-line="31" data-uid="lnk13" id="link_AbstractBaseShape_TextShape"><path d="M989.061,463.7334 C1028.131,489.8134 1055.44,508.03 1082.72,526.24" fill="none" id="AbstractBaseShape-backto-TextShape" style="stroke:#181818;stroke-width:1;"/><polygon fill="none" points="974.09,453.74,985.7299,468.7238,992.3922,458.7431,974.09,453.74" style="stroke:#181818;stroke-width:1;"/></g><!--reverse link Shape to GroupShape--><g class="link" data-entity-1="Shape" data-entity-2="GroupShape" data-source-line="45" data-uid="lnk16" id="link_Shape_GroupShape"><path codeLine="45" d="M177.4504,252.4999 C175.1004,262.4699 176.97,254.91 174.9,264.53 C171.66,279.59 168.52,295.76 165.68,311.26" fill="none" id="Shape-backto-GroupShape" style="stroke:#181818;stroke-width:1;stroke-dasharray:7.0,7.0;"/><polygon fill="none" points="181.58,234.98,171.6105,251.1234,183.2904,253.8764,181.58,234.98" style="stroke:#181818;stroke-width:1;"/></g><!--reverse link GroupShape to Shape--><g class="link" data-entity-1="GroupShape" data-entity-2="Shape" data-source-line="46" data-uid="lnk17" id="link_GroupShape_Shape"><path codeLine="46" d="M172.1451,299.3552 C177.3251,275.5852 180.6,260.58 186.22,234.87" fill="none" id="GroupShape-backto-Shape" style="stroke:#181818;stroke-width:1;"/><polygon fill="#181818" points="169.59,311.08,174.7758,306.0693,172.1451,299.3552,166.9593,304.3659,169.59,311.08" style="stroke:#181818;stroke-width:1;"/><polygon fill="#000000" points="184.9662,268.2114,180.1661,276.4217,185.9087,277.6752,184.9662,268.2114" style="stroke:#000000;stroke-width:1;"/><text fill="#000000" font-family="sans-serif" font-size="13" lengthAdjust="spacing" textLength="55.0278" x="192.9" y="277.5969">contains</text><text fill="#000000" font-family="sans-serif" font-size="13" lengthAdjust="spacing" textLength="8.271" x="162.7325" y="300.5849">1</text><text fill="#000000" font-family="sans-serif" font-size="13" lengthAdjust="spacing" textLength="23.0356" x="160.9034" y="254.7314">0..*</text></g><!--SRC=[fLJ1Rjf04BtxAqPSQbAmqXuHGaeWQf6eMfMG-s8FzgZhNMjtd2QX_7jdZS4WMYbfR_QRUJipRz-i_q6cKawLa6hb_GspetNDE4-jMT8BmdLKK8Q0PSNFK6AvHkUZY0oZswWKOLce2c4ydjgoiWODJoQmZG3UvyZpBEwFOBMQpm9GsaUC7p1bwpxE-W5nwAL4_5smVakvjRN9VA05D80gJR7YkAdpG9w47fAZTp0S3g4fAo325-J2PZwW3ItBzfosKbEz0wJKj22TnJA956i2fxX34vfOaETn4vo4AFbZlH1TMwjHcMWNHMhjsQcKzpB2JVjxgpmU55gWsi1dr1MwWqPTaoDuj9J1bWjdVtfO6LzNbNMCsLV9LqpMt3q58UHZTp7Hczb_6lyVw9SgmTOXryxulMD2PFTtvRhiZT8UTwBafN99NIM_9kqLHNjz5sHmYNafVckL5KdnYL7CSob-ImgEKYRNPpVo2jwTrbJvjxBk9U7L575paYHWkK07ZL5ym3t4RV41VBFwERTcq1tS3vo38f-ShQkpPGnQjqORfkrjNJZww43m5ulIGgTU0VhVPUckd5sDk_qcDpPx4NSHPAWnLxBFYc13kIQ8GqS3s3yM0q1EaxuOvMJWCuUSuBqFFRYIHw9tdIHNlTRb8v2dZHL91vCeCbPAESeB1hiv4L7wcaeQeK6eZG8jiod8g3qaRbhh9v8sQne6ZM2xAGxDXuHvMMaCJbL0yeAobLCa4tBqJ0xXc2hUWD3FRm00]--></g></svg>