<svg xmlns="http://www.w3.org/2000/svg" xmlns:xlink="http://www.w3.org/1999/xlink" contentStyleType="text/css" data-diagram-type="CLASS" height="872px" preserveAspectRatio="none" style="width:1208px;height:872px;background:#FFFFFF;" version="1.1" viewBox="0 0 1208 872" width="1208px" zoomAndPan="magnify"><defs/><g><!--cluster sad--><g class="cluster" data-entity="sad" data-source-line="5" data-uid="ent0004" id="cluster_sad"><path d="M219,6 L247.8018,6 A3.75,3.75 0 0 1 250.3018,8.5 L257.3018,28.2969 L890,28.2969 A2.5,2.5 0 0 1 892.5,30.7969 L892.5,863 A2.5,2.5 0 0 1 890,865.5 L219,865.5 A2.5,2.5 0 0 1 216.5,863 L216.5,8.5 A2.5,2.5 0 0 1 219,6" fill="none" style="stroke:#000000;stroke-width:1.5;"/><line style="stroke:#000000;stroke-width:1.5;" x1="216.5" x2="257.3018" y1="28.2969" y2="28.2969"/><text fill="#000000" font-family="sans-serif" font-size="14" font-weight="bold" lengthAdjust="spacing" textLength="27.8018" x="220.5" y="20.9951">sad</text></g><!--cluster gruppo11--><g class="cluster" data-entity="gruppo11" data-source-line="5" data-uid="ent0005" id="cluster_gruppo11"><path d="M243,49 L320.0361,49 A3.75,3.75 0 0 1 322.5361,51.5 L329.5361,71.2969 L866,71.2969 A2.5,2.5 0 0 1 868.5,73.7969 L868.5,839 A2.5,2.5 0 0 1 866,841.5 L243,841.5 A2.5,2.5 0 0 1 240.5,839 L240.5,51.5 A2.5,2.5 0 0 1 243,49" fill="none" style="stroke:#000000;stroke-width:1.5;"/><line style="stroke:#000000;stroke-width:1.5;" x1="240.5" x2="329.5361" y1="71.2969" y2="71.2969"/><text fill="#000000" font-family="sans-serif" font-size="14" font-weight="bold" lengthAdjust="spacing" textLength="76.0361" x="244.5" y="63.9951">gruppo11</text></g><!--cluster Controller--><g class="cluster" data-entity="Controller" data-source-line="4" data-uid="ent0002" id="cluster_Controller"><path d="M378,92 L458.0713,92 A3.75,3.75 0 0 1 460.5713,94.5 L467.5713,114.2969 L731,114.2969 A2.5,2.5 0 0 1 733.5,116.7969 L733.5,278.5 A2.5,2.5 0 0 1 731,281 L378,281 A2.5,2.5 0 0 1 375.5,278.5 L375.5,94.5 A2.5,2.5 0 0 1 378,92" fill="none" style="stroke:#000000;stroke-width:1.5;"/><line style="stroke:#000000;stroke-width:1.5;" x1="375.5" x2="467.5713" y1="114.2969" y2="114.2969"/><text fill="#000000" font-family="sans-serif" font-size="14" font-weight="bold" lengthAdjust="spacing" textLength="79.0713" x="379.5" y="106.9951">Controller</text></g><!--cluster Persistence--><g class="cluster" data-entity="Persistence" data-source-line="14" data-uid="ent0006" id="cluster_Persistence"><path d="M267,330 L360.0732,330 A3.75,3.75 0 0 1 362.5732,332.5 L369.5732,352.2969 L842,352.2969 A2.5,2.5 0 0 1 844.5,354.7969 L844.5,815 A2.5,2.5 0 0 1 842,817.5 L267,817.5 A2.5,2.5 0 0 1 264.5,815 L264.5,332.5 A2.5,2.5 0 0 1 267,330" fill="none" style="stroke:#000000;stroke-width:1.5;"/><line style="stroke:#000000;stroke-width:1.5;" x1="264.5" x2="369.5732" y1="352.2969" y2="352.2969"/><text fill="#000000" font-family="sans-serif" font-size="14" font-weight="bold" lengthAdjust="spacing" textLength="92.0732" x="268.5" y="344.9951">Persistence</text></g><!--class GeoEngine--><g class="entity" data-entity="GeoEngine" data-source-line="5" data-uid="ent0003" id="entity_GeoEngine"><rect fill="#F1F1F1" height="137.75" rx="2.5" ry="2.5" style="stroke:#181818;stroke-width:0.5;" width="326.1592" x="391.5" y="127"/><ellipse cx="512.3252" cy="147.1328" fill="#ADD1B2" rx="11" ry="11" style="stroke:#181818;stroke-width:1;"/><path d="M515.2939,152.7734 Q514.7158,153.0703 514.0752,153.2109 Q513.4346,153.3672 512.7314,153.3672 Q510.2314,153.3672 508.9033,151.7266 Q507.5908,150.0703 507.5908,146.9453 Q507.5908,143.8203 508.9033,142.1641 Q510.2314,140.5078 512.7314,140.5078 Q513.4346,140.5078 514.0752,140.6641 Q514.7314,140.8203 515.2939,141.1172 L515.2939,143.8359 Q514.6689,143.2578 514.0752,142.9922 Q513.4814,142.7109 512.8564,142.7109 Q511.5127,142.7109 510.8252,143.7891 Q510.1377,144.8516 510.1377,146.9453 Q510.1377,149.0391 510.8252,150.1172 Q511.5127,151.1797 512.8564,151.1797 Q513.4814,151.1797 514.0752,150.9141 Q514.6689,150.6328 515.2939,150.0547 L515.2939,152.7734 Z " fill="#000000"/><text fill="#000000" font-family="sans-serif" font-size="12" font-style="italic" lengthAdjust="spacing" textLength="49.5527" x="546.0532" y="143.1387">&#171;Client&#187;</text><text fill="#000000" font-family="sans-serif" font-size="14" lengthAdjust="spacing" textLength="76.0088" x="532.8252" y="158.9639">GeoEngine</text><line style="stroke:#181818;stroke-width:0.5;" x1="392.5" x2="716.6592" y1="167.2656" y2="167.2656"/><text fill="#000000" font-family="sans-serif" font-size="14" lengthAdjust="spacing" textLength="314.1592" x="397.5" y="184.2607">-persistenceController: PersistenceController</text><line style="stroke:#181818;stroke-width:0.5;" x1="392.5" x2="716.6592" y1="191.5625" y2="191.5625"/><text fill="#000000" font-family="sans-serif" font-size="14" lengthAdjust="spacing" textLength="191.7002" x="397.5" y="208.5576">+saveDrawing(String path)</text><text fill="#000000" font-family="sans-serif" font-size="14" lengthAdjust="spacing" textLength="188.8496" x="397.5" y="224.8545">+loadDrawing(String path)</text><text fill="#000000" font-family="sans-serif" font-size="14" lengthAdjust="spacing" textLength="259.7383" x="397.5" y="241.1514">+exportReusableLibrary(String path)</text><text fill="#000000" font-family="sans-serif" font-size="14" lengthAdjust="spacing" textLength="260.3672" x="397.5" y="257.4482">+importReusableLibrary(String path)</text></g><!--class IDrawingSerializer--><g class="entity" data-entity="IDrawingSerializer" data-source-line="15" data-uid="ent0007" id="entity_IDrawingSerializer"><rect fill="#F1F1F1" height="80.8594" rx="2.5" ry="2.5" style="stroke:#181818;stroke-width:0.5;" width="179.3887" x="296" y="612"/><ellipse cx="311" cy="632.1328" fill="#B4A7E5" rx="11" ry="11" style="stroke:#181818;stroke-width:1;"/><path d="M306.9219,627.8984 L306.9219,625.7422 L314.3125,625.7422 L314.3125,627.8984 L311.8438,627.8984 L311.8438,635.9766 L314.3125,635.9766 L314.3125,638.1328 L306.9219,638.1328 L306.9219,635.9766 L309.3906,635.9766 L309.3906,627.8984 L306.9219,627.8984 Z " fill="#000000"/><text fill="#000000" font-family="sans-serif" font-size="12" font-style="italic" lengthAdjust="spacing" textLength="151.3887" x="323" y="628.1387">&#171;SubSystem Interface 1&#187;</text><text fill="#000000" font-family="sans-serif" font-size="14" font-style="italic" lengthAdjust="spacing" textLength="127.5654" x="334.9116" y="643.9639">IDrawingSerializer</text><line style="stroke:#181818;stroke-width:0.5;" x1="297" x2="474.3887" y1="652.2656" y2="652.2656"/><text fill="#000000" font-family="sans-serif" font-size="14" lengthAdjust="spacing" textLength="164.3223" x="302" y="669.2607">+save(Drawing, String)</text><text fill="#000000" font-family="sans-serif" font-size="14" lengthAdjust="spacing" textLength="161.7383" x="302" y="685.5576">+load(String): Drawing</text></g><!--class DrawingSerializer--><g class="entity" data-entity="DrawingSerializer" data-source-line="20" data-uid="ent0008" id="entity_DrawingSerializer"><rect fill="#F1F1F1" height="40.2656" rx="2.5" ry="2.5" style="stroke:#181818;stroke-width:0.5;" width="157.2344" x="307" y="761.5"/><ellipse cx="322" cy="781.6328" fill="#ADD1B2" rx="11" ry="11" style="stroke:#181818;stroke-width:1;"/><path d="M324.9688,787.2734 Q324.3906,787.5703 323.75,787.7109 Q323.1094,787.8672 322.4063,787.8672 Q319.9063,787.8672 318.5781,786.2266 Q317.2656,784.5703 317.2656,781.4453 Q317.2656,778.3203 318.5781,776.6641 Q319.9063,775.0078 322.4063,775.0078 Q323.1094,775.0078 323.75,775.1641 Q324.4063,775.3203 324.9688,775.6172 L324.9688,778.3359 Q324.3438,777.7578 323.75,777.4922 Q323.1563,777.2109 322.5313,777.2109 Q321.1875,777.2109 320.5,778.2891 Q319.8125,779.3516 319.8125,781.4453 Q319.8125,783.5391 320.5,784.6172 Q321.1875,785.6797 322.5313,785.6797 Q323.1563,785.6797 323.75,785.4141 Q324.3438,785.1328 324.9688,784.5547 L324.9688,787.2734 Z " fill="#000000"/><text fill="#000000" font-family="sans-serif" font-size="12" font-style="italic" lengthAdjust="spacing" textLength="129.2344" x="334" y="777.6387">&#171;SubSystem Class 1&#187;</text><text fill="#000000" font-family="sans-serif" font-size="14" lengthAdjust="spacing" textLength="123.4365" x="336.8989" y="793.4639">DrawingSerializer</text></g><!--class IReusableShapeLibrarySerializer--><g class="entity" data-entity="IReusableShapeLibrarySerializer" data-source-line="22" data-uid="ent0010" id="entity_IReusableShapeLibrarySerializer"><rect fill="#F1F1F1" height="80.8594" rx="2.5" ry="2.5" style="stroke:#181818;stroke-width:0.5;" width="275.375" x="524" y="612"/><ellipse cx="546.5406" cy="632.1328" fill="#B4A7E5" rx="11" ry="11" style="stroke:#181818;stroke-width:1;"/><path d="M542.4625,627.8984 L542.4625,625.7422 L549.8531,625.7422 L549.8531,627.8984 L547.3843,627.8984 L547.3843,635.9766 L549.8531,635.9766 L549.8531,638.1328 L542.4625,638.1328 L542.4625,635.9766 L544.9312,635.9766 L544.9312,627.8984 L542.4625,627.8984 Z " fill="#000000"/><text fill="#000000" font-family="sans-serif" font-size="12" font-style="italic" lengthAdjust="spacing" textLength="151.3887" x="599.831" y="628.1387">&#171;SubSystem Interface 2&#187;</text><text fill="#000000" font-family="sans-serif" font-size="14" font-style="italic" lengthAdjust="spacing" textLength="226.6182" x="562.2163" y="643.9639">IReusableShapeLibrarySerializer</text><line style="stroke:#181818;stroke-width:0.5;" x1="525" x2="798.375" y1="652.2656" y2="652.2656"/><text fill="#000000" font-family="sans-serif" font-size="14" lengthAdjust="spacing" textLength="263.375" x="530" y="669.2607">+save(ReusableShapeLibrary, String)</text><text fill="#000000" font-family="sans-serif" font-size="14" lengthAdjust="spacing" textLength="260.791" x="530" y="685.5576">+load(String): ReusableShapeLibrary</text></g><!--class ReusableShapeLibrarySerializer--><g class="entity" data-entity="ReusableShapeLibrarySerializer" data-source-line="27" data-uid="ent0011" id="entity_ReusableShapeLibrarySerializer"><rect fill="#F1F1F1" height="40.2656" rx="2.5" ry="2.5" style="stroke:#181818;stroke-width:0.5;" width="254.4893" x="534.5" y="761.5"/><ellipse cx="549.5" cy="781.6328" fill="#ADD1B2" rx="11" ry="11" style="stroke:#181818;stroke-width:1;"/><path d="M552.4688,787.2734 Q551.8906,787.5703 551.25,787.7109 Q550.6094,787.8672 549.9063,787.8672 Q547.4063,787.8672 546.0781,786.2266 Q544.7656,784.5703 544.7656,781.4453 Q544.7656,778.3203 546.0781,776.6641 Q547.4063,775.0078 549.9063,775.0078 Q550.6094,775.0078 551.25,775.1641 Q551.9063,775.3203 552.4688,775.6172 L552.4688,778.3359 Q551.8438,777.7578 551.25,777.4922 Q550.6563,777.2109 550.0313,777.2109 Q548.6875,777.2109 548,778.2891 Q547.3125,779.3516 547.3125,781.4453 Q547.3125,783.5391 548,784.6172 Q548.6875,785.6797 550.0313,785.6797 Q550.6563,785.6797 551.25,785.4141 Q551.8438,785.1328 552.4688,784.5547 L552.4688,787.2734 Z " fill="#000000"/><text fill="#000000" font-family="sans-serif" font-size="12" font-style="italic" lengthAdjust="spacing" textLength="129.2344" x="610.1274" y="777.6387">&#171;SubSystem Class 2&#187;</text><text fill="#000000" font-family="sans-serif" font-size="14" lengthAdjust="spacing" textLength="222.4893" x="563.5" y="793.4639">ReusableShapeLibrarySerializer</text></g><!--class PersistenceController--><g class="entity" data-entity="PersistenceController" data-source-line="29" data-uid="ent0013" id="entity_PersistenceController"><rect fill="#F1F1F1" height="170.3438" rx="2.5" ry="2.5" style="stroke:#181818;stroke-width:0.5;" width="547.4863" x="281" y="365"/><ellipse cx="475.6191" cy="385.1328" fill="#ADD1B2" rx="11" ry="11" style="stroke:#181818;stroke-width:1;"/><path d="M478.5879,390.7734 Q478.0098,391.0703 477.3691,391.2109 Q476.7285,391.3672 476.0254,391.3672 Q473.5254,391.3672 472.1973,389.7266 Q470.8848,388.0703 470.8848,384.9453 Q470.8848,381.8203 472.1973,380.1641 Q473.5254,378.5078 476.0254,378.5078 Q476.7285,378.5078 477.3691,378.6641 Q478.0254,378.8203 478.5879,379.1172 L478.5879,381.8359 Q477.9629,381.2578 477.3691,380.9922 Q476.7754,380.7109 476.1504,380.7109 Q474.8066,380.7109 474.1191,381.7891 Q473.4316,382.8516 473.4316,384.9453 Q473.4316,387.0391 474.1191,388.1172 Q474.8066,389.1797 476.1504,389.1797 Q476.7754,389.1797 477.3691,388.9141 Q477.9629,388.6328 478.5879,388.0547 L478.5879,390.7734 Z " fill="#000000"/><text fill="#000000" font-family="sans-serif" font-size="12" font-style="italic" lengthAdjust="spacing" textLength="58.0195" x="541.9834" y="381.1387">&#171;Facade&#187;</text><text fill="#000000" font-family="sans-serif" font-size="14" lengthAdjust="spacing" textLength="149.748" x="496.1191" y="396.9639">PersistenceController</text><line style="stroke:#181818;stroke-width:0.5;" x1="282" x2="827.4863" y1="405.2656" y2="405.2656"/><text fill="#000000" font-family="sans-serif" font-size="14" lengthAdjust="spacing" textLength="263.3271" x="287" y="422.2607">-drawingSerializer: IDrawingSerializer</text><text fill="#000000" font-family="sans-serif" font-size="14" lengthAdjust="spacing" textLength="351.1006" x="287" y="438.5576">-librarySerializer: IReusableShapeLibrarySerializer</text><text fill="#000000" font-family="sans-serif" font-size="14" lengthAdjust="spacing" textLength="535.4863" x="287" y="454.8545">+PersistenceController(IDrawingSerializer, IReusableShapeLibrarySerializer)</text><line style="stroke:#181818;stroke-width:1;" x1="282" x2="827.4863" y1="462.1563" y2="462.1563"/><text fill="#000000" font-family="sans-serif" font-size="14" lengthAdjust="spacing" textLength="272.1523" x="287" y="479.1514">+saveDrawing(Drawing d, String path)</text><text fill="#000000" font-family="sans-serif" font-size="14" lengthAdjust="spacing" textLength="256.2314" x="287" y="495.4482">+loadDrawing(String path): Drawing</text><text fill="#000000" font-family="sans-serif" font-size="14" lengthAdjust="spacing" textLength="447.0225" x="287" y="511.7451">+exportReusableLibrary(ReusableShapeLibrary lib, String path)</text><text fill="#000000" font-family="sans-serif" font-size="14" lengthAdjust="spacing" textLength="426.8018" x="287" y="528.042">+importReusableLibrary(String path): ReusableShapeLibrary</text></g><g class="entity" data-entity="GMN17" data-source-line="46" data-uid="ent0018" id="entity_GMN17"><path d="M909,399.5 L909,446 L828.48,450 L909,454 L909,500.2969 A0,0 0 0 0 909,500.2969 L1201.6733,500.2969 A0,0 0 0 0 1201.6733,500.2969 L1201.6733,409.5 L1191.6733,399.5 L909,399.5 A0,0 0 0 0 909,399.5" fill="#FEFFDD" style="stroke:#181818;stroke-width:0.5;"/><path d="M1191.6733,399.5 L1191.6733,409.5 L1201.6733,409.5 L1191.6733,399.5" fill="#FEFFDD" style="stroke:#181818;stroke-width:0.5;"/><text fill="#000000" font-family="sans-serif" font-size="13" lengthAdjust="spacing" textLength="234.3682" x="915" y="416.5669">Semplifica l'accesso al sottosistema</text><text fill="#000000" font-family="sans-serif" font-size="13" lengthAdjust="spacing" textLength="250.5864" x="915" y="431.6997">di persistenza, fornendo un'interfaccia</text><text fill="#000000" font-family="sans-serif" font-size="13" lengthAdjust="spacing" textLength="271.6733" x="915" y="446.8325">unificata per salvare/caricare sia i disegni</text><text fill="#000000" font-family="sans-serif" font-size="13" lengthAdjust="spacing" textLength="229.7915" x="915" y="461.9653">che le librerie di forme riutilizzabili.</text><text fill="#000000" font-family="sans-serif" font-size="13" lengthAdjust="spacing" textLength="267.4648" x="915" y="477.0981">Il client (GeoEngine) non deve conoscere</text><text fill="#000000" font-family="sans-serif" font-size="13" lengthAdjust="spacing" textLength="117.146" x="915" y="492.231">i singoli serializer.</text></g><g class="entity" data-entity="GMN20" data-source-line="55" data-uid="ent0021" id="entity_GMN20"><path d="M6,430 L6,470.2656 A0,0 0 0 0 6,470.2656 L126.28,470.2656 L329.7,611.83 L134.28,470.2656 L201.1543,470.2656 A0,0 0 0 0 201.1543,470.2656 L201.1543,440 L191.1543,430 L6,430 A0,0 0 0 0 6,430" fill="#FEFFDD" style="stroke:#181818;stroke-width:0.5;"/><path d="M191.1543,430 L191.1543,440 L201.1543,440 L191.1543,430" fill="#FEFFDD" style="stroke:#181818;stroke-width:0.5;"/><text fill="#000000" font-family="sans-serif" font-size="13" lengthAdjust="spacing" textLength="126.6738" x="12" y="447.0669">Sottosistema per la</text><text fill="#000000" font-family="sans-serif" font-size="13" lengthAdjust="spacing" textLength="174.1543" x="12" y="462.1997">serializzazione dei disegni.</text></g><g class="entity" data-entity="GMN23" data-source-line="60" data-uid="ent0024" id="entity_GMN23"><path d="M908.5,754 L908.5,809.3984 A0,0 0 0 0 908.5,809.3984 L1110.167,809.3984 A0,0 0 0 0 1110.167,809.3984 L1110.167,764 L1100.167,754 L940.8,754 L770.18,693.16 L932.8,754 L908.5,754 A0,0 0 0 0 908.5,754" fill="#FEFFDD" style="stroke:#181818;stroke-width:0.5;"/><path d="M1100.167,754 L1100.167,764 L1110.167,764 L1100.167,754" fill="#FEFFDD" style="stroke:#181818;stroke-width:0.5;"/><text fill="#000000" font-family="sans-serif" font-size="13" lengthAdjust="spacing" textLength="126.6738" x="914.5" y="771.0669">Sottosistema per la</text><text fill="#000000" font-family="sans-serif" font-size="13" lengthAdjust="spacing" textLength="180.667" x="914.5" y="786.1997">serializzazione delle librerie</text><text fill="#000000" font-family="sans-serif" font-size="13" lengthAdjust="spacing" textLength="136.627" x="914.5" y="801.3325">di forme riutilizzabili.</text></g><!--reverse link IDrawingSerializer to DrawingSerializer--><g class="link" data-entity-1="IDrawingSerializer" data-entity-2="DrawingSerializer" data-source-line="20" data-uid="lnk9" id="link_IDrawingSerializer_DrawingSerializer"><path d="M385.5,711.34 C385.5,734.03 385.5,743.43 385.5,761.38" fill="none" id="IDrawingSerializer-backto-DrawingSerializer" style="stroke:#181818;stroke-width:1;stroke-dasharray:7.0,7.0;"/><polygon fill="none" points="385.5,693.34,379.5,711.34,391.5,711.34,385.5,693.34" style="stroke:#181818;stroke-width:1;"/></g><!--reverse link IReusableShapeLibrarySerializer to ReusableShapeLibrarySerializer--><g class="link" data-entity-1="IReusableShapeLibrarySerializer" data-entity-2="ReusableShapeLibrarySerializer" data-source-line="27" data-uid="lnk12" id="link_IReusableShapeLibrarySerializer_ReusableShapeLibrarySerializer"><path d="M661.5,711.34 C661.5,734.03 661.5,743.43 661.5,761.38" fill="none" id="IReusableShapeLibrarySerializer-backto-ReusableShapeLibrarySerializer" style="stroke:#181818;stroke-width:1;stroke-dasharray:7.0,7.0;"/><polygon fill="none" points="661.5,693.34,655.5,711.34,667.5,711.34,661.5,693.34" style="stroke:#181818;stroke-width:1;"/></g><!--link GeoEngine to PersistenceController--><g class="link" data-entity-1="GeoEngine" data-entity-2="PersistenceController" data-source-line="41" data-uid="lnk14" id="link_GeoEngine_PersistenceController"><path codeLine="41" d="M554.5,265.19 C554.5,295.81 554.5,326.23 554.5,358.54" fill="none" id="GeoEngine-to-PersistenceController" style="stroke:#181818;stroke-width:1;"/><polygon fill="#181818" points="554.5,364.54,558.5,355.54,554.5,359.54,550.5,355.54,554.5,364.54" style="stroke:#181818;stroke-width:1;"/><polygon fill="#000000" points="559.5,310.5664,562.4389,301.5213,556.5611,301.5213,559.5,310.5664" style="stroke:#000000;stroke-width:1;"/><text fill="#000000" font-family="sans-serif" font-size="13" lengthAdjust="spacing" textLength="29.7832" x="568.5" y="310.0669">uses</text></g><!--link PersistenceController to IDrawingSerializer--><g class="link" data-entity-1="PersistenceController" data-entity-2="IDrawingSerializer" data-source-line="42" data-uid="lnk15" id="link_PersistenceController_IDrawingSerializer"><path codeLine="42" d="M475.827,544.3361 C453.427,570.9161 441.3166,585.272 422.8266,607.212" fill="none" id="PersistenceController-IDrawingSerializer" style="stroke:#181818;stroke-width:1;"/><polygon fill="none" points="483.56,535.16,476.6348,537.1704,475.827,544.3361,482.7522,542.3257,483.56,535.16" style="stroke:#181818;stroke-width:1;"/><polygon fill="#181818" points="418.96,611.8,427.8185,607.4957,422.1821,607.9767,421.7012,602.3403,418.96,611.8" style="stroke:#181818;stroke-width:1;"/><polygon fill="#000000" points="456.2775,577.3894,464.3542,572.3677,459.86,568.5794,456.2775,577.3894" style="stroke:#000000;stroke-width:1;"/><text fill="#000000" font-family="sans-serif" font-size="13" lengthAdjust="spacing" textLength="29.7832" x="468.5" y="578.0669">uses</text></g><!--link PersistenceController to IReusableShapeLibrarySerializer--><g class="link" data-entity-1="PersistenceController" data-entity-2="IReusableShapeLibrarySerializer" data-source-line="43" data-uid="lnk16" id="link_PersistenceController_IReusableShapeLibrarySerializer"><path codeLine="43" d="M605.0614,545.7459 C619.2514,572.3259 625.7867,584.5657 637.4867,606.5057" fill="none" id="PersistenceController-IReusableShapeLibrarySerializer" style="stroke:#181818;stroke-width:1;"/><polygon fill="none" points="599.41,535.16,598.7071,542.3368,605.0614,545.7459,605.7643,538.5692,599.41,535.16" style="stroke:#181818;stroke-width:1;"/><polygon fill="#181818" points="640.31,611.8,639.6046,601.9764,637.9573,607.3881,632.5456,605.7408,640.31,611.8" style="stroke:#181818;stroke-width:1;"/><polygon fill="#000000" points="630.8541,577.9776,629.1883,568.614,624.0027,571.3814,630.8541,577.9776" style="stroke:#000000;stroke-width:1;"/><text fill="#000000" font-family="sans-serif" font-size="13" lengthAdjust="spacing" textLength="29.7832" x="637.5" y="578.0669">uses</text></g><!--SRC=[bLLDZzem4BtdLynjGGLQzeXMI1Nz458FLVCB9iaGh7Nio7PeeTh_th4J0Wk6q9D5FFFclUUPmRuALQF12dA9rdvspeYiSRJEjKh5WU1JiXK50LMrsqD5LKR69acD-IkM11QBMMcQkjRp-MobbJDQIZBmDu4M4BwJ_gfAeGXUNbPIa7BBPRW6cDQC9QmZbTCfTm4_Ovz3nWUBE_fYyBTGvIXbggg46jrstDvAZSNjM_fJQ-D-KMCna_H3P0RDFX8dgWVYtfAt6owSiGywXN9aDiY_rXstb8n0oUOQzYHjidJFuHMi-y1vRr4GFEho9j2IE5FRqHele8i9r7hpxnTSXHXVZ2LBglXjR8Haybx4qPXqY_NHdK55pnUAOY1tvSKItclz3rwjyESBuVS1JeMYxSdutp37WaxTNLmQkOYP6qBbPRN589tWKPJAwBhAP0YkzNmwlPwoxeJY-3oF3DnvEzwSl1WZO2TYXOPdyawBS9ESjj1qkhpnWWjeB5bO9l5hxJCZ8_nGsa1pzXY9qex0Y7BhG6zkRiAKrx4K6v4Zo2VCSx9M0qgmsZaTCYhai490ls8FE86DDefKeQ5HJyU9peMFR5H0S-WJU9_97HhwcAFXZuONd40G36UfLC8FmfP0adyimoB85sBioZDld61D1ypuc77eMlBO-BKFe_uHng2qWe9s1FmtesrEXloIuJggr9BFtffPmeJ1kz9vutJjdObEKdecFmYHNjiHx807eRa32kgbNA5d7g4A1GRdxz5gyiofzb7YNXsf_0C0]--></g></svg>