<svg xmlns="http://www.w3.org/2000/svg" xmlns:xlink="http://www.w3.org/1999/xlink" contentStyleType="text/css" data-diagram-type="CLASS" height="638px" preserveAspectRatio="none" style="width:891px;height:638px;background:#FFFFFF;" version="1.1" viewBox="0 0 891 638" width="891px" zoomAndPan="magnify"><defs/><g><!--cluster sad--><g class="cluster" data-entity="sad" data-source-line="26" data-uid="ent0016" id="cluster_sad"><path d="M292.59,6 L321.3918,6 A3.75,3.75 0 0 1 323.8918,8.5 L330.8918,28.2969 L523.59,28.2969 A2.5,2.5 0 0 1 526.09,30.7969 L526.09,220.5 A2.5,2.5 0 0 1 523.59,223 L292.59,223 A2.5,2.5 0 0 1 290.09,220.5 L290.09,8.5 A2.5,2.5 0 0 1 292.59,6" fill="none" style="stroke:#000000;stroke-width:1.5;"/><line style="stroke:#000000;stroke-width:1.5;" x1="290.09" x2="330.8918" y1="28.2969" y2="28.2969"/><text fill="#000000" font-family="sans-serif" font-size="14" font-weight="bold" lengthAdjust="spacing" textLength="27.8018" x="294.09" y="20.9951">sad</text></g><!--cluster gruppo11--><g class="cluster" data-entity="gruppo11" data-source-line="26" data-uid="ent0017" id="cluster_gruppo11"><path d="M316.59,49 L393.6261,49 A3.75,3.75 0 0 1 396.1261,51.5 L403.1261,71.2969 L499.59,71.2969 A2.5,2.5 0 0 1 502.09,73.7969 L502.09,196.5 A2.5,2.5 0 0 1 499.59,199 L316.59,199 A2.5,2.5 0 0 1 314.09,196.5 L314.09,51.5 A2.5,2.5 0 0 1 316.59,49" fill="none" style="stroke:#000000;stroke-width:1.5;"/><line style="stroke:#000000;stroke-width:1.5;" x1="314.09" x2="403.1261" y1="71.2969" y2="71.2969"/><text fill="#000000" font-family="sans-serif" font-size="14" font-weight="bold" lengthAdjust="spacing" textLength="76.0361" x="318.09" y="63.9951">gruppo11</text></g><!--cluster Controller--><g class="cluster" data-entity="Controller" data-source-line="25" data-uid="ent0014" id="cluster_Controller"><path d="M340.59,92 L420.6613,92 A3.75,3.75 0 0 1 423.1613,94.5 L430.1613,114.2969 L475.59,114.2969 A2.5,2.5 0 0 1 478.09,116.7969 L478.09,172.5 A2.5,2.5 0 0 1 475.59,175 L340.59,175 A2.5,2.5 0 0 1 338.09,172.5 L338.09,94.5 A2.5,2.5 0 0 1 340.59,92" fill="none" style="stroke:#000000;stroke-width:1.5;"/><line style="stroke:#000000;stroke-width:1.5;" x1="338.09" x2="430.1613" y1="114.2969" y2="114.2969"/><text fill="#000000" font-family="sans-serif" font-size="14" font-weight="bold" lengthAdjust="spacing" textLength="79.0713" x="342.09" y="106.9951">Controller</text></g><!--class GeoEngine--><g class="entity" data-entity="GeoEngine" data-source-line="26" data-uid="ent0015" id="entity_GeoEngine"><rect fill="#F1F1F1" height="32" rx="2.5" ry="2.5" style="stroke:#181818;stroke-width:0.5;" width="108.0088" x="354.08" y="127"/><ellipse cx="369.08" cy="143" fill="#ADD1B2" rx="11" ry="11" style="stroke:#181818;stroke-width:1;"/><path d="M372.0488,148.6406 Q371.4706,148.9375 370.83,149.0781 Q370.1894,149.2344 369.4863,149.2344 Q366.9863,149.2344 365.6581,147.5938 Q364.3456,145.9375 364.3456,142.8125 Q364.3456,139.6875 365.6581,138.0313 Q366.9863,136.375 369.4863,136.375 Q370.1894,136.375 370.83,136.5313 Q371.4863,136.6875 372.0488,136.9844 L372.0488,139.7031 Q371.4238,139.125 370.83,138.8594 Q370.2363,138.5781 369.6113,138.5781 Q368.2675,138.5781 367.58,139.6563 Q366.8925,140.7188 366.8925,142.8125 Q366.8925,144.9063 367.58,145.9844 Q368.2675,147.0469 369.6113,147.0469 Q370.2363,147.0469 370.83,146.7813 Q371.4238,146.5 372.0488,145.9219 L372.0488,148.6406 Z " fill="#000000"/><text fill="#000000" font-family="sans-serif" font-size="14" lengthAdjust="spacing" textLength="76.0088" x="383.08" y="147.8467">GeoEngine</text></g><!--class Shape--><g class="entity" data-entity="Shape" data-source-line="4" data-uid="ent0002" id="entity_Shape"><rect fill="#F1F1F1" height="105.1875" rx="2.5" ry="2.5" style="stroke:#181818;stroke-width:0.5;" width="150.4346" x="332.87" y="433.53"/><ellipse cx="381.9179" cy="449.53" fill="#B4A7E5" rx="11" ry="11" style="stroke:#181818;stroke-width:1;"/><path d="M377.8397,445.2956 L377.8397,443.1394 L385.2304,443.1394 L385.2304,445.2956 L382.7616,445.2956 L382.7616,453.3738 L385.2304,453.3738 L385.2304,455.53 L377.8397,455.53 L377.8397,453.3738 L380.3085,453.3738 L380.3085,445.2956 L377.8397,445.2956 Z " fill="#000000"/><text fill="#000000" font-family="sans-serif" font-size="14" font-style="italic" lengthAdjust="spacing" textLength="43.8389" x="402.4179" y="454.3767">Shape</text><line style="stroke:#181818;stroke-width:0.5;" x1="333.87" x2="482.3046" y1="465.53" y2="465.53"/><text fill="#000000" font-family="sans-serif" font-size="14" lengthAdjust="spacing" textLength="103.2295" x="338.87" y="482.5251">+getId(): UUID</text><text fill="#000000" font-family="sans-serif" font-size="14" lengthAdjust="spacing" textLength="127.1416" x="338.87" y="498.822">+move(Vector2D)</text><text fill="#000000" font-family="sans-serif" font-size="14" lengthAdjust="spacing" textLength="95.6963" x="338.87" y="515.1189">+resize(Rect)</text><text fill="#000000" font-family="sans-serif" font-size="14" lengthAdjust="spacing" textLength="138.4346" x="338.87" y="531.4157">+getBounds(): Rect</text></g><!--class LineSegment--><g class="entity" data-entity="LineSegment" data-source-line="13" data-uid="ent0003" id="entity_LineSegment"><rect fill="#F1F1F1" height="32" rx="2.5" ry="2.5" style="stroke:#181818;stroke-width:0.5;" width="124.1758" x="7" y="599.72"/><ellipse cx="22" cy="615.72" fill="#ADD1B2" rx="11" ry="11" style="stroke:#181818;stroke-width:1;"/><path d="M24.9688,621.3606 Q24.3906,621.6575 23.75,621.7981 Q23.1094,621.9544 22.4063,621.9544 Q19.9063,621.9544 18.5781,620.3138 Q17.2656,618.6575 17.2656,615.5325 Q17.2656,612.4075 18.5781,610.7513 Q19.9063,609.095 22.4063,609.095 Q23.1094,609.095 23.75,609.2513 Q24.4063,609.4075 24.9688,609.7044 L24.9688,612.4231 Q24.3438,611.845 23.75,611.5794 Q23.1563,611.2981 22.5313,611.2981 Q21.1875,611.2981 20.5,612.3763 Q19.8125,613.4388 19.8125,615.5325 Q19.8125,617.6263 20.5,618.7044 Q21.1875,619.7669 22.5313,619.7669 Q23.1563,619.7669 23.75,619.5013 Q24.3438,619.22 24.9688,618.6419 L24.9688,621.3606 Z " fill="#000000"/><text fill="#000000" font-family="sans-serif" font-size="14" lengthAdjust="spacing" textLength="92.1758" x="36" y="620.5667">LineSegment</text></g><!--class RectangleShape--><g class="entity" data-entity="RectangleShape" data-source-line="14" data-uid="ent0005" id="entity_RectangleShape"><rect fill="#F1F1F1" height="32" rx="2.5" ry="2.5" style="stroke:#181818;stroke-width:0.5;" width="146.208" x="165.98" y="599.72"/><ellipse cx="180.98" cy="615.72" fill="#ADD1B2" rx="11" ry="11" style="stroke:#181818;stroke-width:1;"/><path d="M183.9488,621.3606 Q183.3706,621.6575 182.73,621.7981 Q182.0894,621.9544 181.3863,621.9544 Q178.8863,621.9544 177.5581,620.3138 Q176.2456,618.6575 176.2456,615.5325 Q176.2456,612.4075 177.5581,610.7513 Q178.8863,609.095 181.3863,609.095 Q182.0894,609.095 182.73,609.2513 Q183.3863,609.4075 183.9488,609.7044 L183.9488,612.4231 Q183.3238,611.845 182.73,611.5794 Q182.1363,611.2981 181.5113,611.2981 Q180.1675,611.2981 179.48,612.3763 Q178.7925,613.4388 178.7925,615.5325 Q178.7925,617.6263 179.48,618.7044 Q180.1675,619.7669 181.5113,619.7669 Q182.1363,619.7669 182.73,619.5013 Q183.3238,619.22 183.9488,618.6419 L183.9488,621.3606 Z " fill="#000000"/><text fill="#000000" font-family="sans-serif" font-size="14" lengthAdjust="spacing" textLength="114.208" x="194.98" y="620.5667">RectangleShape</text></g><!--class EllipseShape--><g class="entity" data-entity="EllipseShape" data-source-line="15" data-uid="ent0007" id="entity_EllipseShape"><rect fill="#F1F1F1" height="32" rx="2.5" ry="2.5" style="stroke:#181818;stroke-width:0.5;" width="121.1475" x="347.51" y="599.72"/><ellipse cx="362.51" cy="615.72" fill="#ADD1B2" rx="11" ry="11" style="stroke:#181818;stroke-width:1;"/><path d="M365.4788,621.3606 Q364.9006,621.6575 364.26,621.7981 Q363.6194,621.9544 362.9163,621.9544 Q360.4163,621.9544 359.0881,620.3138 Q357.7756,618.6575 357.7756,615.5325 Q357.7756,612.4075 359.0881,610.7513 Q360.4163,609.095 362.9163,609.095 Q363.6194,609.095 364.26,609.2513 Q364.9163,609.4075 365.4788,609.7044 L365.4788,612.4231 Q364.8538,611.845 364.26,611.5794 Q363.6663,611.2981 363.0413,611.2981 Q361.6975,611.2981 361.01,612.3763 Q360.3225,613.4388 360.3225,615.5325 Q360.3225,617.6263 361.01,618.7044 Q361.6975,619.7669 363.0413,619.7669 Q363.6663,619.7669 364.26,619.5013 Q364.8538,619.22 365.4788,618.6419 L365.4788,621.3606 Z " fill="#000000"/><text fill="#000000" font-family="sans-serif" font-size="14" lengthAdjust="spacing" textLength="89.1475" x="376.51" y="620.5667">EllipseShape</text></g><!--class PolygonShape--><g class="entity" data-entity="PolygonShape" data-source-line="16" data-uid="ent0009" id="entity_PolygonShape"><rect fill="#F1F1F1" height="32" rx="2.5" ry="2.5" style="stroke:#181818;stroke-width:0.5;" width="131.3467" x="503.41" y="599.72"/><ellipse cx="518.41" cy="615.72" fill="#ADD1B2" rx="11" ry="11" style="stroke:#181818;stroke-width:1;"/><path d="M521.3788,621.3606 Q520.8006,621.6575 520.16,621.7981 Q519.5194,621.9544 518.8163,621.9544 Q516.3163,621.9544 514.9881,620.3138 Q513.6756,618.6575 513.6756,615.5325 Q513.6756,612.4075 514.9881,610.7513 Q516.3163,609.095 518.8163,609.095 Q519.5194,609.095 520.16,609.2513 Q520.8163,609.4075 521.3788,609.7044 L521.3788,612.4231 Q520.7538,611.845 520.16,611.5794 Q519.5663,611.2981 518.9413,611.2981 Q517.5975,611.2981 516.91,612.3763 Q516.2225,613.4388 516.2225,615.5325 Q516.2225,617.6263 516.91,618.7044 Q517.5975,619.7669 518.9413,619.7669 Q519.5663,619.7669 520.16,619.5013 Q520.7538,619.22 521.3788,618.6419 L521.3788,621.3606 Z " fill="#000000"/><text fill="#000000" font-family="sans-serif" font-size="14" lengthAdjust="spacing" textLength="99.3467" x="532.41" y="620.5667">PolygonShape</text></g><!--class TextShape--><g class="entity" data-entity="TextShape" data-source-line="17" data-uid="ent0011" id="entity_TextShape"><rect fill="#F1F1F1" height="32" rx="2.5" ry="2.5" style="stroke:#181818;stroke-width:0.5;" width="106.7783" x="669.7" y="599.72"/><ellipse cx="684.7" cy="615.72" fill="#ADD1B2" rx="11" ry="11" style="stroke:#181818;stroke-width:1;"/><path d="M687.6688,621.3606 Q687.0906,621.6575 686.45,621.7981 Q685.8094,621.9544 685.1063,621.9544 Q682.6063,621.9544 681.2781,620.3138 Q679.9656,618.6575 679.9656,615.5325 Q679.9656,612.4075 681.2781,610.7513 Q682.6063,609.095 685.1063,609.095 Q685.8094,609.095 686.45,609.2513 Q687.1063,609.4075 687.6688,609.7044 L687.6688,612.4231 Q687.0438,611.845 686.45,611.5794 Q685.8563,611.2981 685.2313,611.2981 Q683.8875,611.2981 683.2,612.3763 Q682.5125,613.4388 682.5125,615.5325 Q682.5125,617.6263 683.2,618.7044 Q683.8875,619.7669 685.2313,619.7669 Q685.8563,619.7669 686.45,619.5013 Q687.0438,619.22 687.6688,618.6419 L687.6688,621.3606 Z " fill="#000000"/><text fill="#000000" font-family="sans-serif" font-size="14" lengthAdjust="spacing" textLength="74.7783" x="698.7" y="620.5667">TextShape</text></g><!--class ShapeFactory--><g class="entity" data-entity="ShapeFactory" data-source-line="21" data-uid="ent0013" id="entity_ShapeFactory"><rect fill="#F1F1F1" height="56.2969" rx="2.5" ry="2.5" style="stroke:#181818;stroke-width:0.5;" width="437.3047" x="189.44" y="293.12"/><ellipse cx="355.7105" cy="309.12" fill="#ADD1B2" rx="11" ry="11" style="stroke:#181818;stroke-width:1;"/><path d="M358.6793,314.7606 Q358.1011,315.0575 357.4605,315.1981 Q356.8199,315.3544 356.1168,315.3544 Q353.6168,315.3544 352.2886,313.7138 Q350.9761,312.0575 350.9761,308.9325 Q350.9761,305.8075 352.2886,304.1513 Q353.6168,302.495 356.1168,302.495 Q356.8199,302.495 357.4605,302.6513 Q358.1168,302.8075 358.6793,303.1044 L358.6793,305.8231 Q358.0543,305.245 357.4605,304.9794 Q356.8668,304.6981 356.2418,304.6981 Q354.898,304.6981 354.2105,305.7763 Q353.523,306.8388 353.523,308.9325 Q353.523,311.0263 354.2105,312.1044 Q354.898,313.1669 356.2418,313.1669 Q356.8668,313.1669 357.4605,312.9013 Q358.0543,312.62 358.6793,312.0419 L358.6793,314.7606 Z " fill="#000000"/><text fill="#000000" font-family="sans-serif" font-size="14" lengthAdjust="spacing" textLength="96.2637" x="376.2105" y="313.9667">ShapeFactory</text><line style="stroke:#181818;stroke-width:0.5;" x1="190.44" x2="625.7447" y1="325.12" y2="325.12"/><text fill="#000000" font-family="sans-serif" font-size="14" lengthAdjust="spacing" textLength="425.3047" x="195.44" y="342.1151">+createShape(toolName, p1, p2, stroke, fill, params): Shape</text></g><g class="entity" data-entity="GMN20" data-source-line="39" data-uid="ent0021" id="entity_GMN20"><path d="M662.12,286 L662.12,317.27 L626.95,321.27 L662.12,325.27 L662.12,356.5313 A0,0 0 0 0 662.12,356.5313 L884.0551,356.5313 A0,0 0 0 0 884.0551,356.5313 L884.0551,296 L874.0551,286 L662.12,286 A0,0 0 0 0 662.12,286" fill="#FEFFDD" style="stroke:#181818;stroke-width:0.5;"/><path d="M874.0551,286 L874.0551,296 L884.0551,296 L874.0551,286" fill="#FEFFDD" style="stroke:#181818;stroke-width:0.5;"/><text fill="#000000" font-family="sans-serif" font-size="13" lengthAdjust="spacing" textLength="191.0835" x="668.12" y="303.0669">Decide quale Shape concreta</text><text fill="#000000" font-family="sans-serif" font-size="13" lengthAdjust="spacing" textLength="152.4961" x="668.12" y="318.1997">istanziare basandosi su</text><text fill="#000000" font-family="sans-serif" font-size="13" lengthAdjust="spacing" textLength="147.6084" x="668.12" y="333.3325">toolName e parametri.</text><text fill="#000000" font-family="sans-serif" font-size="13" lengthAdjust="spacing" textLength="200.9351" x="668.12" y="348.4653">Restituisce l interfaccia Shape.</text></g><!--reverse link Shape to LineSegment--><g class="link" data-entity-1="Shape" data-entity-2="LineSegment" data-source-line="13" data-uid="lnk4" id="link_Shape_LineSegment"><path d="M315.5843,521.942 C246.8943,547.802 165.03,578.61 110.04,599.31" fill="none" id="Shape-backto-LineSegment" style="stroke:#181818;stroke-width:1;stroke-dasharray:7.0,7.0;"/><polygon fill="none" points="332.43,515.6,313.4703,516.3267,317.6982,527.5572,332.43,515.6" style="stroke:#181818;stroke-width:1;"/></g><!--reverse link Shape to RectangleShape--><g class="link" data-entity-1="Shape" data-entity-2="RectangleShape" data-source-line="14" data-uid="lnk6" id="link_Shape_RectangleShape"><path d="M324.9849,549.8664 C296.2849,571.5364 279.45,584.25 259.6,599.23" fill="none" id="Shape-backto-RectangleShape" style="stroke:#181818;stroke-width:1;stroke-dasharray:7.0,7.0;"/><polygon fill="none" points="339.35,539.02,321.3694,545.078,328.6004,554.6548,339.35,539.02" style="stroke:#181818;stroke-width:1;"/></g><!--reverse link Shape to EllipseShape--><g class="link" data-entity-1="Shape" data-entity-2="EllipseShape" data-source-line="15" data-uid="lnk8" id="link_Shape_EllipseShape"><path d="M408.09,557.02 C408.09,578.69 408.09,584.25 408.09,599.23" fill="none" id="Shape-backto-EllipseShape" style="stroke:#181818;stroke-width:1;stroke-dasharray:7.0,7.0;"/><polygon fill="none" points="408.09,539.02,402.09,557.02,414.09,557.02,408.09,539.02" style="stroke:#181818;stroke-width:1;"/></g><!--reverse link Shape to PolygonShape--><g class="link" data-entity-1="Shape" data-entity-2="PolygonShape" data-source-line="16" data-uid="lnk10" id="link_Shape_PolygonShape"><path d="M487.6763,550.2008 C515.0163,571.8708 530.64,584.25 549.55,599.23" fill="none" id="Shape-backto-PolygonShape" style="stroke:#181818;stroke-width:1;stroke-dasharray:7.0,7.0;"/><polygon fill="none" points="473.57,539.02,483.9494,554.903,491.4033,545.4987,473.57,539.02" style="stroke:#181818;stroke-width:1;"/></g><!--reverse link Shape to TextShape--><g class="link" data-entity-1="Shape" data-entity-2="TextShape" data-source-line="17" data-uid="lnk12" id="link_Shape_TextShape"><path d="M500.2233,524.4479 C563.7433,550.1779 635.29,579.16 685.02,599.3" fill="none" id="Shape-backto-TextShape" style="stroke:#181818;stroke-width:1;stroke-dasharray:7.0,7.0;"/><polygon fill="none" points="483.54,517.69,497.9706,530.009,502.4759,518.8868,483.54,517.69" style="stroke:#181818;stroke-width:1;"/></g><!--link GeoEngine to ShapeFactory--><g class="link" data-entity-1="GeoEngine" data-entity-2="ShapeFactory" data-source-line="33" data-uid="lnk18" id="link_GeoEngine_ShapeFactory"><path codeLine="33" d="M408.09,159.34 C408.09,189.15 408.09,249.31 408.09,286.86" fill="none" id="GeoEngine-to-ShapeFactory" style="stroke:#181818;stroke-width:1;stroke-dasharray:7.0,7.0;"/><polygon fill="#181818" points="408.09,292.86,412.09,283.86,408.09,287.86,404.09,283.86,408.09,292.86" style="stroke:#181818;stroke-width:1;"/><text fill="#000000" font-family="sans-serif" font-size="13" lengthAdjust="spacing" textLength="29.7832" x="409.09" y="252.0669">uses</text></g><!--link ShapeFactory to Shape--><g class="link" data-entity-1="ShapeFactory" data-entity-2="Shape" data-source-line="34" data-uid="lnk19" id="link_ShapeFactory_Shape"><path codeLine="34" d="M408.09,349.89 C408.09,372.67 408.09,399.62 408.09,427.29" fill="none" id="ShapeFactory-to-Shape" style="stroke:#181818;stroke-width:1;stroke-dasharray:7.0,7.0;"/><polygon fill="#181818" points="408.09,433.29,412.09,424.29,408.09,428.29,404.09,424.29,408.09,433.29" style="stroke:#181818;stroke-width:1;"/><polygon fill="#000000" points="413.09,400.0964,416.0289,391.0513,410.1511,391.0513,413.09,400.0964" style="stroke:#000000;stroke-width:1;"/><text fill="#000000" font-family="sans-serif" font-size="13" lengthAdjust="spacing" textLength="48.3247" x="422.09" y="399.5969">creates</text></g><!--SRC=[VL91RXin3Bph5RpLHeD5d6CE0T8w3GmKRH4dlSiIlIQibLIHMzG9ylTIaRU53yvX0Ureo1cEo7kAsHOxW0kM-LQaq6OKNBaKr_ICS6bsv15mo7A00OSD5ZQ6ec3PMeUmtjcCy680FlOeAp-RNyFJqsfPWI7znjbFT9BArN9UaOAiJMSFYisF9P_I63tNieegQ3v0rtLWWrfHHKcUmALXZ5HnyshCcrNuIX7Ns0yO1MZ80Uk9cw4ZfNQqiG_ON9vXtOL0cT_d_4ZXq6iaxt4UyO-S8UXCjzv3aXqM7IQwWeB0zOw1jf0r6ALFexqLVR4rk4FBLWkiD8ipIIbyimDUG5xeTtK1B2NjzNzB8IXItvCrqAQjWMNhzhPNGUkxlemvfyMY-voYbeMWZgf4Kxx7T1TxJHPUz26-5tXKiRMeTYCWAtLw8ps-rlR_YxhkvjJyDOorvWJxHzBRDXV3ZJa-kyUCqMDqfAYaCv5LSHEJ0eNwdK3QdiYgiIMwkhU_HXkc9JqsiNfBh7lnJBOWR2pRw1CJyAWtKxY0BKVKBQo3FY0BoKYiEnzWsdz7jZNlZBg6wkWl]--></g></svg>