<svg xmlns="http://www.w3.org/2000/svg" xmlns:xlink="http://www.w3.org/1999/xlink" contentStyleType="text/css" data-diagram-type="CLASS" height="629px" preserveAspectRatio="none" style="width:1528px;height:629px;background:#FFFFFF;" version="1.1" viewBox="0 0 1528 629" width="1528px" zoomAndPan="magnify"><defs/><g><!--cluster sad--><g class="cluster" data-entity="sad" data-source-line="15" data-uid="ent0006" id="cluster_sad"><path d="M8.5,6 L37.3018,6 A3.75,3.75 0 0 1 39.8018,8.5 L46.8018,28.2969 L1057.5,28.2969 A2.5,2.5 0 0 1 1060,30.7969 L1060,619.69 A2.5,2.5 0 0 1 1057.5,622.19 L8.5,622.19 A2.5,2.5 0 0 1 6,619.69 L6,8.5 A2.5,2.5 0 0 1 8.5,6" fill="none" style="stroke:#000000;stroke-width:1.5;"/><line style="stroke:#000000;stroke-width:1.5;" x1="6" x2="46.8018" y1="28.2969" y2="28.2969"/><text fill="#000000" font-family="sans-serif" font-size="14" font-weight="bold" lengthAdjust="spacing" textLength="27.8018" x="10" y="20.9951">sad</text></g><!--cluster gruppo11--><g class="cluster" data-entity="gruppo11" data-source-line="15" data-uid="ent0007" id="cluster_gruppo11"><path d="M32.5,49 L109.5361,49 A3.75,3.75 0 0 1 112.0361,51.5 L119.0361,71.2969 L1033.5,71.2969 A2.5,2.5 0 0 1 1036,73.7969 L1036,595.69 A2.5,2.5 0 0 1 1033.5,598.19 L32.5,598.19 A2.5,2.5 0 0 1 30,595.69 L30,51.5 A2.5,2.5 0 0 1 32.5,49" fill="none" style="stroke:#000000;stroke-width:1.5;"/><line style="stroke:#000000;stroke-width:1.5;" x1="30" x2="119.0361" y1="71.2969" y2="71.2969"/><text fill="#000000" font-family="sans-serif" font-size="14" font-weight="bold" lengthAdjust="spacing" textLength="76.0361" x="34" y="63.9951">gruppo11</text></g><!--cluster Model--><g class="cluster" data-entity="Model" data-source-line="14" data-uid="ent0004" id="cluster_Model"><path d="M163.5,92 L212.3652,92 A3.75,3.75 0 0 1 214.8652,94.5 L221.8652,114.2969 L717.5,114.2969 A2.5,2.5 0 0 1 720,116.7969 L720,371.24 A2.5,2.5 0 0 1 717.5,373.74 L163.5,373.74 A2.5,2.5 0 0 1 161,371.24 L161,94.5 A2.5,2.5 0 0 1 163.5,92" fill="none" style="stroke:#000000;stroke-width:1.5;"/><line style="stroke:#000000;stroke-width:1.5;" x1="161" x2="221.8652" y1="114.2969" y2="114.2969"/><text fill="#000000" font-family="sans-serif" font-size="14" font-weight="bold" lengthAdjust="spacing" textLength="47.8652" x="165" y="106.9951">Model</text></g><!--cluster View--><g class="cluster" data-entity="View" data-source-line="32" data-uid="ent0012" id="cluster_View"><path d="M746.5,254.16 L785.5625,254.16 A3.75,3.75 0 0 1 788.0625,256.66 L795.0625,276.4569 L1009.5,276.4569 A2.5,2.5 0 0 1 1012,278.9569 L1012,571.69 A2.5,2.5 0 0 1 1009.5,574.19 L746.5,574.19 A2.5,2.5 0 0 1 744,571.69 L744,256.66 A2.5,2.5 0 0 1 746.5,254.16" fill="none" style="stroke:#000000;stroke-width:1.5;"/><line style="stroke:#000000;stroke-width:1.5;" x1="744" x2="795.0625" y1="276.4569" y2="276.4569"/><text fill="#000000" font-family="sans-serif" font-size="14" font-weight="bold" lengthAdjust="spacing" textLength="38.0625" x="748" y="269.1551">View</text></g><!--class MainApp--><g class="entity" data-entity="MainApp" data-source-line="42" data-uid="ent0016" id="entity_MainApp"><rect fill="#F1F1F1" height="105.1563" rx="2.5" ry="2.5" style="stroke:#181818;stroke-width:0.5;" width="218.3018" x="171.85" y="444.89"/><ellipse cx="216.7206" cy="465.0228" fill="#ADD1B2" rx="11" ry="11" style="stroke:#181818;stroke-width:1;"/><path d="M219.6894,470.6634 Q219.1112,470.9603 218.4706,471.1009 Q217.83,471.2572 217.1269,471.2572 Q214.6269,471.2572 213.2987,469.6166 Q211.9862,467.9603 211.9862,464.8353 Q211.9862,461.7103 213.2987,460.0541 Q214.6269,458.3978 217.1269,458.3978 Q217.83,458.3978 218.4706,458.5541 Q219.1269,458.7103 219.6894,459.0072 L219.6894,461.7259 Q219.0644,461.1478 218.4706,460.8822 Q217.8769,460.6009 217.2519,460.6009 Q215.9081,460.6009 215.2206,461.6791 Q214.5331,462.7416 214.5331,464.8353 Q214.5331,466.9291 215.2206,468.0072 Q215.9081,469.0697 217.2519,469.0697 Q217.8769,469.0697 218.4706,468.8041 Q219.0644,468.5228 219.6894,467.9447 L219.6894,470.6634 Z " fill="#000000"/><text fill="#000000" font-family="sans-serif" font-size="12" font-style="italic" lengthAdjust="spacing" textLength="124.0605" x="235.2206" y="461.0287">&#171;ConcreteObserver&#187;</text><text fill="#000000" font-family="sans-serif" font-size="14" lengthAdjust="spacing" textLength="60.7715" x="266.8651" y="476.8539">MainApp</text><line style="stroke:#181818;stroke-width:0.5;" x1="172.85" x2="389.1518" y1="485.1556" y2="485.1556"/><text fill="#000000" font-family="sans-serif" font-size="14" lengthAdjust="spacing" textLength="164.2744" x="177.85" y="502.1507">-geoEngine: GeoEngine</text><line style="stroke:#181818;stroke-width:0.5;" x1="172.85" x2="389.1518" y1="509.4525" y2="509.4525"/><text fill="#000000" font-family="sans-serif" font-size="14" lengthAdjust="spacing" textLength="123.9219" x="177.85" y="526.4476">+refreshUIState()</text><text fill="#000000" font-family="sans-serif" font-size="14" lengthAdjust="spacing" textLength="206.3018" x="177.85" y="542.7445">+update(Observable, Object)</text></g><!--class Observer--><g class="entity" data-entity="Observer" data-source-line="43" data-uid="ent0017" id="entity_Observer"><rect fill="#F1F1F1" height="32" rx="2.5" ry="2.5" style="stroke:#181818;stroke-width:0.5;" width="96.2236" x="45.89" y="289.16"/><ellipse cx="60.89" cy="305.16" fill="#B4A7E5" rx="11" ry="11" style="stroke:#181818;stroke-width:1;"/><path d="M56.8119,300.9256 L56.8119,298.7694 L64.2025,298.7694 L64.2025,300.9256 L61.7338,300.9256 L61.7338,309.0038 L64.2025,309.0038 L64.2025,311.16 L56.8119,311.16 L56.8119,309.0038 L59.2806,309.0038 L59.2806,300.9256 L56.8119,300.9256 Z " fill="#000000"/><text fill="#000000" font-family="sans-serif" font-size="14" font-style="italic" lengthAdjust="spacing" textLength="64.2236" x="74.89" y="310.0067">Observer</text></g><!--class Drawing--><g class="entity" data-entity="Drawing" data-source-line="15" data-uid="ent0005" id="entity_Drawing"><rect fill="#F1F1F1" height="105.1563" rx="2.5" ry="2.5" style="stroke:#181818;stroke-width:0.5;" width="207.4395" x="177.28" y="252.58"/><ellipse cx="221.8142" cy="272.7128" fill="#ADD1B2" rx="11" ry="11" style="stroke:#181818;stroke-width:1;"/><path d="M224.7829,278.3534 Q224.2048,278.6503 223.5642,278.7909 Q222.9236,278.9472 222.2204,278.9472 Q219.7204,278.9472 218.3923,277.3066 Q217.0798,275.6503 217.0798,272.5253 Q217.0798,269.4003 218.3923,267.7441 Q219.7204,266.0878 222.2204,266.0878 Q222.9236,266.0878 223.5642,266.2441 Q224.2204,266.4003 224.7829,266.6972 L224.7829,269.4159 Q224.1579,268.8378 223.5642,268.5722 Q222.9704,268.2909 222.3454,268.2909 Q221.0017,268.2909 220.3142,269.3691 Q219.6267,270.4316 219.6267,272.5253 Q219.6267,274.6191 220.3142,275.6972 Q221.0017,276.7597 222.3454,276.7597 Q222.9704,276.7597 223.5642,276.4941 Q224.1579,276.2128 224.7829,275.6347 L224.7829,278.3534 Z " fill="#000000"/><text fill="#000000" font-family="sans-serif" font-size="12" font-style="italic" lengthAdjust="spacing" textLength="113.8711" x="240.3142" y="268.7187">&#171;ConcreteSubject&#187;</text><text fill="#000000" font-family="sans-serif" font-size="14" lengthAdjust="spacing" textLength="58.2148" x="268.1423" y="284.5439">Drawing</text><line style="stroke:#181818;stroke-width:0.5;" x1="178.28" x2="383.7195" y1="292.8456" y2="292.8456"/><text fill="#000000" font-family="sans-serif" font-size="14" lengthAdjust="spacing" textLength="155.5313" x="183.28" y="309.8407">-shapes: List&lt;Shape&gt;</text><text fill="#000000" font-family="sans-serif" font-size="14" lengthAdjust="spacing" textLength="195.4395" x="183.28" y="326.1376">-observers: List&lt;Observer&gt;</text><line style="stroke:#181818;stroke-width:0.5;" x1="178.28" x2="383.7195" y1="333.4394" y2="333.4394"/><text fill="#000000" font-family="sans-serif" font-size="14" lengthAdjust="spacing" textLength="136.6846" x="183.28" y="350.4345">+addShape(Shape)</text></g><!--class Observable--><g class="entity" data-entity="Observable" data-source-line="16" data-uid="ent0008" id="entity_Observable"><rect fill="#F1F1F1" height="32" rx="2.5" ry="2.5" style="stroke:#181818;stroke-width:0.5;" width="111.8232" x="365.09" y="127"/><ellipse cx="380.09" cy="143" fill="#B4A7E5" rx="11" ry="11" style="stroke:#181818;stroke-width:1;"/><path d="M376.0119,138.7656 L376.0119,136.6094 L383.4025,136.6094 L383.4025,138.7656 L380.9338,138.7656 L380.9338,146.8438 L383.4025,146.8438 L383.4025,149 L376.0119,149 L376.0119,146.8438 L378.4806,146.8438 L378.4806,138.7656 L376.0119,138.7656 Z " fill="#000000"/><text fill="#000000" font-family="sans-serif" font-size="14" font-style="italic" lengthAdjust="spacing" textLength="79.8232" x="394.09" y="147.8467">Observable</text></g><!--class GeoEngine--><g class="entity" data-entity="GeoEngine" data-source-line="22" data-uid="ent0010" id="entity_GeoEngine"><rect fill="#F1F1F1" height="105.1563" rx="2.5" ry="2.5" style="stroke:#181818;stroke-width:0.5;" width="283.9404" x="420.03" y="252.58"/><ellipse cx="502.8147" cy="272.7128" fill="#ADD1B2" rx="11" ry="11" style="stroke:#181818;stroke-width:1;"/><path d="M505.7834,278.3534 Q505.2053,278.6503 504.5647,278.7909 Q503.924,278.9472 503.2209,278.9472 Q500.7209,278.9472 499.3928,277.3066 Q498.0803,275.6503 498.0803,272.5253 Q498.0803,269.4003 499.3928,267.7441 Q500.7209,266.0878 503.2209,266.0878 Q503.924,266.0878 504.5647,266.2441 Q505.2209,266.4003 505.7834,266.6972 L505.7834,269.4159 Q505.1584,268.8378 504.5647,268.5722 Q503.9709,268.2909 503.3459,268.2909 Q502.0022,268.2909 501.3147,269.3691 Q500.6272,270.4316 500.6272,272.5253 Q500.6272,274.6191 501.3147,275.6972 Q502.0022,276.7597 503.3459,276.7597 Q503.9709,276.7597 504.5647,276.4941 Q505.1584,276.2128 505.7834,275.6347 L505.7834,278.3534 Z " fill="#000000"/><text fill="#000000" font-family="sans-serif" font-size="12" font-style="italic" lengthAdjust="spacing" textLength="113.8711" x="521.3147" y="268.7187">&#171;ConcreteSubject&#187;</text><text fill="#000000" font-family="sans-serif" font-size="14" lengthAdjust="spacing" textLength="76.0088" x="540.2458" y="284.5439">GeoEngine</text><line style="stroke:#181818;stroke-width:0.5;" x1="421.03" x2="702.9704" y1="292.8456" y2="292.8456"/><text fill="#000000" font-family="sans-serif" font-size="14" lengthAdjust="spacing" textLength="216.2207" x="426.03" y="309.8407">-selectedShapes: List&lt;Shape&gt;</text><text fill="#000000" font-family="sans-serif" font-size="14" lengthAdjust="spacing" textLength="271.9404" x="426.03" y="326.1376">-geoEngineObservers: List&lt;Observer&gt;</text><line style="stroke:#181818;stroke-width:0.5;" x1="421.03" x2="702.9704" y1="333.4394" y2="333.4394"/><text fill="#000000" font-family="sans-serif" font-size="14" lengthAdjust="spacing" textLength="247.6455" x="426.03" y="350.4345">+setSelectedShapes(List&lt;Shape&gt;)</text></g><!--class DrawingView--><g class="entity" data-entity="DrawingView" data-source-line="33" data-uid="ent0013" id="entity_DrawingView"><rect fill="#F1F1F1" height="121.4531" rx="2.5" ry="2.5" style="stroke:#181818;stroke-width:0.5;" width="235.7402" x="760.13" y="436.74"/><ellipse cx="813.7198" cy="456.8728" fill="#ADD1B2" rx="11" ry="11" style="stroke:#181818;stroke-width:1;"/><path d="M816.6886,462.5134 Q816.1105,462.8103 815.4698,462.9509 Q814.8292,463.1072 814.1261,463.1072 Q811.6261,463.1072 810.298,461.4666 Q808.9855,459.8103 808.9855,456.6853 Q808.9855,453.5603 810.298,451.9041 Q811.6261,450.2478 814.1261,450.2478 Q814.8292,450.2478 815.4698,450.4041 Q816.1261,450.5603 816.6886,450.8572 L816.6886,453.5759 Q816.0636,452.9978 815.4698,452.7322 Q814.8761,452.4509 814.2511,452.4509 Q812.9073,452.4509 812.2198,453.5291 Q811.5323,454.5916 811.5323,456.6853 Q811.5323,458.7791 812.2198,459.8572 Q812.9073,460.9197 814.2511,460.9197 Q814.8761,460.9197 815.4698,460.6541 Q816.0636,460.3728 816.6886,459.7947 L816.6886,462.5134 Z " fill="#000000"/><text fill="#000000" font-family="sans-serif" font-size="12" font-style="italic" lengthAdjust="spacing" textLength="124.0605" x="832.2198" y="452.8787">&#171;ConcreteObserver&#187;</text><text fill="#000000" font-family="sans-serif" font-size="14" lengthAdjust="spacing" textLength="91.7451" x="848.3776" y="468.7039">DrawingView</text><line style="stroke:#181818;stroke-width:0.5;" x1="761.13" x2="994.8702" y1="477.0056" y2="477.0056"/><text fill="#000000" font-family="sans-serif" font-size="14" lengthAdjust="spacing" textLength="157.3223" x="766.13" y="494.0007">-controller: GeoEngine</text><text fill="#000000" font-family="sans-serif" font-size="14" lengthAdjust="spacing" textLength="223.7402" x="766.13" y="510.2976">-currentDrawingModel: Drawing</text><line style="stroke:#181818;stroke-width:0.5;" x1="761.13" x2="994.8702" y1="517.5994" y2="517.5994"/><text fill="#000000" font-family="sans-serif" font-size="14" lengthAdjust="spacing" textLength="69.1523" x="766.13" y="534.5945">+render()</text><text fill="#000000" font-family="sans-serif" font-size="14" lengthAdjust="spacing" textLength="206.3018" x="766.13" y="550.8914">+update(Observable, Object)</text></g><!--class Observer--><g class="entity" data-entity="Observer" data-source-line="34" data-uid="ent0014" id="entity_Observer"><rect fill="#F1F1F1" height="32" rx="2.5" ry="2.5" style="stroke:#181818;stroke-width:0.5;" width="96.2236" x="829.89" y="289.16"/><ellipse cx="844.89" cy="305.16" fill="#B4A7E5" rx="11" ry="11" style="stroke:#181818;stroke-width:1;"/><path d="M840.8119,300.9256 L840.8119,298.7694 L848.2025,298.7694 L848.2025,300.9256 L845.7338,300.9256 L845.7338,309.0038 L848.2025,309.0038 L848.2025,311.16 L840.8119,311.16 L840.8119,309.0038 L843.2806,309.0038 L843.2806,300.9256 L840.8119,300.9256 Z " fill="#000000"/><text fill="#000000" font-family="sans-serif" font-size="14" font-style="italic" lengthAdjust="spacing" textLength="64.2236" x="858.89" y="310.0067">Observer</text></g><!--class Observable--><g class="entity" data-entity="Observable" data-source-line="4" data-uid="ent0002" id="entity_Observable"><rect fill="#F1F1F1" height="97.1563" rx="2.5" ry="2.5" style="stroke:#181818;stroke-width:0.5;" width="191.7988" x="1076.1" y="94.42"/><ellipse cx="1127.8378" cy="114.5528" fill="#B4A7E5" rx="11" ry="11" style="stroke:#181818;stroke-width:1;"/><path d="M1123.7597,110.3184 L1123.7597,108.1622 L1131.1503,108.1622 L1131.1503,110.3184 L1128.6815,110.3184 L1128.6815,118.3966 L1131.1503,118.3966 L1131.1503,120.5528 L1123.7597,120.5528 L1123.7597,118.3966 L1126.2284,118.3966 L1126.2284,110.3184 L1123.7597,110.3184 Z " fill="#000000"/><text fill="#000000" font-family="sans-serif" font-size="12" font-style="italic" lengthAdjust="spacing" textLength="59.543" x="1158.4779" y="110.5587">&#171;Subject&#187;</text><text fill="#000000" font-family="sans-serif" font-size="14" font-style="italic" lengthAdjust="spacing" textLength="79.8232" x="1148.3378" y="126.3839">Observable</text><line style="stroke:#181818;stroke-width:0.5;" x1="1077.1" x2="1266.8988" y1="134.6856" y2="134.6856"/><text fill="#000000" font-family="sans-serif" font-size="14" lengthAdjust="spacing" textLength="131.585" x="1082.1" y="151.6807">+attach(Observer)</text><text fill="#000000" font-family="sans-serif" font-size="14" lengthAdjust="spacing" textLength="135.0166" x="1082.1" y="167.9776">+detach(Observer)</text><text fill="#000000" font-family="sans-serif" font-size="14" lengthAdjust="spacing" textLength="179.7988" x="1082.1" y="184.2745">+notifyObservers(Object)</text></g><!--class Observer--><g class="entity" data-entity="Observer" data-source-line="10" data-uid="ent0003" id="entity_Observer"><rect fill="#F1F1F1" height="64.5625" rx="2.5" ry="2.5" style="stroke:#181818;stroke-width:0.5;" width="218.3018" x="1302.85" y="110.72"/><ellipse cx="1374.8847" cy="130.8528" fill="#B4A7E5" rx="11" ry="11" style="stroke:#181818;stroke-width:1;"/><path d="M1370.8065,126.6184 L1370.8065,124.4622 L1378.1972,124.4622 L1378.1972,126.6184 L1375.7284,126.6184 L1375.7284,134.6966 L1378.1972,134.6966 L1378.1972,136.8528 L1370.8065,136.8528 L1370.8065,134.6966 L1373.2753,134.6966 L1373.2753,126.6184 L1370.8065,126.6184 Z " fill="#000000"/><text fill="#000000" font-family="sans-serif" font-size="12" font-style="italic" lengthAdjust="spacing" textLength="69.7324" x="1393.3847" y="126.8587">&#171;Observer&#187;</text><text fill="#000000" font-family="sans-serif" font-size="14" font-style="italic" lengthAdjust="spacing" textLength="64.2236" x="1396.1391" y="142.6839">Observer</text><line style="stroke:#181818;stroke-width:0.5;" x1="1303.85" x2="1520.1518" y1="150.9856" y2="150.9856"/><text fill="#000000" font-family="sans-serif" font-size="14" lengthAdjust="spacing" textLength="206.3018" x="1308.85" y="167.9807">+update(Observable, Object)</text></g><g class="entity" data-entity="GMN27" data-source-line="56" data-uid="ent0028" id="entity_GMN27"><path d="M1076.31,277.46 L1076.31,332.8584 L1291.6879,332.8584 L1291.6879,287.46 L1281.6879,277.46 L1076.31,277.46" fill="#FEFFDD" style="stroke:#181818;stroke-width:0.5;"/><path d="M1281.6879,277.46 L1281.6879,287.46 L1291.6879,287.46 L1281.6879,277.46" fill="#FEFFDD" style="stroke:#181818;stroke-width:1;"/><text fill="#000000" font-family="sans-serif" font-size="13" lengthAdjust="spacing" textLength="186.1006" x="1082.31" y="294.5269">Notifica gli Observer quando</text><text fill="#000000" font-family="sans-serif" font-size="13" lengthAdjust="spacing" textLength="194.3779" x="1082.31" y="309.6597">il suo stato (es. lista di forme)</text><text fill="#000000" font-family="sans-serif" font-size="13" lengthAdjust="spacing" textLength="51.7397" x="1082.31" y="324.7925">cambia.</text></g><g class="entity" data-entity="GMN30" data-source-line="62" data-uid="ent0031" id="entity_GMN30"><path d="M1075.81,469.76 L1075.81,493.46 L996.34,497.46 L1075.81,501.46 L1075.81,525.1584 A0,0 0 0 0 1075.81,525.1584 L1292.1972,525.1584 A0,0 0 0 0 1292.1972,525.1584 L1292.1972,479.76 L1282.1972,469.76 L1075.81,469.76 A0,0 0 0 0 1075.81,469.76" fill="#FEFFDD" style="stroke:#181818;stroke-width:0.5;"/><path d="M1282.1972,469.76 L1282.1972,479.76 L1292.1972,479.76 L1282.1972,469.76" fill="#FEFFDD" style="stroke:#181818;stroke-width:0.5;"/><text fill="#000000" font-family="sans-serif" font-size="13" lengthAdjust="spacing" textLength="195.3872" x="1081.81" y="486.8269">Si aggiorna (es. ridisegnando)</text><text fill="#000000" font-family="sans-serif" font-size="13" lengthAdjust="spacing" textLength="177.3979" x="1081.81" y="501.9597">quando riceve notifiche dai</text><text fill="#000000" font-family="sans-serif" font-size="13" lengthAdjust="spacing" textLength="139.3184" x="1081.81" y="517.0925">soggetti che osserva.</text></g><!--reverse link Observable to Drawing--><g class="link" data-entity-1="Observable" data-entity-2="Drawing" data-source-line="16" data-uid="lnk9" id="link_Observable_Drawing"><path d="M395.7332,172.9119 C377.1832,194.1319 354.65,219.9 326.4,252.22" fill="none" id="Observable-backto-Drawing" style="stroke:#181818;stroke-width:1;stroke-dasharray:7.0,7.0;"/><polygon fill="none" points="407.58,159.36,391.2159,168.963,400.2506,176.8608,407.58,159.36" style="stroke:#181818;stroke-width:1;"/></g><!--reverse link Observable to GeoEngine--><g class="link" data-entity-1="Observable" data-entity-2="GeoEngine" data-source-line="23" data-uid="lnk11" id="link_Observable_GeoEngine"><path d="M446.4136,172.8708 C465.0936,194.0908 487.82,219.9 516.27,252.22" fill="none" id="Observable-backto-GeoEngine" style="stroke:#181818;stroke-width:1;stroke-dasharray:7.0,7.0;"/><polygon fill="none" points="434.52,159.36,441.91,176.8354,450.9172,168.9063,434.52,159.36" style="stroke:#181818;stroke-width:1;"/></g><!--reverse link Observer to DrawingView--><g class="link" data-entity-1="Observer" data-entity-2="DrawingView" data-source-line="34" data-uid="lnk15" id="link_Observer_DrawingView"><path d="M878,339.41 C878,364.11 878,396.14 878,436.42" fill="none" id="Observer-backto-DrawingView" style="stroke:#181818;stroke-width:1;stroke-dasharray:7.0,7.0;"/><polygon fill="none" points="878,321.41,872,339.41,884,339.41,878,321.41" style="stroke:#181818;stroke-width:1;"/></g><!--reverse link Observer to MainApp--><g class="link" data-entity-1="Observer" data-entity-2="MainApp" data-source-line="43" data-uid="lnk18" id="link_Observer_MainApp"><path d="M118.6766,335.2403 C131.9166,350.7503 141.54,361.53 161,381.74 C181.29,402.81 204.36,425.21 224.81,444.57" fill="none" id="Observer-backto-MainApp" style="stroke:#181818;stroke-width:1;stroke-dasharray:7.0,7.0;"/><polygon fill="none" points="106.99,321.55,114.1132,339.1358,123.24,331.3447,106.99,321.55" style="stroke:#181818;stroke-width:1;"/></g><!--reverse link GeoEngine to DrawingView--><g class="link" data-entity-1="GeoEngine" data-entity-2="DrawingView" data-source-line="49" data-uid="lnk20" id="link_GeoEngine_DrawingView"><path codeLine="49" d="M653.4896,361.2558 C693.5996,385.4158 736.39,411.18 778.06,436.27" fill="none" id="GeoEngine-backto-DrawingView" style="stroke:#181818;stroke-width:1;stroke-dasharray:7.0,7.0;"/><polygon fill="#181818" points="648.35,358.16,653.9956,366.2302,652.633,360.7399,658.1233,359.3773,648.35,358.16" style="stroke:#181818;stroke-width:1;"/><text fill="#000000" font-family="sans-serif" font-size="13" lengthAdjust="spacing" textLength="58.7856" x="721" y="402.8069">observes</text></g><!--reverse link Drawing to DrawingView--><g class="link" data-entity-1="Drawing" data-entity-2="DrawingView" data-source-line="50" data-uid="lnk22" id="link_Drawing_DrawingView"><path codeLine="50" d="M343.3161,361.8436 C367.1661,380.3936 391.41,395.73 421,406.74 C561.1,458.86 612.02,396.54 756,436.74 C757.25,437.09 758.5,437.45 759.75,437.82" fill="none" id="Drawing-backto-DrawingView" style="stroke:#181818;stroke-width:1;stroke-dasharray:7.0,7.0;"/><polygon fill="#181818" points="338.58,358.16,343.2284,366.8429,342.5268,361.2297,348.1399,360.5281,338.58,358.16" style="stroke:#181818;stroke-width:1;"/><text fill="#000000" font-family="sans-serif" font-size="13" lengthAdjust="spacing" textLength="58.7856" x="422" y="402.8069">observes</text></g><!--reverse link GeoEngine to MainApp--><g class="link" data-entity-1="GeoEngine" data-entity-2="MainApp" data-source-line="51" data-uid="lnk24" id="link_GeoEngine_MainApp"><path codeLine="51" d="M528.7274,363.1288 C516.9774,380.2688 505.67,393.39 489,406.74 C460.06,429.9 424.24,448.17 390.53,462.01" fill="none" id="GeoEngine-backto-MainApp" style="stroke:#181818;stroke-width:1;stroke-dasharray:7.0,7.0;"/><polygon fill="#181818" points="532.12,358.18,523.732,363.3415,529.2929,362.304,530.3304,367.8649,532.12,358.18" style="stroke:#181818;stroke-width:1;"/><text fill="#000000" font-family="sans-serif" font-size="13" lengthAdjust="spacing" textLength="58.7856" x="507" y="402.8069">observes</text></g><!--reverse link Drawing to MainApp--><g class="link" data-entity-1="Drawing" data-entity-2="MainApp" data-source-line="52" data-uid="lnk26" id="link_Drawing_MainApp"><path codeLine="52" d="M281,364.16 C281,391.01 281,417.68 281,444.52" fill="none" id="Drawing-backto-MainApp" style="stroke:#181818;stroke-width:1;stroke-dasharray:7.0,7.0;"/><polygon fill="#181818" points="281,358.16,277,367.16,281,363.16,285,367.16,281,358.16" style="stroke:#181818;stroke-width:1;"/><text fill="#000000" font-family="sans-serif" font-size="13" lengthAdjust="spacing" textLength="58.7856" x="282" y="402.8069">observes</text></g><!--link Drawing to GMN27--><g class="link" data-entity-1="Drawing" data-entity-2="GMN27" data-source-line="56" data-uid="lnk29" id="link_Drawing_GMN27"><path d="M349.8,252.21 C371.29,238.62 395.85,225.88 420.5,218.87 C543.19,183.99 869.84,191.82 994.5,218.87 C1045.9,230.02 1100.09,256.37 1137.29,277.04" fill="none" id="Drawing-GMN27" style="stroke:#181818;stroke-width:1;stroke-dasharray:7.0,7.0;"/></g><!--SRC=[bLFDRjim3BxxANYRWsx6UWs20CLM30NMzM1iTzgYPRQof4boYsxekq-MxTXjWc2z6399VJyavHzOMtJOGQtG-wiG75Tze9lQw9B_47pEMXO4rDdm31rr5JcVPQm3kGPhWhlAatl4IX7iTcLVtLCTzdlucm5SO0XOj_bOGcupn0GTnxG9t3pF8H-J0yecUpac8XTfvkFCqrk1WV95oaTOGLYi7r0IU1I5TBsrvlAok3M2LBgTVCDNXq-iPGJ_OdJjAD3YXJkhg2CT_DfjkWpmoRTeoM_XE_kmAuUV_PWmivyfTr2TqXSeHAhEqtUJWja7A8eY7byEmhwHkTQIDRr3sgoCLAoYaUQKGZbZtvsNwYcKhx3o5TIHyjZoqpt_nVHqtF8KNRojPdjaBWv_iXQtCpYZ5Bdjqg4frJiNxqpeQSxRcMkq4zE2N3uAFxSyavjJPbO-Rf7rbRNlzd3e_biBKM3ZoBS_RyemIFjleUkE5hqjzgljsSAqZ_v4sRpzgwBPrHcSroKdCB8ilcm2nx8DO9hL57uCBvvh1AbuQSpl7hKmCSqAV6_0H_i6Sl85gBXm28AXCQvBhwN6hc8iiZXC66WcCaNDccim6OjB1fIIZTCuuZaMx4dgWN106wbZkAP70ZtAQma4Sinw8oM5m324Z4y3M9Z_0G00]--></g></svg>