<svg xmlns="http://www.w3.org/2000/svg" xmlns:xlink="http://www.w3.org/1999/xlink" contentStyleType="text/css" data-diagram-type="CLASS" height="748px" preserveAspectRatio="none" style="width:1439px;height:748px;background:#FFFFFF;" version="1.1" viewBox="0 0 1439 748" width="1439px" zoomAndPan="magnify"><defs/><g><!--cluster sad--><g class="cluster" data-entity="sad" data-source-line="20" data-uid="ent0009" id="cluster_sad"><path d="M374.5,6 L403.3018,6 A3.75,3.75 0 0 1 405.8018,8.5 L412.8018,28.2969 L1101.5,28.2969 A2.5,2.5 0 0 1 1104,30.7969 L1104,453.5 A2.5,2.5 0 0 1 1101.5,456 L374.5,456 A2.5,2.5 0 0 1 372,453.5 L372,8.5 A2.5,2.5 0 0 1 374.5,6" fill="none" style="stroke:#000000;stroke-width:1.5;"/><line style="stroke:#000000;stroke-width:1.5;" x1="372" x2="412.8018" y1="28.2969" y2="28.2969"/><text fill="#000000" font-family="sans-serif" font-size="14" font-weight="bold" lengthAdjust="spacing" textLength="27.8018" x="376" y="20.9951">sad</text></g><!--cluster gruppo11--><g class="cluster" data-entity="gruppo11" data-source-line="20" data-uid="ent0010" id="cluster_gruppo11"><path d="M398.5,49 L475.5361,49 A3.75,3.75 0 0 1 478.0361,51.5 L485.0361,71.2969 L1077.5,71.2969 A2.5,2.5 0 0 1 1080,73.7969 L1080,429.5 A2.5,2.5 0 0 1 1077.5,432 L398.5,432 A2.5,2.5 0 0 1 396,429.5 L396,51.5 A2.5,2.5 0 0 1 398.5,49" fill="none" style="stroke:#000000;stroke-width:1.5;"/><line style="stroke:#000000;stroke-width:1.5;" x1="396" x2="485.0361" y1="71.2969" y2="71.2969"/><text fill="#000000" font-family="sans-serif" font-size="14" font-weight="bold" lengthAdjust="spacing" textLength="76.0361" x="400" y="63.9951">gruppo11</text></g><!--cluster Controller--><g class="cluster" data-entity="Controller" data-source-line="19" data-uid="ent0007" id="cluster_Controller"><path d="M422.5,100.5 L502.5713,100.5 A3.75,3.75 0 0 1 505.0713,103 L512.0713,122.7969 L839.5,122.7969 A2.5,2.5 0 0 1 842,125.2969 L842,405.5 A2.5,2.5 0 0 1 839.5,408 L422.5,408 A2.5,2.5 0 0 1 420,405.5 L420,103 A2.5,2.5 0 0 1 422.5,100.5" fill="none" style="stroke:#000000;stroke-width:1.5;"/><line style="stroke:#000000;stroke-width:1.5;" x1="420" x2="512.0713" y1="122.7969" y2="122.7969"/><text fill="#000000" font-family="sans-serif" font-size="14" font-weight="bold" lengthAdjust="spacing" textLength="79.0713" x="424" y="115.4951">Controller</text></g><!--cluster Infrastructure--><g class="cluster" data-entity="Infrastructure" data-source-line="32" data-uid="ent0012" id="cluster_Infrastructure"><path d="M868.5,92 L980.3721,92 A3.75,3.75 0 0 1 982.8721,94.5 L989.8721,114.2969 L1053.5,114.2969 A2.5,2.5 0 0 1 1056,116.7969 L1056,213.5 A2.5,2.5 0 0 1 1053.5,216 L868.5,216 A2.5,2.5 0 0 1 866,213.5 L866,94.5 A2.5,2.5 0 0 1 868.5,92" fill="none" style="stroke:#000000;stroke-width:1.5;"/><line style="stroke:#000000;stroke-width:1.5;" x1="866" x2="989.8721" y1="114.2969" y2="114.2969"/><text fill="#000000" font-family="sans-serif" font-size="14" font-weight="bold" lengthAdjust="spacing" textLength="110.8721" x="870" y="106.9951">Infrastructure</text></g><!--class ReusableShapeDefinition--><g class="entity" data-entity="ReusableShapeDefinition" data-source-line="20" data-uid="ent0008" id="entity_ReusableShapeDefinition"><rect fill="#F1F1F1" height="113.1875" rx="2.5" ry="2.5" style="stroke:#181818;stroke-width:0.5;" width="305.2822" x="436.5" y="279"/><ellipse cx="496.8374" cy="295" fill="#ADD1B2" rx="11" ry="11" style="stroke:#181818;stroke-width:1;"/><path d="M499.8062,300.6406 Q499.228,300.9375 498.5874,301.0781 Q497.9468,301.2344 497.2437,301.2344 Q494.7437,301.2344 493.4155,299.5938 Q492.103,297.9375 492.103,294.8125 Q492.103,291.6875 493.4155,290.0313 Q494.7437,288.375 497.2437,288.375 Q497.9468,288.375 498.5874,288.5313 Q499.2437,288.6875 499.8062,288.9844 L499.8062,291.7031 Q499.1812,291.125 498.5874,290.8594 Q497.9937,290.5781 497.3687,290.5781 Q496.0249,290.5781 495.3374,291.6563 Q494.6499,292.7188 494.6499,294.8125 Q494.6499,296.9063 495.3374,297.9844 Q496.0249,299.0469 497.3687,299.0469 Q497.9937,299.0469 498.5874,298.7813 Q499.1812,298.5 499.8062,297.9219 L499.8062,300.6406 Z " fill="#000000"/><text fill="#000000" font-family="sans-serif" font-size="14" lengthAdjust="spacing" textLength="176.1074" x="517.3374" y="299.8467">ReusableShapeDefinition</text><line style="stroke:#181818;stroke-width:0.5;" x1="437.5" x2="740.7822" y1="311" y2="311"/><text fill="#000000" font-family="sans-serif" font-size="14" lengthAdjust="spacing" textLength="95.7031" x="442.5" y="327.9951">-name: String</text><text fill="#000000" font-family="sans-serif" font-size="14" lengthAdjust="spacing" textLength="126.5947" x="442.5" y="344.292">-prototype: Shape</text><line style="stroke:#181818;stroke-width:0.5;" x1="437.5" x2="740.7822" y1="351.5938" y2="351.5938"/><text fill="#000000" font-family="sans-serif" font-size="14" lengthAdjust="spacing" textLength="293.2822" x="442.5" y="368.5889">+ReusableShapeDefinition(String, Shape)</text><text fill="#000000" font-family="sans-serif" font-size="14" lengthAdjust="spacing" textLength="166.7422" x="442.5" y="384.8857">+getPrototype(): Shape</text></g><!--class GeoEngine--><g class="entity" data-entity="GeoEngine" data-source-line="27" data-uid="ent0011" id="entity_GeoEngine"><rect fill="#F1F1F1" height="56.2969" rx="2.5" ry="2.5" style="stroke:#181818;stroke-width:0.5;" width="390.3213" x="436" y="135.5"/><ellipse cx="588.9063" cy="151.5" fill="#ADD1B2" rx="11" ry="11" style="stroke:#181818;stroke-width:1;"/><path d="M591.875,157.1406 Q591.2969,157.4375 590.6563,157.5781 Q590.0156,157.7344 589.3125,157.7344 Q586.8125,157.7344 585.4844,156.0938 Q584.1719,154.4375 584.1719,151.3125 Q584.1719,148.1875 585.4844,146.5313 Q586.8125,144.875 589.3125,144.875 Q590.0156,144.875 590.6563,145.0313 Q591.3125,145.1875 591.875,145.4844 L591.875,148.2031 Q591.25,147.625 590.6563,147.3594 Q590.0625,147.0781 589.4375,147.0781 Q588.0938,147.0781 587.4063,148.1563 Q586.7188,149.2188 586.7188,151.3125 Q586.7188,153.4063 587.4063,154.4844 Q588.0938,155.5469 589.4375,155.5469 Q590.0625,155.5469 590.6563,155.2813 Q591.25,155 591.875,154.4219 L591.875,157.1406 Z " fill="#000000"/><text fill="#000000" font-family="sans-serif" font-size="14" lengthAdjust="spacing" textLength="76.0088" x="609.4063" y="156.3467">GeoEngine</text><line style="stroke:#181818;stroke-width:0.5;" x1="437" x2="825.3213" y1="167.5" y2="167.5"/><text fill="#000000" font-family="sans-serif" font-size="14" lengthAdjust="spacing" textLength="378.3213" x="442" y="184.4951">+placeReusableShape(String name, Point2D position)</text></g><!--class Clipboard--><g class="entity" data-entity="Clipboard" data-source-line="33" data-uid="ent0013" id="entity_Clipboard"><rect fill="#F1F1F1" height="72.5938" rx="2.5" ry="2.5" style="stroke:#181818;stroke-width:0.5;" width="156.6689" x="882.5" y="127"/><ellipse cx="923.3992" cy="143" fill="#ADD1B2" rx="11" ry="11" style="stroke:#181818;stroke-width:1;"/><path d="M926.3679,148.6406 Q925.7898,148.9375 925.1492,149.0781 Q924.5085,149.2344 923.8054,149.2344 Q921.3054,149.2344 919.9773,147.5938 Q918.6648,145.9375 918.6648,142.8125 Q918.6648,139.6875 919.9773,138.0313 Q921.3054,136.375 923.8054,136.375 Q924.5085,136.375 925.1492,136.5313 Q925.8054,136.6875 926.3679,136.9844 L926.3679,139.7031 Q925.7429,139.125 925.1492,138.8594 Q924.5554,138.5781 923.9304,138.5781 Q922.5867,138.5781 921.8992,139.6563 Q921.2117,140.7188 921.2117,142.8125 Q921.2117,144.9063 921.8992,145.9844 Q922.5867,147.0469 923.9304,147.0469 Q924.5554,147.0469 925.1492,146.7813 Q925.7429,146.5 926.3679,145.9219 L926.3679,148.6406 Z " fill="#000000"/><text fill="#000000" font-family="sans-serif" font-size="14" lengthAdjust="spacing" textLength="67.1152" x="943.1545" y="147.8467">Clipboard</text><line style="stroke:#181818;stroke-width:0.5;" x1="883.5" x2="1038.1689" y1="159" y2="159"/><text fill="#000000" font-family="sans-serif" font-size="14" lengthAdjust="spacing" textLength="144.6689" x="888.5" y="175.9951">+set(Shape original)</text><text fill="#000000" font-family="sans-serif" font-size="14" lengthAdjust="spacing" textLength="98.6494" x="888.5" y="192.292">+get(): Shape</text></g><!--class Shape--><g class="entity" data-entity="Shape" data-source-line="4" data-uid="ent0002" id="entity_Shape"><rect fill="#F1F1F1" height="80.8594" rx="2.5" ry="2.5" style="stroke:#181818;stroke-width:0.5;" width="200.9453" x="655.5" y="519"/><ellipse cx="717.1338" cy="539.1328" fill="#B4A7E5" rx="11" ry="11" style="stroke:#181818;stroke-width:1;"/><path d="M713.0557,534.8984 L713.0557,532.7422 L720.4463,532.7422 L720.4463,534.8984 L717.9775,534.8984 L717.9775,542.9766 L720.4463,542.9766 L720.4463,545.1328 L713.0557,545.1328 L713.0557,542.9766 L715.5244,542.9766 L715.5244,534.8984 L713.0557,534.8984 Z " fill="#000000"/><text fill="#000000" font-family="sans-serif" font-size="12" font-style="italic" lengthAdjust="spacing" textLength="73.1777" x="735.6338" y="535.1387">&#171;Prototype&#187;</text><text fill="#000000" font-family="sans-serif" font-size="14" font-style="italic" lengthAdjust="spacing" textLength="43.8389" x="750.3032" y="550.9639">Shape</text><line style="stroke:#181818;stroke-width:0.5;" x1="656.5" x2="855.4453" y1="559.2656" y2="559.2656"/><text fill="#000000" font-family="sans-serif" font-size="14" lengthAdjust="spacing" textLength="113.2988" x="661.5" y="576.2607">+clone(): Shape</text><text fill="#000000" font-family="sans-serif" font-size="14" lengthAdjust="spacing" textLength="188.9453" x="661.5" y="592.5576">+cloneWithNewId(): Shape</text></g><!--class LineSegment--><g class="entity" data-entity="LineSegment" data-source-line="9" data-uid="ent0003" id="entity_LineSegment"><rect fill="#F1F1F1" height="80.8594" rx="2.5" ry="2.5" style="stroke:#181818;stroke-width:0.5;" width="200.9453" x="537.5" y="661"/><ellipse cx="572.9478" cy="681.1328" fill="#ADD1B2" rx="11" ry="11" style="stroke:#181818;stroke-width:1;"/><path d="M575.9165,686.7734 Q575.3384,687.0703 574.6978,687.2109 Q574.0571,687.3672 573.354,687.3672 Q570.854,687.3672 569.5259,685.7266 Q568.2134,684.0703 568.2134,680.9453 Q568.2134,677.8203 569.5259,676.1641 Q570.854,674.5078 573.354,674.5078 Q574.0571,674.5078 574.6978,674.6641 Q575.354,674.8203 575.9165,675.1172 L575.9165,677.8359 Q575.2915,677.2578 574.6978,676.9922 Q574.104,676.7109 573.479,676.7109 Q572.1353,676.7109 571.4478,677.7891 Q570.7603,678.8516 570.7603,680.9453 Q570.7603,683.0391 571.4478,684.1172 Q572.1353,685.1797 573.479,685.1797 Q574.104,685.1797 574.6978,684.9141 Q575.2915,684.6328 575.9165,684.0547 L575.9165,686.7734 Z " fill="#000000"/><text fill="#000000" font-family="sans-serif" font-size="12" font-style="italic" lengthAdjust="spacing" textLength="127.5059" x="589.4917" y="677.1387">&#171;ConcretePrototype&#187;</text><text fill="#000000" font-family="sans-serif" font-size="14" lengthAdjust="spacing" textLength="92.1758" x="607.1567" y="692.9639">LineSegment</text><line style="stroke:#181818;stroke-width:0.5;" x1="538.5" x2="737.4453" y1="701.2656" y2="701.2656"/><text fill="#000000" font-family="sans-serif" font-size="14" lengthAdjust="spacing" textLength="113.2988" x="543.5" y="718.2607">+clone(): Shape</text><text fill="#000000" font-family="sans-serif" font-size="14" lengthAdjust="spacing" textLength="188.9453" x="543.5" y="734.5576">+cloneWithNewId(): Shape</text></g><!--class GroupShape--><g class="entity" data-entity="GroupShape" data-source-line="14" data-uid="ent0005" id="entity_GroupShape"><rect fill="#F1F1F1" height="80.8594" rx="2.5" ry="2.5" style="stroke:#181818;stroke-width:0.5;" width="200.9453" x="773.5" y="661"/><ellipse cx="808.9478" cy="681.1328" fill="#ADD1B2" rx="11" ry="11" style="stroke:#181818;stroke-width:1;"/><path d="M811.9165,686.7734 Q811.3384,687.0703 810.6978,687.2109 Q810.0571,687.3672 809.354,687.3672 Q806.854,687.3672 805.5259,685.7266 Q804.2134,684.0703 804.2134,680.9453 Q804.2134,677.8203 805.5259,676.1641 Q806.854,674.5078 809.354,674.5078 Q810.0571,674.5078 810.6978,674.6641 Q811.354,674.8203 811.9165,675.1172 L811.9165,677.8359 Q811.2915,677.2578 810.6978,676.9922 Q810.104,676.7109 809.479,676.7109 Q808.1353,676.7109 807.4478,677.7891 Q806.7603,678.8516 806.7603,680.9453 Q806.7603,683.0391 807.4478,684.1172 Q808.1353,685.1797 809.479,685.1797 Q810.104,685.1797 810.6978,684.9141 Q811.2915,684.6328 811.9165,684.0547 L811.9165,686.7734 Z " fill="#000000"/><text fill="#000000" font-family="sans-serif" font-size="12" font-style="italic" lengthAdjust="spacing" textLength="127.5059" x="825.4917" y="677.1387">&#171;ConcretePrototype&#187;</text><text fill="#000000" font-family="sans-serif" font-size="14" lengthAdjust="spacing" textLength="86.7686" x="845.8604" y="692.9639">GroupShape</text><line style="stroke:#181818;stroke-width:0.5;" x1="774.5" x2="973.4453" y1="701.2656" y2="701.2656"/><text fill="#000000" font-family="sans-serif" font-size="14" lengthAdjust="spacing" textLength="113.2988" x="779.5" y="718.2607">+clone(): Shape</text><text fill="#000000" font-family="sans-serif" font-size="14" lengthAdjust="spacing" textLength="188.9453" x="779.5" y="734.5576">+cloneWithNewId(): Shape</text></g><g class="entity" data-entity="GMN18" data-source-line="45" data-uid="ent0019" id="entity_GMN18"><path d="M6,300 L6,370.5313 L355.98,370.5313 L355.98,310 L345.98,300 L6,300" fill="#FEFFDD" style="stroke:#181818;stroke-width:0.5;"/><path d="M345.98,300 L345.98,310 L355.98,310 L345.98,300" fill="#FEFFDD" style="stroke:#181818;stroke-width:1;"/><text fill="#000000" font-family="sans-serif" font-size="13" lengthAdjust="spacing" textLength="211.2246" x="12" y="317.0669">Definisce i metodi di clonazione.</text><text fill="#000000" font-family="sans-serif" font-size="13" lengthAdjust="spacing" textLength="328.98" x="12" y="332.1997">clone() per copia esatta (stesso ID, per Clipboard).</text><text fill="#000000" font-family="sans-serif" font-size="13" lengthAdjust="spacing" textLength="307.29" x="12" y="347.3325">cloneWithNewId() per nuova istanza (nuovo ID,</text><text fill="#000000" font-family="sans-serif" font-size="13" lengthAdjust="spacing" textLength="198.3516" x="12" y="362.4653">per Paste e Reusable Shapes).</text></g><g class="entity" data-entity="GMN21" data-source-line="52" data-uid="ent0022" id="entity_GMN21"><path d="M1189,308 L1189,363.3984 L1432.752,363.3984 L1432.752,318 L1422.752,308 L1189,308" fill="#FEFFDD" style="stroke:#181818;stroke-width:0.5;"/><path d="M1422.752,308 L1422.752,318 L1432.752,318 L1422.752,308" fill="#FEFFDD" style="stroke:#181818;stroke-width:1;"/><text fill="#000000" font-family="sans-serif" font-size="13" lengthAdjust="spacing" textLength="219.4258" x="1195" y="325.0669">Memorizza una Shape "prototipo"</text><text fill="#000000" font-family="sans-serif" font-size="13" lengthAdjust="spacing" textLength="222.752" x="1195" y="340.1997">che pu&#242; essere clonata per creare</text><text fill="#000000" font-family="sans-serif" font-size="13" lengthAdjust="spacing" textLength="94.8975" x="1195" y="355.3325">nuove istanze.</text></g><!--reverse link Shape to LineSegment--><g class="link" data-entity-1="Shape" data-entity-2="LineSegment" data-source-line="10" data-uid="lnk4" id="link_Shape_LineSegment"><path d="M710.9024,614.0058 C694.9624,632.9258 687.54,641.73 671.58,660.66" fill="none" id="Shape-backto-LineSegment" style="stroke:#181818;stroke-width:1;stroke-dasharray:7.0,7.0;"/><polygon fill="none" points="722.5,600.24,706.3138,610.1399,715.491,617.8716,722.5,600.24" style="stroke:#181818;stroke-width:1;"/></g><!--reverse link Shape to GroupShape--><g class="link" data-entity-1="Shape" data-entity-2="GroupShape" data-source-line="15" data-uid="lnk6" id="link_Shape_GroupShape"><path d="M801.0976,614.0058 C817.0376,632.9258 824.46,641.73 840.42,660.66" fill="none" id="Shape-backto-GroupShape" style="stroke:#181818;stroke-width:1;stroke-dasharray:7.0,7.0;"/><polygon fill="none" points="789.5,600.24,796.509,617.8716,805.6862,610.1399,789.5,600.24" style="stroke:#181818;stroke-width:1;"/></g><!--reverse link ReusableShapeDefinition to Shape--><g class="link" data-entity-1="ReusableShapeDefinition" data-entity-2="Shape" data-source-line="39" data-uid="lnk14" id="link_ReusableShapeDefinition_Shape"><path codeLine="39" d="M638.1436,401.8198 C667.8036,441.2498 699.65,483.59 726.17,518.84" fill="none" id="ReusableShapeDefinition-backto-Shape" style="stroke:#181818;stroke-width:1;"/><polygon fill="none" points="630.93,392.23,631.3402,399.4294,638.1436,401.8198,637.7334,394.6204,630.93,392.23" style="stroke:#181818;stroke-width:1;"/><text fill="#000000" font-family="sans-serif" font-size="13" lengthAdjust="spacing" textLength="63.6416" x="702" y="485.0669">prototype</text></g><!--link GeoEngine to ReusableShapeDefinition--><g class="link" data-entity-1="GeoEngine" data-entity-2="ReusableShapeDefinition" data-source-line="40" data-uid="lnk15" id="link_GeoEngine_ReusableShapeDefinition"><path codeLine="40" d="M624.25,191.81 C618.48,215.18 611.4183,243.7449 604.2183,272.9049" fill="none" id="GeoEngine-to-ReusableShapeDefinition" style="stroke:#181818;stroke-width:1;stroke-dasharray:7.0,7.0;"/><polygon fill="#181818" points="602.78,278.73,608.8208,270.9513,603.9786,273.8758,601.0541,269.0336,602.78,278.73" style="stroke:#181818;stroke-width:1;"/><text fill="#000000" font-family="sans-serif" font-size="13" lengthAdjust="spacing" textLength="29.7832" x="614" y="245.0669">uses</text></g><!--link GeoEngine to Shape--><g class="link" data-entity-1="GeoEngine" data-entity-2="Shape" data-source-line="41" data-uid="lnk16" id="link_GeoEngine_Shape"><path codeLine="41" d="M675.89,191.55 C704.99,211.73 740.76,242.12 759,279 C800.48,362.87 785.82,396.18 774,489 C772.76,498.77 772.0408,503.3131 769.6008,512.9631" fill="none" id="GeoEngine-to-Shape" style="stroke:#181818;stroke-width:1;stroke-dasharray:7.0,7.0;"/><polygon fill="#181818" points="768.13,518.78,774.2142,511.0351,769.3557,513.9326,766.4583,509.0741,768.13,518.78" style="stroke:#181818;stroke-width:1;"/><text fill="#000000" font-family="sans-serif" font-size="13" lengthAdjust="spacing" textLength="110.811" x="787" y="340.0669">creates via clone</text></g><!--link Clipboard to Shape--><g class="link" data-entity-1="Clipboard" data-entity-2="Shape" data-source-line="42" data-uid="lnk17" id="link_Clipboard_Shape"><path codeLine="42" d="M951.4,200.1 C934.76,258.26 896.98,375.97 842,464 C829.78,483.57 817.4338,498.4907 802.1738,514.4707" fill="none" id="Clipboard-to-Shape" style="stroke:#181818;stroke-width:1;stroke-dasharray:7.0,7.0;"/><polygon fill="#181818" points="798.03,518.81,807.1385,515.0636,801.4831,515.1939,801.3528,509.5386,798.03,518.81" style="stroke:#181818;stroke-width:1;"/><text fill="#000000" font-family="sans-serif" font-size="13" lengthAdjust="spacing" textLength="158.9961" x="926" y="340.0669">uses &amp; creates via clone</text></g><!--link GMN18 to Shape--><g class="link" data-entity-1="GMN18" data-entity-2="Shape" data-source-line="45" data-uid="lnk20" id="link_GMN18_Shape"><path d="M237.28,371.01 C284.69,398.97 354.98,437.87 420,464 C496.89,494.9 587.51,519.75 655.25,536.2" fill="none" id="GMN18-Shape" style="stroke:#181818;stroke-width:1;stroke-dasharray:7.0,7.0;"/></g><!--link ReusableShapeDefinition to GMN21--><g class="link" data-entity-1="ReusableShapeDefinition" data-entity-2="GMN21" data-source-line="52" data-uid="lnk23" id="link_ReusableShapeDefinition_GMN21"><path d="M700.32,278.99 C727.81,267.63 757.66,257.38 786.5,251.5 C942.41,219.72 989.71,214.67 1144.5,251.5 C1190.17,262.37 1237.52,287.87 1270,307.95" fill="none" id="ReusableShapeDefinition-GMN21" style="stroke:#181818;stroke-width:1;stroke-dasharray:7.0,7.0;"/></g><!--SRC=[dLJDQjj04BxhAGOVYariq_HeWg749HZQOkf3psDfB2sHTfRTKKfS-b9zXRvOPrUov9GOse8lqiv-loE7HsCTUcmWhp64zoBU75gXRSvsRqu4RxFA50JKE7c6Xfe3-P1bnWhv8-O4-meTmTtTphEmF3jQh-5x1d2JrsnfEbjr4yERhqQgp_HjMun7Fx8iaSD7OsbFPKDM5F6URUv9w1BPDAwcU1vwul_cUl3SkhFulwBwToQ7-IEM106BPUbRv_ZsTgbSuhckoIV4JiqNQWCUQafNDtGqreXXcoO05XORKbpjnfRT6tTMEYfHBLTWfjtDUJSwwsPBai7kfI7LVLRrGFp1bbfAh-F6rLhv2v8U6gB2EUnO5-FT1Xo7H3nBUDUIsDgZno2-pQNrT976VMtSWT4NPzv0CkrAO6zK4DQZYPVQbUjQbhnOz4skO3BaDyb6bylb-ceJAsW3XJ-6pt2wF2WKuCaWf7t8HWkNSn42thmodbaM0c47V1pSTEn1FpAZNvvmOK1_yGAUL18jKs1f7y7fEkNi5902YY1CWp84XkrcdWu7GRFXsiNIfX7RyXE22OBsf03nCTtN-NYyqwxqZs18gDCP58zi0T50RqChgYGQkPAbudsYHfiyAKrhiO-dxyGudaI55O5hV_rKFu5qEv9jzPMCQdu-9XGbKg-OHXs_0G00]--></g></svg>