<svg xmlns="http://www.w3.org/2000/svg" xmlns:xlink="http://www.w3.org/1999/xlink" contentStyleType="text/css" data-diagram-type="CLASS" height="528px" preserveAspectRatio="none" style="width:1085px;height:528px;background:#FFFFFF;" version="1.1" viewBox="0 0 1085 528" width="1085px" zoomAndPan="magnify"><defs/><g><!--cluster sad--><g class="cluster" data-entity="sad" data-source-line="17" data-uid="ent0005" id="cluster_sad"><path d="M300.05,6 L328.8518,6 A3.75,3.75 0 0 1 331.3518,8.5 L338.3518,28.2969 L1076.05,28.2969 A2.5,2.5 0 0 1 1078.55,30.7969 L1078.55,269.09 A2.5,2.5 0 0 1 1076.05,271.59 L300.05,271.59 A2.5,2.5 0 0 1 297.55,269.09 L297.55,8.5 A2.5,2.5 0 0 1 300.05,6" fill="none" style="stroke:#000000;stroke-width:1.5;"/><line style="stroke:#000000;stroke-width:1.5;" x1="297.55" x2="338.3518" y1="28.2969" y2="28.2969"/><text fill="#000000" font-family="sans-serif" font-size="14" font-weight="bold" lengthAdjust="spacing" textLength="27.8018" x="301.55" y="20.9951">sad</text></g><!--cluster gruppo11--><g class="cluster" data-entity="gruppo11" data-source-line="17" data-uid="ent0006" id="cluster_gruppo11"><path d="M324.05,49 L401.0861,49 A3.75,3.75 0 0 1 403.5861,51.5 L410.5861,71.2969 L1052.05,71.2969 A2.5,2.5 0 0 1 1054.55,73.7969 L1054.55,245.09 A2.5,2.5 0 0 1 1052.05,247.59 L324.05,247.59 A2.5,2.5 0 0 1 321.55,245.09 L321.55,51.5 A2.5,2.5 0 0 1 324.05,49" fill="none" style="stroke:#000000;stroke-width:1.5;"/><line style="stroke:#000000;stroke-width:1.5;" x1="321.55" x2="410.5861" y1="71.2969" y2="71.2969"/><text fill="#000000" font-family="sans-serif" font-size="14" font-weight="bold" lengthAdjust="spacing" textLength="76.0361" x="325.55" y="63.9951">gruppo11</text></g><!--cluster Infrastructure--><g class="cluster" data-entity="Infrastructure" data-source-line="16" data-uid="ent0003" id="cluster_Infrastructure"><path d="M348.05,92 L459.9221,92 A3.75,3.75 0 0 1 462.4221,94.5 L469.4221,114.2969 L1028.05,114.2969 A2.5,2.5 0 0 1 1030.55,116.7969 L1030.55,221.09 A2.5,2.5 0 0 1 1028.05,223.59 L348.05,223.59 A2.5,2.5 0 0 1 345.55,221.09 L345.55,94.5 A2.5,2.5 0 0 1 348.05,92" fill="none" style="stroke:#000000;stroke-width:1.5;"/><line style="stroke:#000000;stroke-width:1.5;" x1="345.55" x2="469.4221" y1="114.2969" y2="114.2969"/><text fill="#000000" font-family="sans-serif" font-size="14" font-weight="bold" lengthAdjust="spacing" textLength="110.8721" x="349.55" y="106.9951">Infrastructure</text></g><!--class CutShapeCommand--><g class="entity" data-entity="CutShapeCommand" data-source-line="17" data-uid="ent0004" id="entity_CutShapeCommand"><rect fill="#F1F1F1" height="80.5938" rx="2.5" ry="2.5" style="stroke:#181818;stroke-width:0.5;" width="312.0293" x="361.53" y="127"/><ellipse cx="443.3288" cy="143" fill="#ADD1B2" rx="11" ry="11" style="stroke:#181818;stroke-width:1;"/><path d="M446.2976,148.6406 Q445.7195,148.9375 445.0788,149.0781 Q444.4382,149.2344 443.7351,149.2344 Q441.2351,149.2344 439.907,147.5938 Q438.5945,145.9375 438.5945,142.8125 Q438.5945,139.6875 439.907,138.0313 Q441.2351,136.375 443.7351,136.375 Q444.4382,136.375 445.0788,136.5313 Q445.7351,136.6875 446.2976,136.9844 L446.2976,139.7031 Q445.6726,139.125 445.0788,138.8594 Q444.4851,138.5781 443.8601,138.5781 Q442.5163,138.5781 441.8288,139.6563 Q441.1413,140.7188 441.1413,142.8125 Q441.1413,144.9063 441.8288,145.9844 Q442.5163,147.0469 443.8601,147.0469 Q444.4851,147.0469 445.0788,146.7813 Q445.6726,146.5 446.2976,145.9219 L446.2976,148.6406 Z " fill="#000000"/><text fill="#000000" font-family="sans-serif" font-size="14" lengthAdjust="spacing" textLength="139.9316" x="463.8288" y="147.8467">CutShapeCommand</text><line style="stroke:#181818;stroke-width:0.5;" x1="362.53" x2="672.5593" y1="159" y2="159"/><text fill="#000000" font-family="sans-serif" font-size="14" lengthAdjust="spacing" textLength="146.3711" x="367.53" y="175.9951">-clipboard: Clipboard</text><line style="stroke:#181818;stroke-width:0.5;" x1="362.53" x2="672.5593" y1="183.2969" y2="183.2969"/><text fill="#000000" font-family="sans-serif" font-size="14" lengthAdjust="spacing" textLength="300.0293" x="367.53" y="200.292">+execute() { clipboard.set(shapeToCut); }</text></g><!--class PasteShapeCommand--><g class="entity" data-entity="PasteShapeCommand" data-source-line="22" data-uid="ent0007" id="entity_PasteShapeCommand"><rect fill="#F1F1F1" height="80.5938" rx="2.5" ry="2.5" style="stroke:#181818;stroke-width:0.5;" width="306.335" x="708.38" y="127"/><ellipse cx="780.1915" cy="143" fill="#ADD1B2" rx="11" ry="11" style="stroke:#181818;stroke-width:1;"/><path d="M783.1603,148.6406 Q782.5821,148.9375 781.9415,149.0781 Q781.3009,149.2344 780.5978,149.2344 Q778.0978,149.2344 776.7696,147.5938 Q775.4571,145.9375 775.4571,142.8125 Q775.4571,139.6875 776.7696,138.0313 Q778.0978,136.375 780.5978,136.375 Q781.3009,136.375 781.9415,136.5313 Q782.5978,136.6875 783.1603,136.9844 L783.1603,139.7031 Q782.5353,139.125 781.9415,138.8594 Q781.3478,138.5781 780.7228,138.5781 Q779.379,138.5781 778.6915,139.6563 Q778.004,140.7188 778.004,142.8125 Q778.004,144.9063 778.6915,145.9844 Q779.379,147.0469 780.7228,147.0469 Q781.3478,147.0469 781.9415,146.7813 Q782.5353,146.5 783.1603,145.9219 L783.1603,148.6406 Z " fill="#000000"/><text fill="#000000" font-family="sans-serif" font-size="14" lengthAdjust="spacing" textLength="154.2119" x="800.6915" y="147.8467">PasteShapeCommand</text><line style="stroke:#181818;stroke-width:0.5;" x1="709.38" x2="1013.715" y1="159" y2="159"/><text fill="#000000" font-family="sans-serif" font-size="14" lengthAdjust="spacing" textLength="146.3711" x="714.38" y="175.9951">-clipboard: Clipboard</text><line style="stroke:#181818;stroke-width:0.5;" x1="709.38" x2="1013.715" y1="183.2969" y2="183.2969"/><text fill="#000000" font-family="sans-serif" font-size="14" lengthAdjust="spacing" textLength="294.335" x="714.38" y="200.292">+execute() { Shape s = clipboard.get(); }</text></g><!--class Clipboard--><g class="entity" data-entity="Clipboard" data-source-line="4" data-uid="ent0002" id="entity_Clipboard"><rect fill="#F1F1F1" height="186.6406" rx="2.5" ry="2.5" style="stroke:#181818;stroke-width:0.5;" width="193.4736" x="420.81" y="334.59"/><ellipse cx="479.6835" cy="354.7228" fill="#ADD1B2" rx="11" ry="11" style="stroke:#181818;stroke-width:1;"/><path d="M482.6523,360.3634 Q482.0742,360.6603 481.4335,360.8009 Q480.7929,360.9572 480.0898,360.9572 Q477.5898,360.9572 476.2617,359.3166 Q474.9492,357.6603 474.9492,354.5353 Q474.9492,351.4103 476.2617,349.7541 Q477.5898,348.0978 480.0898,348.0978 Q480.7929,348.0978 481.4335,348.2541 Q482.0898,348.4103 482.6523,348.7072 L482.6523,351.4259 Q482.0273,350.8478 481.4335,350.5822 Q480.8398,350.3009 480.2148,350.3009 Q478.871,350.3009 478.1835,351.3791 Q477.496,352.4416 477.496,354.5353 Q477.496,356.6291 478.1835,357.7072 Q478.871,358.7697 480.2148,358.7697 Q480.8398,358.7697 481.4335,358.5041 Q482.0273,358.2228 482.6523,357.6447 L482.6523,360.3634 Z " fill="#000000"/><text fill="#000000" font-family="sans-serif" font-size="12" font-style="italic" lengthAdjust="spacing" textLength="71.2266" x="498.1835" y="350.7287">&#171;Singleton&#187;</text><text fill="#000000" font-family="sans-serif" font-size="14" lengthAdjust="spacing" textLength="67.1152" x="500.2392" y="366.5539">Clipboard</text><line style="stroke:#181818;stroke-width:0.5;" x1="421.81" x2="613.2836" y1="374.8556" y2="374.8556"/><text fill="#000000" font-family="sans-serif" font-size="14" lengthAdjust="spacing" text-decoration="underline" textLength="140.6426" x="426.81" y="391.8507">-instance: Clipboard</text><text fill="#000000" font-family="sans-serif" font-size="14" lengthAdjust="spacing" textLength="111.6582" x="426.81" y="408.1476">-content: Shape</text><line style="stroke:#181818;stroke-width:1;" x1="421.81" x2="613.2836" y1="415.4494" y2="415.4494"/><text fill="#000000" font-family="sans-serif" font-size="14" lengthAdjust="spacing" textLength="83.0908" x="426.81" y="432.4445">-Clipboard()</text><text fill="#000000" font-family="sans-serif" font-size="14" lengthAdjust="spacing" text-decoration="underline" textLength="181.4736" x="426.81" y="448.7414">+getInstance(): Clipboard</text><text fill="#000000" font-family="sans-serif" font-size="14" lengthAdjust="spacing" textLength="87.8896" x="426.81" y="465.0382">+set(Shape)</text><text fill="#000000" font-family="sans-serif" font-size="14" lengthAdjust="spacing" textLength="98.6494" x="426.81" y="481.3351">+get(): Shape</text><text fill="#000000" font-family="sans-serif" font-size="14" lengthAdjust="spacing" textLength="144.1221" x="426.81" y="497.632">+isEmpty(): boolean</text><text fill="#000000" font-family="sans-serif" font-size="14" lengthAdjust="spacing" textLength="57.1895" x="426.81" y="513.9289">+clear()</text></g><g class="entity" data-entity="GMN10" data-source-line="33" data-uid="ent0011" id="entity_GMN10"><path d="M6,132.03 L6,202.5613 A0,0 0 0 0 6,202.5613 L189.6,202.5613 L420.58,359.86 L197.6,202.5613 L281.0967,202.5613 A0,0 0 0 0 281.0967,202.5613 L281.0967,142.03 L271.0967,132.03 L6,132.03 A0,0 0 0 0 6,132.03" fill="#FEFFDD" style="stroke:#181818;stroke-width:0.5;"/><path d="M271.0967,132.03 L271.0967,142.03 L281.0967,142.03 L271.0967,132.03" fill="#FEFFDD" style="stroke:#181818;stroke-width:0.5;"/><text fill="#000000" font-family="sans-serif" font-size="13" lengthAdjust="spacing" textLength="184.4756" x="12" y="149.0969">Assicura una singola istanza</text><text fill="#000000" font-family="sans-serif" font-size="13" lengthAdjust="spacing" textLength="254.0967" x="12" y="164.2297">e fornisce un punto di accesso globale.</text><text fill="#000000" font-family="sans-serif" font-size="13" lengthAdjust="spacing" textLength="128.1592" x="12" y="179.3625">Costruttore privato.</text><text fill="#000000" font-family="sans-serif" font-size="13" lengthAdjust="spacing" textLength="191.2993" x="12" y="194.4953">Metodo statico getInstance().</text></g><!--link CutShapeCommand to Clipboard--><g class="link" data-entity-1="CutShapeCommand" data-entity-2="Clipboard" data-source-line="29" data-uid="lnk8" id="link_CutShapeCommand_Clipboard"><path codeLine="29" d="M517.55,207.85 C517.55,241.39 517.55,284.81 517.55,328.23" fill="none" id="CutShapeCommand-to-Clipboard" style="stroke:#181818;stroke-width:1;stroke-dasharray:7.0,7.0;"/><polygon fill="#181818" points="517.55,334.23,521.55,325.23,517.55,329.23,513.55,325.23,517.55,334.23" style="stroke:#181818;stroke-width:1;"/><text fill="#000000" font-family="sans-serif" font-size="13" lengthAdjust="spacing" textLength="29.7832" x="518.55" y="300.6569">uses</text></g><!--link PasteShapeCommand to Clipboard--><g class="link" data-entity-1="PasteShapeCommand" data-entity-2="Clipboard" data-source-line="30" data-uid="lnk9" id="link_PasteShapeCommand_Clipboard"><path codeLine="30" d="M808.93,207.85 C757.36,246.62 682.3254,303.0239 619.2654,350.4439" fill="none" id="PasteShapeCommand-to-Clipboard" style="stroke:#181818;stroke-width:1;stroke-dasharray:7.0,7.0;"/><polygon fill="#181818" points="614.47,354.05,624.0672,351.8378,618.4662,351.0449,619.2591,345.4439,614.47,354.05" style="stroke:#181818;stroke-width:1;"/><text fill="#000000" font-family="sans-serif" font-size="13" lengthAdjust="spacing" textLength="29.7832" x="700.55" y="300.6569">uses</text></g><!--SRC=[hLBDRjim3BxhANXRWg36Uisw04NGGmu31cGlGCkCAzGM1P4UkXPzzv5EKdX_jnqiMDIdxqUaFALSiE88SK2HUzMQsadf43aVqml1n_2OEW8QY_w0aSQMgeGmWs4_fD8orWxkxeufzmCfvzqENWF0JSgYc2Dj5x1NAscARtvk0afPjt1yn49UkV7b7RnQstRJanukHAlrFwWsGhgQMQvN77gbtIHvSFDUQva7mkpLQ3_LDDv2A1YVi2SGx9g-JgNmxMrpoAUAedMAEbMQ8rr2JpfJxtaSCPiH21_SbsK1UiQn3AuAdl1gTk7xVBIXPuhsogkrNN-7DPv3dFiRcyhw4tWw_oxINyqG_L_ncGq4FYzip0zu5hV57kZto4spMtHY2vEGX3_D_HKMCYk1SW4-_UBiNYJ5gI9C6K5icdX0IDxw5xHZWXFNd2II0Q1CMHcw11WZYJ3q0xSuK6F8FNlRLDdQLchwZifU_cB3sJ6SnyOkB0Uh2MH-tTbF]--></g></svg>