<svg xmlns="http://www.w3.org/2000/svg" xmlns:xlink="http://www.w3.org/1999/xlink" contentStyleType="text/css" data-diagram-type="CLASS" height="763px" preserveAspectRatio="none" style="width:2686px;height:763px;background:#FFFFFF;" version="1.1" viewBox="0 0 2686 763" width="2686px" zoomAndPan="magnify"><defs/><g><!--cluster sad--><g class="cluster" data-entity="sad" data-source-line="52" data-uid="ent0020" id="cluster_sad"><path d="M1417.68,6 L1446.4818,6 A3.75,3.75 0 0 1 1448.9818,8.5 L1455.9818,28.2969 L1940.68,28.2969 A2.5,2.5 0 0 1 1943.18,30.7969 L1943.18,269.09 A2.5,2.5 0 0 1 1940.68,271.59 L1417.68,271.59 A2.5,2.5 0 0 1 1415.18,269.09 L1415.18,8.5 A2.5,2.5 0 0 1 1417.68,6" fill="none" style="stroke:#000000;stroke-width:1.5;"/><line style="stroke:#000000;stroke-width:1.5;" x1="1415.18" x2="1455.9818" y1="28.2969" y2="28.2969"/><text fill="#000000" font-family="sans-serif" font-size="14" font-weight="bold" lengthAdjust="spacing" textLength="27.8018" x="1419.18" y="20.9951">sad</text></g><!--cluster gruppo11--><g class="cluster" data-entity="gruppo11" data-source-line="52" data-uid="ent0021" id="cluster_gruppo11"><path d="M1441.68,49 L1518.7161,49 A3.75,3.75 0 0 1 1521.2161,51.5 L1528.2161,71.2969 L1916.68,71.2969 A2.5,2.5 0 0 1 1919.18,73.7969 L1919.18,245.09 A2.5,2.5 0 0 1 1916.68,247.59 L1441.68,247.59 A2.5,2.5 0 0 1 1439.18,245.09 L1439.18,51.5 A2.5,2.5 0 0 1 1441.68,49" fill="none" style="stroke:#000000;stroke-width:1.5;"/><line style="stroke:#000000;stroke-width:1.5;" x1="1439.18" x2="1528.2161" y1="71.2969" y2="71.2969"/><text fill="#000000" font-family="sans-serif" font-size="14" font-weight="bold" lengthAdjust="spacing" textLength="76.0361" x="1443.18" y="63.9951">gruppo11</text></g><!--cluster View--><g class="cluster" data-entity="View" data-source-line="51" data-uid="ent0018" id="cluster_View"><path d="M1465.68,92 L1504.7425,92 A3.75,3.75 0 0 1 1507.2425,94.5 L1514.2425,114.2969 L1892.68,114.2969 A2.5,2.5 0 0 1 1895.18,116.7969 L1895.18,221.09 A2.5,2.5 0 0 1 1892.68,223.59 L1465.68,223.59 A2.5,2.5 0 0 1 1463.18,221.09 L1463.18,94.5 A2.5,2.5 0 0 1 1465.68,92" fill="none" style="stroke:#000000;stroke-width:1.5;"/><line style="stroke:#000000;stroke-width:1.5;" x1="1463.18" x2="1514.2425" y1="114.2969" y2="114.2969"/><text fill="#000000" font-family="sans-serif" font-size="14" font-weight="bold" lengthAdjust="spacing" textLength="38.0625" x="1467.18" y="106.9951">View</text></g><!--class CanvasPanel--><g class="entity" data-entity="CanvasPanel" data-source-line="52" data-uid="ent0019" id="entity_CanvasPanel"><rect fill="#F1F1F1" height="80.5938" rx="2.5" ry="2.5" style="stroke:#181818;stroke-width:0.5;" width="399.6865" x="1479.33" y="127"/><ellipse cx="1630.0317" cy="143" fill="#ADD1B2" rx="11" ry="11" style="stroke:#181818;stroke-width:1;"/><path d="M1633.0004,148.6406 Q1632.4223,148.9375 1631.7817,149.0781 Q1631.141,149.2344 1630.4379,149.2344 Q1627.9379,149.2344 1626.6098,147.5938 Q1625.2973,145.9375 1625.2973,142.8125 Q1625.2973,139.6875 1626.6098,138.0313 Q1627.9379,136.375 1630.4379,136.375 Q1631.141,136.375 1631.7817,136.5313 Q1632.4379,136.6875 1633.0004,136.9844 L1633.0004,139.7031 Q1632.3754,139.125 1631.7817,138.8594 Q1631.1879,138.5781 1630.5629,138.5781 Q1629.2192,138.5781 1628.5317,139.6563 Q1627.8442,140.7188 1627.8442,142.8125 Q1627.8442,144.9063 1628.5317,145.9844 Q1629.2192,147.0469 1630.5629,147.0469 Q1631.1879,147.0469 1631.7817,146.7813 Q1632.3754,146.5 1633.0004,145.9219 L1633.0004,148.6406 Z " fill="#000000"/><text fill="#000000" font-family="sans-serif" font-size="14" lengthAdjust="spacing" textLength="89.7832" x="1650.5317" y="147.8467">CanvasPanel</text><line style="stroke:#181818;stroke-width:0.5;" x1="1480.33" x2="1878.0165" y1="159" y2="159"/><text fill="#000000" font-family="sans-serif" font-size="14" lengthAdjust="spacing" textLength="230.9795" x="1485.33" y="175.9951">-renderer: JavaFXShapeRenderer</text><line style="stroke:#181818;stroke-width:0.5;" x1="1480.33" x2="1878.0165" y1="183.2969" y2="183.2969"/><text fill="#000000" font-family="sans-serif" font-size="14" lengthAdjust="spacing" textLength="387.6865" x="1485.33" y="200.292">+drawShapes(shapes: Iterable&lt;Shape&gt;, focus: Shape)</text></g><!--class ShapeVisitor--><g class="entity" data-entity="ShapeVisitor" data-source-line="4" data-uid="ent0002" id="entity_ShapeVisitor"><rect fill="#F1F1F1" height="146.0469" rx="2.5" ry="2.5" style="stroke:#181818;stroke-width:0.5;" width="187.916" x="944.22" y="94.27"/><ellipse cx="989.7781" cy="114.4028" fill="#B4A7E5" rx="11" ry="11" style="stroke:#181818;stroke-width:1;"/><path d="M985.7,110.1684 L985.7,108.0122 L993.0906,108.0122 L993.0906,110.1684 L990.6219,110.1684 L990.6219,118.2466 L993.0906,118.2466 L993.0906,120.4028 L985.7,120.4028 L985.7,118.2466 L988.1687,118.2466 L988.1687,110.1684 L985.7,110.1684 Z " fill="#000000"/><text fill="#000000" font-family="sans-serif" font-size="12" font-style="italic" lengthAdjust="spacing" textLength="52.793" x="1028.0315" y="110.4087">&#171;Visitor&#187;</text><text fill="#000000" font-family="sans-serif" font-size="14" font-style="italic" lengthAdjust="spacing" textLength="88.2998" x="1010.2781" y="126.2339">ShapeVisitor</text><line style="stroke:#181818;stroke-width:0.5;" x1="945.22" x2="1131.136" y1="134.5356" y2="134.5356"/><text fill="#000000" font-family="sans-serif" font-size="14" lengthAdjust="spacing" textLength="175.916" x="950.22" y="151.5307">+visit(RectangleShape r)</text><text fill="#000000" font-family="sans-serif" font-size="14" lengthAdjust="spacing" textLength="153.7129" x="950.22" y="167.8276">+visit(EllipseShape e)</text><text fill="#000000" font-family="sans-serif" font-size="14" lengthAdjust="spacing" textLength="152.0176" x="950.22" y="184.1245">+visit(LineSegment l)</text><text fill="#000000" font-family="sans-serif" font-size="14" lengthAdjust="spacing" textLength="164.1855" x="950.22" y="200.4214">+visit(PolygonShape p)</text><text fill="#000000" font-family="sans-serif" font-size="14" lengthAdjust="spacing" textLength="136.2197" x="950.22" y="216.7182">+visit(TextShape t)</text><text fill="#000000" font-family="sans-serif" font-size="14" lengthAdjust="spacing" textLength="151.6074" x="950.22" y="233.0151">+visit(GroupShape g)</text></g><!--class JavaFXShapeRenderer--><g class="entity" data-entity="JavaFXShapeRenderer" data-source-line="13" data-uid="ent0003" id="entity_JavaFXShapeRenderer"><rect fill="#F1F1F1" height="170.3438" rx="2.5" ry="2.5" style="stroke:#181818;stroke-width:0.5;" width="187.916" x="1181.22" y="318.59"/><ellipse cx="1196.2301" cy="338.7228" fill="#ADD1B2" rx="11" ry="11" style="stroke:#181818;stroke-width:1;"/><path d="M1199.1989,344.3634 Q1198.6207,344.6603 1197.9801,344.8009 Q1197.3395,344.9572 1196.6364,344.9572 Q1194.1364,344.9572 1192.8082,343.3166 Q1191.4957,341.6603 1191.4957,338.5353 Q1191.4957,335.4103 1192.8082,333.7541 Q1194.1364,332.0978 1196.6364,332.0978 Q1197.3395,332.0978 1197.9801,332.2541 Q1198.6364,332.4103 1199.1989,332.7072 L1199.1989,335.4259 Q1198.5739,334.8478 1197.9801,334.5822 Q1197.3864,334.3009 1196.7614,334.3009 Q1195.4176,334.3009 1194.7301,335.3791 Q1194.0426,336.4416 1194.0426,338.5353 Q1194.0426,340.6291 1194.7301,341.7072 Q1195.4176,342.7697 1196.7614,342.7697 Q1197.3864,342.7697 1197.9801,342.5041 Q1198.5739,342.2228 1199.1989,341.6447 L1199.1989,344.3634 Z " fill="#000000"/><text fill="#000000" font-family="sans-serif" font-size="12" font-style="italic" lengthAdjust="spacing" textLength="107.1211" x="1234.6186" y="334.7287">&#171;ConcreteVisitor&#187;</text><text fill="#000000" font-family="sans-serif" font-size="14" lengthAdjust="spacing" textLength="155.8936" x="1210.2324" y="350.5539">JavaFXShapeRenderer</text><line style="stroke:#181818;stroke-width:0.5;" x1="1182.22" x2="1368.136" y1="358.8556" y2="358.8556"/><text fill="#000000" font-family="sans-serif" font-size="14" lengthAdjust="spacing" textLength="147.7178" x="1187.22" y="375.8507">-gc: GraphicsContext</text><line style="stroke:#181818;stroke-width:0.5;" x1="1182.22" x2="1368.136" y1="383.1525" y2="383.1525"/><text fill="#000000" font-family="sans-serif" font-size="14" lengthAdjust="spacing" textLength="175.916" x="1187.22" y="400.1476">+visit(RectangleShape r)</text><text fill="#000000" font-family="sans-serif" font-size="14" lengthAdjust="spacing" textLength="153.7129" x="1187.22" y="416.4445">+visit(EllipseShape e)</text><text fill="#000000" font-family="sans-serif" font-size="14" lengthAdjust="spacing" textLength="152.0176" x="1187.22" y="432.7414">+visit(LineSegment l)</text><text fill="#000000" font-family="sans-serif" font-size="14" lengthAdjust="spacing" textLength="164.1855" x="1187.22" y="449.0382">+visit(PolygonShape p)</text><text fill="#000000" font-family="sans-serif" font-size="14" lengthAdjust="spacing" textLength="136.2197" x="1187.22" y="465.3351">+visit(TextShape t)</text><text fill="#000000" font-family="sans-serif" font-size="14" lengthAdjust="spacing" textLength="151.6074" x="1187.22" y="481.632">+visit(GroupShape g)</text></g><!--class Shape--><g class="entity" data-entity="Shape" data-source-line="23" data-uid="ent0005" id="entity_Shape"><rect fill="#F1F1F1" height="64.5625" rx="2.5" ry="2.5" style="stroke:#181818;stroke-width:0.5;" width="217.5361" x="1284.41" y="565.94"/><ellipse cx="1358.7454" cy="586.0728" fill="#B4A7E5" rx="11" ry="11" style="stroke:#181818;stroke-width:1;"/><path d="M1354.6673,581.8384 L1354.6673,579.6822 L1362.0579,579.6822 L1362.0579,581.8384 L1359.5892,581.8384 L1359.5892,589.9166 L1362.0579,589.9166 L1362.0579,592.0728 L1354.6673,592.0728 L1354.6673,589.9166 L1357.1361,589.9166 L1357.1361,581.8384 L1354.6673,581.8384 Z " fill="#000000"/><text fill="#000000" font-family="sans-serif" font-size="12" font-style="italic" lengthAdjust="spacing" textLength="64.3652" x="1377.2454" y="582.0787">&#171;Element&#187;</text><text fill="#000000" font-family="sans-serif" font-size="14" font-style="italic" lengthAdjust="spacing" textLength="43.8389" x="1387.5086" y="597.9039">Shape</text><line style="stroke:#181818;stroke-width:0.5;" x1="1285.41" x2="1500.9461" y1="606.2056" y2="606.2056"/><text fill="#000000" font-family="sans-serif" font-size="14" lengthAdjust="spacing" textLength="205.5361" x="1290.41" y="623.2007">+accept(ShapeVisitor visitor)</text></g><!--class RectangleShape--><g class="entity" data-entity="RectangleShape" data-source-line="27" data-uid="ent0006" id="entity_RectangleShape"><rect fill="#F1F1F1" height="64.5625" rx="2.5" ry="2.5" style="stroke:#181818;stroke-width:0.5;" width="366.3545" x="7" y="691.5"/><ellipse cx="128.5806" cy="711.6328" fill="#ADD1B2" rx="11" ry="11" style="stroke:#181818;stroke-width:1;"/><path d="M131.5493,717.2734 Q130.9712,717.5703 130.3306,717.7109 Q129.6899,717.8672 128.9868,717.8672 Q126.4868,717.8672 125.1587,716.2266 Q123.8462,714.5703 123.8462,711.4453 Q123.8462,708.3203 125.1587,706.6641 Q126.4868,705.0078 128.9868,705.0078 Q129.6899,705.0078 130.3306,705.1641 Q130.9868,705.3203 131.5493,705.6172 L131.5493,708.3359 Q130.9243,707.7578 130.3306,707.4922 Q129.7368,707.2109 129.1118,707.2109 Q127.7681,707.2109 127.0806,708.2891 Q126.3931,709.3516 126.3931,711.4453 Q126.3931,713.5391 127.0806,714.6172 Q127.7681,715.6797 129.1118,715.6797 Q129.7368,715.6797 130.3306,715.4141 Q130.9243,715.1328 131.5493,714.5547 L131.5493,717.2734 Z " fill="#000000"/><text fill="#000000" font-family="sans-serif" font-size="12" font-style="italic" lengthAdjust="spacing" textLength="118.6934" x="147.0806" y="707.6387">&#171;ConcreteElement&#187;</text><text fill="#000000" font-family="sans-serif" font-size="14" lengthAdjust="spacing" textLength="114.208" x="149.3232" y="723.4639">RectangleShape</text><line style="stroke:#181818;stroke-width:0.5;" x1="8" x2="372.3545" y1="731.7656" y2="731.7656"/><text fill="#000000" font-family="sans-serif" font-size="14" lengthAdjust="spacing" textLength="354.3545" x="13" y="748.7607">+accept(ShapeVisitor visitor) { visitor.visit(this); }</text></g><!--class EllipseShape--><g class="entity" data-entity="EllipseShape" data-source-line="31" data-uid="ent0008" id="entity_EllipseShape"><rect fill="#F1F1F1" height="64.5625" rx="2.5" ry="2.5" style="stroke:#181818;stroke-width:0.5;" width="366.3545" x="408" y="691.5"/><ellipse cx="529.5806" cy="711.6328" fill="#ADD1B2" rx="11" ry="11" style="stroke:#181818;stroke-width:1;"/><path d="M532.5493,717.2734 Q531.9712,717.5703 531.3306,717.7109 Q530.6899,717.8672 529.9868,717.8672 Q527.4868,717.8672 526.1587,716.2266 Q524.8462,714.5703 524.8462,711.4453 Q524.8462,708.3203 526.1587,706.6641 Q527.4868,705.0078 529.9868,705.0078 Q530.6899,705.0078 531.3306,705.1641 Q531.9868,705.3203 532.5493,705.6172 L532.5493,708.3359 Q531.9243,707.7578 531.3306,707.4922 Q530.7368,707.2109 530.1118,707.2109 Q528.7681,707.2109 528.0806,708.2891 Q527.3931,709.3516 527.3931,711.4453 Q527.3931,713.5391 528.0806,714.6172 Q528.7681,715.6797 530.1118,715.6797 Q530.7368,715.6797 531.3306,715.4141 Q531.9243,715.1328 532.5493,714.5547 L532.5493,717.2734 Z " fill="#000000"/><text fill="#000000" font-family="sans-serif" font-size="12" font-style="italic" lengthAdjust="spacing" textLength="118.6934" x="548.0806" y="707.6387">&#171;ConcreteElement&#187;</text><text fill="#000000" font-family="sans-serif" font-size="14" lengthAdjust="spacing" textLength="89.1475" x="562.8535" y="723.4639">EllipseShape</text><line style="stroke:#181818;stroke-width:0.5;" x1="409" x2="773.3545" y1="731.7656" y2="731.7656"/><text fill="#000000" font-family="sans-serif" font-size="14" lengthAdjust="spacing" textLength="354.3545" x="414" y="748.7607">+accept(ShapeVisitor visitor) { visitor.visit(this); }</text></g><!--class LineSegment--><g class="entity" data-entity="LineSegment" data-source-line="35" data-uid="ent0010" id="entity_LineSegment"><rect fill="#F1F1F1" height="64.5625" rx="2.5" ry="2.5" style="stroke:#181818;stroke-width:0.5;" width="366.3545" x="809" y="691.5"/><ellipse cx="930.5806" cy="711.6328" fill="#ADD1B2" rx="11" ry="11" style="stroke:#181818;stroke-width:1;"/><path d="M933.5493,717.2734 Q932.9712,717.5703 932.3306,717.7109 Q931.6899,717.8672 930.9868,717.8672 Q928.4868,717.8672 927.1587,716.2266 Q925.8462,714.5703 925.8462,711.4453 Q925.8462,708.3203 927.1587,706.6641 Q928.4868,705.0078 930.9868,705.0078 Q931.6899,705.0078 932.3306,705.1641 Q932.9868,705.3203 933.5493,705.6172 L933.5493,708.3359 Q932.9243,707.7578 932.3306,707.4922 Q931.7368,707.2109 931.1118,707.2109 Q929.7681,707.2109 929.0806,708.2891 Q928.3931,709.3516 928.3931,711.4453 Q928.3931,713.5391 929.0806,714.6172 Q929.7681,715.6797 931.1118,715.6797 Q931.7368,715.6797 932.3306,715.4141 Q932.9243,715.1328 933.5493,714.5547 L933.5493,717.2734 Z " fill="#000000"/><text fill="#000000" font-family="sans-serif" font-size="12" font-style="italic" lengthAdjust="spacing" textLength="118.6934" x="949.0806" y="707.6387">&#171;ConcreteElement&#187;</text><text fill="#000000" font-family="sans-serif" font-size="14" lengthAdjust="spacing" textLength="92.1758" x="962.3394" y="723.4639">LineSegment</text><line style="stroke:#181818;stroke-width:0.5;" x1="810" x2="1174.3545" y1="731.7656" y2="731.7656"/><text fill="#000000" font-family="sans-serif" font-size="14" lengthAdjust="spacing" textLength="354.3545" x="815" y="748.7607">+accept(ShapeVisitor visitor) { visitor.visit(this); }</text></g><!--class PolygonShape--><g class="entity" data-entity="PolygonShape" data-source-line="39" data-uid="ent0012" id="entity_PolygonShape"><rect fill="#F1F1F1" height="64.5625" rx="2.5" ry="2.5" style="stroke:#181818;stroke-width:0.5;" width="366.3545" x="1210" y="691.5"/><ellipse cx="1331.5806" cy="711.6328" fill="#ADD1B2" rx="11" ry="11" style="stroke:#181818;stroke-width:1;"/><path d="M1334.5493,717.2734 Q1333.9712,717.5703 1333.3306,717.7109 Q1332.6899,717.8672 1331.9868,717.8672 Q1329.4868,717.8672 1328.1587,716.2266 Q1326.8462,714.5703 1326.8462,711.4453 Q1326.8462,708.3203 1328.1587,706.6641 Q1329.4868,705.0078 1331.9868,705.0078 Q1332.6899,705.0078 1333.3306,705.1641 Q1333.9868,705.3203 1334.5493,705.6172 L1334.5493,708.3359 Q1333.9243,707.7578 1333.3306,707.4922 Q1332.7368,707.2109 1332.1118,707.2109 Q1330.7681,707.2109 1330.0806,708.2891 Q1329.3931,709.3516 1329.3931,711.4453 Q1329.3931,713.5391 1330.0806,714.6172 Q1330.7681,715.6797 1332.1118,715.6797 Q1332.7368,715.6797 1333.3306,715.4141 Q1333.9243,715.1328 1334.5493,714.5547 L1334.5493,717.2734 Z " fill="#000000"/><text fill="#000000" font-family="sans-serif" font-size="12" font-style="italic" lengthAdjust="spacing" textLength="118.6934" x="1350.0806" y="707.6387">&#171;ConcreteElement&#187;</text><text fill="#000000" font-family="sans-serif" font-size="14" lengthAdjust="spacing" textLength="99.3467" x="1359.7539" y="723.4639">PolygonShape</text><line style="stroke:#181818;stroke-width:0.5;" x1="1211" x2="1575.3545" y1="731.7656" y2="731.7656"/><text fill="#000000" font-family="sans-serif" font-size="14" lengthAdjust="spacing" textLength="354.3545" x="1216" y="748.7607">+accept(ShapeVisitor visitor) { visitor.visit(this); }</text></g><!--class TextShape--><g class="entity" data-entity="TextShape" data-source-line="43" data-uid="ent0014" id="entity_TextShape"><rect fill="#F1F1F1" height="64.5625" rx="2.5" ry="2.5" style="stroke:#181818;stroke-width:0.5;" width="366.3545" x="1611" y="691.5"/><ellipse cx="1732.5806" cy="711.6328" fill="#ADD1B2" rx="11" ry="11" style="stroke:#181818;stroke-width:1;"/><path d="M1735.5493,717.2734 Q1734.9712,717.5703 1734.3306,717.7109 Q1733.6899,717.8672 1732.9868,717.8672 Q1730.4868,717.8672 1729.1587,716.2266 Q1727.8462,714.5703 1727.8462,711.4453 Q1727.8462,708.3203 1729.1587,706.6641 Q1730.4868,705.0078 1732.9868,705.0078 Q1733.6899,705.0078 1734.3306,705.1641 Q1734.9868,705.3203 1735.5493,705.6172 L1735.5493,708.3359 Q1734.9243,707.7578 1734.3306,707.4922 Q1733.7368,707.2109 1733.1118,707.2109 Q1731.7681,707.2109 1731.0806,708.2891 Q1730.3931,709.3516 1730.3931,711.4453 Q1730.3931,713.5391 1731.0806,714.6172 Q1731.7681,715.6797 1733.1118,715.6797 Q1733.7368,715.6797 1734.3306,715.4141 Q1734.9243,715.1328 1735.5493,714.5547 L1735.5493,717.2734 Z " fill="#000000"/><text fill="#000000" font-family="sans-serif" font-size="12" font-style="italic" lengthAdjust="spacing" textLength="118.6934" x="1751.0806" y="707.6387">&#171;ConcreteElement&#187;</text><text fill="#000000" font-family="sans-serif" font-size="14" lengthAdjust="spacing" textLength="74.7783" x="1773.0381" y="723.4639">TextShape</text><line style="stroke:#181818;stroke-width:0.5;" x1="1612" x2="1976.3545" y1="731.7656" y2="731.7656"/><text fill="#000000" font-family="sans-serif" font-size="14" lengthAdjust="spacing" textLength="354.3545" x="1617" y="748.7607">+accept(ShapeVisitor visitor) { visitor.visit(this); }</text></g><!--class GroupShape--><g class="entity" data-entity="GroupShape" data-source-line="47" data-uid="ent0016" id="entity_GroupShape"><rect fill="#F1F1F1" height="64.5625" rx="2.5" ry="2.5" style="stroke:#181818;stroke-width:0.5;" width="366.3545" x="2012" y="691.5"/><ellipse cx="2133.5806" cy="711.6328" fill="#ADD1B2" rx="11" ry="11" style="stroke:#181818;stroke-width:1;"/><path d="M2136.5493,717.2734 Q2135.9712,717.5703 2135.3306,717.7109 Q2134.6899,717.8672 2133.9868,717.8672 Q2131.4868,717.8672 2130.1587,716.2266 Q2128.8462,714.5703 2128.8462,711.4453 Q2128.8462,708.3203 2130.1587,706.6641 Q2131.4868,705.0078 2133.9868,705.0078 Q2134.6899,705.0078 2135.3306,705.1641 Q2135.9868,705.3203 2136.5493,705.6172 L2136.5493,708.3359 Q2135.9243,707.7578 2135.3306,707.4922 Q2134.7368,707.2109 2134.1118,707.2109 Q2132.7681,707.2109 2132.0806,708.2891 Q2131.3931,709.3516 2131.3931,711.4453 Q2131.3931,713.5391 2132.0806,714.6172 Q2132.7681,715.6797 2134.1118,715.6797 Q2134.7368,715.6797 2135.3306,715.4141 Q2135.9243,715.1328 2136.5493,714.5547 L2136.5493,717.2734 Z " fill="#000000"/><text fill="#000000" font-family="sans-serif" font-size="12" font-style="italic" lengthAdjust="spacing" textLength="118.6934" x="2152.0806" y="707.6387">&#171;ConcreteElement&#187;</text><text fill="#000000" font-family="sans-serif" font-size="14" lengthAdjust="spacing" textLength="86.7686" x="2168.043" y="723.4639">GroupShape</text><line style="stroke:#181818;stroke-width:0.5;" x1="2013" x2="2377.3545" y1="731.7656" y2="731.7656"/><text fill="#000000" font-family="sans-serif" font-size="14" lengthAdjust="spacing" textLength="354.3545" x="2018" y="748.7607">+accept(ShapeVisitor visitor) { visitor.visit(this); }</text></g><g class="entity" data-entity="GMN26" data-source-line="64" data-uid="ent0027" id="entity_GMN26"><path d="M1167.09,147.16 L1167.09,163.29 L1132.44,167.29 L1167.09,171.29 L1167.09,187.4256 A0,0 0 0 0 1167.09,187.4256 L1399.2638,187.4256 A0,0 0 0 0 1399.2638,187.4256 L1399.2638,157.16 L1389.2638,147.16 L1167.09,147.16 A0,0 0 0 0 1167.09,147.16" fill="#FEFFDD" style="stroke:#181818;stroke-width:0.5;"/><path d="M1389.2638,147.16 L1389.2638,157.16 L1399.2638,157.16 L1389.2638,147.16" fill="#FEFFDD" style="stroke:#181818;stroke-width:0.5;"/><text fill="#000000" font-family="sans-serif" font-size="13" lengthAdjust="spacing" textLength="211.1738" x="1173.09" y="164.2269">Definisce un'operazione di visita</text><text fill="#000000" font-family="sans-serif" font-size="13" lengthAdjust="spacing" textLength="208.8252" x="1173.09" y="179.3597">per ogni tipo di Shape concreta.</text></g><g class="entity" data-entity="GMN29" data-source-line="69" data-uid="ent0030" id="entity_GMN29"><path d="M904.62,383.63 L904.62,423.8956 A0,0 0 0 0 904.62,423.8956 L1145.7377,423.8956 A0,0 0 0 0 1145.7377,423.8956 L1145.7377,407.76 L1180.91,403.76 L1145.7377,399.76 L1145.7377,393.63 L1135.7377,383.63 L904.62,383.63 A0,0 0 0 0 904.62,383.63" fill="#FEFFDD" style="stroke:#181818;stroke-width:0.5;"/><path d="M1135.7377,383.63 L1135.7377,393.63 L1145.7377,393.63 L1135.7377,383.63" fill="#FEFFDD" style="stroke:#181818;stroke-width:0.5;"/><text fill="#000000" font-family="sans-serif" font-size="13" lengthAdjust="spacing" textLength="220.1177" x="910.62" y="400.6969">Implementa la logica di rendering</text><text fill="#000000" font-family="sans-serif" font-size="13" lengthAdjust="spacing" textLength="209.0156" x="910.62" y="415.8297">specifica per ogni tipo di Shape.</text></g><g class="entity" data-entity="GMN32" data-source-line="74" data-uid="ent0033" id="entity_GMN32"><path d="M2413.13,696.08 L2413.13,751.4784 L2679.2194,751.4784 L2679.2194,706.08 L2669.2194,696.08 L2413.13,696.08" fill="#FEFFDD" style="stroke:#181818;stroke-width:0.5;"/><path d="M2669.2194,696.08 L2669.2194,706.08 L2679.2194,706.08 L2669.2194,696.08" fill="#FEFFDD" style="stroke:#181818;stroke-width:1;"/><text fill="#000000" font-family="sans-serif" font-size="13" lengthAdjust="spacing" textLength="245.0894" x="2419.13" y="713.1469">Il metodo accept() permette al Visitor</text><text fill="#000000" font-family="sans-serif" font-size="13" lengthAdjust="spacing" textLength="207.2446" x="2419.13" y="728.2797">di operare sulla Shape specifica</text><text fill="#000000" font-family="sans-serif" font-size="13" lengthAdjust="spacing" textLength="118.0537" x="2419.13" y="743.4125">(double dispatch).</text></g><g class="entity" data-entity="GMN35" data-source-line="80" data-uid="ent0036" id="entity_GMN35"><path d="M1403.95,383.63 L1403.95,423.8956 A0,0 0 0 0 1403.95,423.8956 L1724.407,423.8956 A0,0 0 0 0 1724.407,423.8956 L1724.407,393.63 L1714.407,383.63 L1577.75,383.63 L1659.67,208.07 L1569.75,383.63 L1403.95,383.63 A0,0 0 0 0 1403.95,383.63" fill="#FEFFDD" style="stroke:#181818;stroke-width:0.5;"/><path d="M1714.407,383.63 L1714.407,393.63 L1724.407,393.63 L1714.407,383.63" fill="#FEFFDD" style="stroke:#181818;stroke-width:0.5;"/><text fill="#000000" font-family="sans-serif" font-size="13" lengthAdjust="spacing" textLength="268.271" x="1409.95" y="400.6969">Il metodo drawShapes() cicla sulle Shape</text><text fill="#000000" font-family="sans-serif" font-size="13" lengthAdjust="spacing" textLength="299.457" x="1409.95" y="415.8297">e per ciascuna invoca shape.accept(renderer)</text></g><!--reverse link ShapeVisitor to JavaFXShapeRenderer--><g class="link" data-entity-1="ShapeVisitor" data-entity-2="JavaFXShapeRenderer" data-source-line="14" data-uid="lnk4" id="link_ShapeVisitor_JavaFXShapeRenderer"><path d="M1122.7179,253.2979 C1135.7379,266.3179 1136.47,267.02 1149.18,279.59 C1161.79,292.07 1175.15,305.22 1188.28,318.1" fill="none" id="ShapeVisitor-backto-JavaFXShapeRenderer" style="stroke:#181818;stroke-width:1;stroke-dasharray:7.0,7.0;"/><polygon fill="none" points="1109.99,240.57,1118.4753,257.5406,1126.9606,249.0553,1109.99,240.57" style="stroke:#181818;stroke-width:1;"/></g><!--reverse link Shape to RectangleShape--><g class="link" data-entity-1="Shape" data-entity-2="RectangleShape" data-source-line="28" data-uid="lnk7" id="link_Shape_RectangleShape"><path d="M1266.2689,608.2956 C1081.8289,621.9156 714.47,651.26 390.18,691.5 C384.77,692.17 379.29,692.87 373.75,693.6" fill="none" id="Shape-backto-RectangleShape" style="stroke:#181818;stroke-width:1;stroke-dasharray:7.0,7.0;"/><polygon fill="none" points="1284.22,606.97,1265.827,602.3119,1266.7107,614.2793,1284.22,606.97" style="stroke:#181818;stroke-width:1;"/></g><!--reverse link Shape to EllipseShape--><g class="link" data-entity-1="Shape" data-entity-2="EllipseShape" data-source-line="32" data-uid="lnk9" id="link_Shape_EllipseShape"><path d="M1266.3359,618.5449 C1145.7359,636.9449 963.45,664.82 791.18,691.5 C785.79,692.33 780.33,693.18 774.81,694.03" fill="none" id="Shape-backto-EllipseShape" style="stroke:#181818;stroke-width:1;stroke-dasharray:7.0,7.0;"/><polygon fill="none" points="1284.13,615.83,1265.431,612.6135,1267.2409,624.4762,1284.13,615.83" style="stroke:#181818;stroke-width:1;"/></g><!--reverse link Shape to LineSegment--><g class="link" data-entity-1="Shape" data-entity-2="LineSegment" data-source-line="36" data-uid="lnk11" id="link_Shape_LineSegment"><path d="M1272.9675,636.2584 C1213.0975,654.6984 1155.1,672.58 1095.22,691.03" fill="none" id="Shape-backto-LineSegment" style="stroke:#181818;stroke-width:1;stroke-dasharray:7.0,7.0;"/><polygon fill="none" points="1290.17,630.96,1271.2013,630.5242,1274.7336,641.9926,1290.17,630.96" style="stroke:#181818;stroke-width:1;"/></g><!--reverse link Shape to PolygonShape--><g class="link" data-entity-1="Shape" data-entity-2="PolygonShape" data-source-line="40" data-uid="lnk13" id="link_Shape_PolygonShape"><path d="M1393.18,648.72 C1393.18,667.31 1393.18,672.76 1393.18,691.34" fill="none" id="Shape-backto-PolygonShape" style="stroke:#181818;stroke-width:1;stroke-dasharray:7.0,7.0;"/><polygon fill="none" points="1393.18,630.72,1387.18,648.72,1399.18,648.72,1393.18,630.72" style="stroke:#181818;stroke-width:1;"/></g><!--reverse link Shape to TextShape--><g class="link" data-entity-1="Shape" data-entity-2="TextShape" data-source-line="44" data-uid="lnk15" id="link_Shape_TextShape"><path d="M1513.3825,636.2584 C1573.2525,654.6984 1631.25,672.58 1691.13,691.03" fill="none" id="Shape-backto-TextShape" style="stroke:#181818;stroke-width:1;stroke-dasharray:7.0,7.0;"/><polygon fill="none" points="1496.18,630.96,1511.6164,641.9926,1515.1487,630.5242,1496.18,630.96" style="stroke:#181818;stroke-width:1;"/></g><!--reverse link Shape to GroupShape--><g class="link" data-entity-1="Shape" data-entity-2="GroupShape" data-source-line="48" data-uid="lnk17" id="link_Shape_GroupShape"><path d="M1520.0141,618.5446 C1640.6241,636.9446 1822.9,664.82 1995.18,691.5 C2000.56,692.33 2006.02,693.18 2011.54,694.03" fill="none" id="Shape-backto-GroupShape" style="stroke:#181818;stroke-width:1;stroke-dasharray:7.0,7.0;"/><polygon fill="none" points="1502.22,615.83,1519.1092,624.476,1520.919,612.6133,1502.22,615.83" style="stroke:#181818;stroke-width:1;"/></g><!--link CanvasPanel to JavaFXShapeRenderer--><g class="link" data-entity-1="CanvasPanel" data-entity-2="JavaFXShapeRenderer" data-source-line="58" data-uid="lnk22" id="link_CanvasPanel_JavaFXShapeRenderer"><path codeLine="58" d="M1581.2247,213.1971 C1521.7647,241.4971 1452.84,276.67 1386.18,318.59 C1380.65,322.07 1380.0121,322.3769 1374.4221,326.1769" fill="none" id="CanvasPanel-JavaFXShapeRenderer" style="stroke:#181818;stroke-width:1;"/><polygon fill="none" points="1592.06,208.04,1584.9233,207.0068,1581.2247,213.1971,1588.3614,214.2303,1592.06,208.04" style="stroke:#181818;stroke-width:1;"/><polygon fill="#181818" points="1369.46,329.55,1379.1518,327.7983,1373.595,326.7391,1374.6543,321.1823,1369.46,329.55" style="stroke:#181818;stroke-width:1;"/></g><!--link CanvasPanel to Shape--><g class="link" data-entity-1="CanvasPanel" data-entity-2="Shape" data-source-line="59" data-uid="lnk23" id="link_CanvasPanel_Shape"><path codeLine="59" d="M1704.77,208.05 C1743.15,273.21 1804.77,403.98 1742.18,488.94 C1713.3,528.13 1599.4487,558.0596 1508.2087,576.6896" fill="none" id="CanvasPanel-to-Shape" style="stroke:#181818;stroke-width:1;stroke-dasharray:7.0,7.0;"/><polygon fill="#181818" points="1502.33,577.89,1511.9483,580.0086,1507.2289,576.8897,1510.3478,572.1703,1502.33,577.89" style="stroke:#181818;stroke-width:1;"/><polygon fill="#000000" points="1770.8275,408.2384,1777.6765,401.6398,1772.4899,398.8743,1770.8275,408.2384" style="stroke:#000000;stroke-width:1;"/><text fill="#000000" font-family="sans-serif" font-size="13" lengthAdjust="spacing" textLength="29.7832" x="1782.18" y="408.3269">uses</text></g><!--link JavaFXShapeRenderer to Shape--><g class="link" data-entity-1="JavaFXShapeRenderer" data-entity-2="Shape" data-source-line="60" data-uid="lnk24" id="link_JavaFXShapeRenderer_Shape"><path codeLine="60" d="M1335.64,489.3 C1342.1,499.16 1348.41,509.18 1354.18,518.94 C1363.06,533.97 1369.2335,545.8809 1376.2035,560.4009" fill="none" id="JavaFXShapeRenderer-to-Shape" style="stroke:#181818;stroke-width:1;stroke-dasharray:7.0,7.0;"/><polygon fill="#181818" points="1378.8,565.81,1378.5113,555.9654,1376.6362,561.3024,1371.2992,559.4274,1378.8,565.81" style="stroke:#181818;stroke-width:1;"/><polygon fill="#000000" points="1371.6577,531.8493,1369.7282,522.5366,1364.6228,525.4492,1371.6577,531.8493" style="stroke:#000000;stroke-width:1;"/><text fill="#000000" font-family="sans-serif" font-size="13" lengthAdjust="spacing" textLength="33.5601" x="1378.18" y="532.0069">visits</text></g><!--reverse link Shape to JavaFXShapeRenderer--><g class="link" data-entity-1="Shape" data-entity-2="JavaFXShapeRenderer" data-source-line="61" data-uid="lnk25" id="link_Shape_JavaFXShapeRenderer"><path codeLine="61" d="M1293.1241,562.1922 C1281.2441,554.3422 1275.66,547.93 1268.18,535.94 C1259.55,522.1 1256.29,505.76 1256.07,489.39" fill="none" id="Shape-backto-JavaFXShapeRenderer" style="stroke:#181818;stroke-width:1;stroke-dasharray:7.0,7.0;"/><polygon fill="#181818" points="1298.13,565.5,1292.8264,557.2011,1293.9584,562.7435,1288.416,563.8756,1298.13,565.5" style="stroke:#181818;stroke-width:1;"/><text fill="#000000" font-family="sans-serif" font-size="13" lengthAdjust="spacing" textLength="76.0894" x="1269.18" y="532.0069">depends on</text></g><!--link Shape to GMN32--><g class="link" data-entity-1="Shape" data-entity-2="GMN32" data-source-line="74" data-uid="lnk34" id="link_Shape_GMN32"><path d="M1502.38,605.18 C1687.18,616.18 2073,643.09 2396.18,691.5 C2404.33,692.72 2412.71,694.1 2421.14,695.59" fill="none" id="Shape-GMN32" style="stroke:#181818;stroke-width:1;stroke-dasharray:7.0,7.0;"/></g><!--SRC=[lLN1Rjim3BtxAtXRZ2x6Uis204NN5HrsA9gXs9MH6OUeB0cIdAuj-k-ZPITskgmxBK00MoJDznv9CU61ZKEFDIYD8Lp4w7dLHBfHrYpvcU1Jjk6IW6eNdw2cUaK-P1cRI7wDYc2vGKVt73XQ3_Dv_xPOm4i6SBPjZvCxKX5DfIa5Wyy7rvNMx4Ble97ZEnjQKbMJYQ17zbkhdohXbZvm8ySF-XKxQnnPhxrjN6Ukykmrov9C-8PR_FepsU_8bEIf9NzfZV8KQH31jTFKSWY7GbjnqqhDuDgZsx0AycaK0kzeXh-AXl-l-as_HEjLfslNA5IAN9mSYDnspr7PteWQAZPaUrknVwU7bzrhqR6F6mxvPtWTS0yATZBKSJDE1dhGwPEX3cDqCiZHZ9u0qw5wm8eWO5bKld7EdfyNzqoFAM_7w1BD5iCj6jB9AbVSzyjXTcnZf92pqkDZCeT9I8yPtCXbmvMcUR8lFiBQgaRiwTXUqqHf36UdqyLHY75GKIpwMioW2HHWaHtRO-EmL8Wsi2zqKHnTVJCeoSaXW3LPPcoKXSNL9e9T7-mzeVw5rcmuo2Pfp0VhHEWpMqDGSWU64YDMi9LXYEniw-dGLTTaB3A1WXQbnzAqJb37QtopcmG4BJzRiS8sQTSRDfN414UArwtZEFOVa2iRewtt-beOBNzlqPOM-Y7BsrnYacZKC5H0SYRTNgQfqKAfKxUd826JqZRIVmaD3gFQvE_WZpfym68qLpaebX5DSBGdJ4chOWogCGXijbRqfnaiUWcxySttyBy1]--></g></svg>